<?xml version="1.0" standalone="no"?>
<!DOCTYPE svg PUBLIC "-//W3C//DTD SVG 1.1//EN" "http://www.w3.org/Graphics/SVG/1.1/DTD/svg11.dtd" >
<svg xmlns="http://www.w3.org/2000/svg">
<metadata>Generated by IcoMoon</metadata>
<defs>
<font id="cb" horiz-adv-x="1024">
<font-face units-per-em="1024" ascent="960" descent="-64" />
<missing-glyph horiz-adv-x="1024" />
<glyph unicode="&#x20;" horiz-adv-x="512" d="" />
<glyph unicode="&#xe900;" glyph-name="Accessible-Access-RGB" d="M735.179 579.282h-446.359v-39.385h157.538v-354.462h39.385v157.538h52.513v-157.538h39.385v354.462h157.538z" />
<glyph unicode="&#xe901;" glyph-name="App-Access-RGB" d="M636.718 684.308v-472.615h-249.436v472.615h249.436zM636.718 723.692h-249.436c-21.662 0-39.385-17.723-39.385-39.385v-472.615c0-21.662 17.723-39.385 39.385-39.385h249.436c21.662 0 39.385 17.723 39.385 39.385v472.615c0 21.662-17.723 39.385-39.385 39.385zM531.692 251.077c0-10.876-8.817-19.692-19.692-19.692s-19.692 8.817-19.692 19.692c0 10.876 8.817 19.692 19.692 19.692s19.692-8.817 19.692-19.692z" />
<glyph unicode="&#xe902;" glyph-name="Bag-Access-RGB" d="M315.077 546.462v-361.026h393.846v361.026h-393.846zM669.538 224.821h-315.077v282.256h315.077v-282.256z" />
<glyph unicode="&#xe903;" glyph-name="Barchart-Access-RGB" d="M249.436 244.513h523.815v-39.385h-523.815v39.385zM485.744 539.897h52.513v-249.436h39.385v288.821h-131.282v-288.821h39.385z" />
<glyph unicode="&#xe904;" glyph-name="Batch-Download-Access-RGB" d="M735.179 362.667v-137.846h-446.359v137.846h-39.385v-177.231h525.128v177.231z" />
<glyph unicode="&#xe905;" glyph-name="Batch-Upload-Access-RGB" d="M735.179 362.667v-137.846h-446.359v137.846h-39.385v-177.231h525.128v177.231z" />
<glyph unicode="&#xe906;" glyph-name="Bell-Access-RGB" d="M735.179 297.026h-446.359v39.385c39.385 0 72.205 31.508 72.205 71.549 0 0.656 0 1.313 0 1.969v89.272c0 80.082 67.61 145.723 150.974 145.723s150.974-65.641 150.974-145.723v-89.272c-0.656-39.385 30.851-72.205 70.236-72.862 0.656 0 1.313 0 1.969 0v-40.041zM374.154 336.41h275.692c-17.067 20.349-26.256 46.605-26.256 73.518v89.272c0 58.421-49.887 106.338-111.59 106.338s-111.59-47.918-111.59-106.338v-89.272c0-26.913-9.19-53.169-26.256-73.518z" />
<glyph unicode="&#xe907;" glyph-name="Book-Access-RGB" d="M635.405 283.897h139.159v413.538h-139.159c-26.913 0-53.169-9.19-74.174-25.6l-48.574-34.79-45.949 34.79c-21.005 17.067-47.262 26.256-74.831 26.256h-142.441v-413.538h143.097c17.723 0.656 35.446-4.595 49.887-15.097l46.605-37.415h-239.59v-39.385h525.128v39.385h-238.277l49.231 37.415c14.441 9.846 32.164 15.097 49.887 14.441zM391.877 323.282h-103.056v334.769h103.713c18.379 0 36.103-6.564 50.544-17.723l49.887-38.072v-323.61l-25.6 20.349c-21.662 17.067-48.574 24.944-75.487 24.287v0zM531.692 277.333v324.267l53.169 38.072 0.656 0.656c14.441 11.159 31.508 17.723 49.887 17.723h99.774v-334.769h-99.774c-26.913 0.656-53.169-7.221-74.174-23.631l-29.538-22.318z" />
<glyph unicode="&#xe908;" glyph-name="Bullet-List-Access-RGB" d="M393.846 526.769h380.718v-39.385h-380.718v39.385zM393.846 408.615h380.718v-39.385h-380.718v39.385zM393.846 290.462h380.718v-39.385h-380.718v39.385zM393.846 644.923h380.718v-39.385h-380.718v39.385z" />
<glyph unicode="&#xe909;" glyph-name="Bullet-List-Doc-Access-RGB" d="M288.821 710.564v-525.128h446.359v525.128h-446.359zM695.795 224.821h-367.59v446.359h367.59v-446.359zM472.615 375.795h144.41v-39.385h-144.41v39.385zM472.615 467.692h144.41v-39.385h-144.41v39.385zM472.615 559.59h144.41v-39.385h-144.41v39.385z" />
<glyph unicode="&#xe90a;" glyph-name="Calculator-Access-RGB" d="M695.795 671.179v-446.359h-367.59v446.359h367.59zM735.179 710.564h-446.359v-525.128h446.359v525.128zM367.59 467.692h65.641v-39.385h-65.641v39.385zM479.179 467.692h65.641v-39.385h-65.641v39.385zM590.769 469.662h65.641v-41.354h-65.641v41.354zM367.59 388.923h65.641v-39.385h-65.641v39.385zM479.179 388.923h65.641v-39.385h-65.641v39.385zM590.769 388.923h65.641v-39.385h-65.641v39.385zM367.59 310.154h65.641v-39.385h-65.641v39.385zM479.179 310.154h65.641v-39.385h-65.641v39.385zM590.769 310.154h65.641v-39.385h-65.641v39.385z" />
<glyph unicode="&#xe90b;" glyph-name="Calendar-Empty-Access-RGB" d="M249.436 631.795v-446.359h525.128v446.359h-525.128zM735.179 592.41v-65.641h-446.359v65.641h446.359zM288.821 224.821v262.564h446.359v-262.564h-446.359z" />
<glyph unicode="&#xe90c;" glyph-name="Calendar-Full-Access-RGB" d="M249.436 631.795v-446.359h525.128v446.359h-525.128zM735.179 592.41v-65.641h-446.359v65.641h446.359zM288.821 224.821v262.564h446.359v-262.564h-446.359z" />
<glyph unicode="&#xe90d;" glyph-name="Cart-Access-RGB" d="M446.359 631.795v-39.385h269.128v-175.262c0-1.313-1.313-2.626-2.626-2.626v0h-259.938c-5.908 0-11.159 3.938-13.128 9.19l-80.738 208.082h-129.313v-39.385h102.4l70.892-181.826c7.221-21.662 27.569-35.446 49.887-34.79h260.595c22.318-0.656 41.354 17.067 42.010 39.385 0 0.656 0 0.656 0 1.313v215.303h-309.169z" />
<glyph unicode="&#xe90e;" glyph-name="Chat-Access-RGB" d="M617.026 480.821h-210.051v-39.385h249.436v131.282h-39.385zM367.59 479.508l-78.769-81.395v273.067h328.205v-59.077h39.385v98.462h-406.974v-410.256l118.154 122.092z" />
<glyph unicode="&#xe90f;" glyph-name="cb-khan-academy-white" d="M730.585 601.6l-193.641 110.933c-13.785 7.877-36.759 7.877-50.544 0l-192.985-110.933c-13.785-7.877-24.944-27.569-24.944-43.323v-220.554c0-15.754 11.159-35.446 24.944-43.323l193.641-110.277c13.785-7.877 36.759-7.877 50.544 0l193.641 110.277c13.785 7.877 24.944 27.569 24.944 43.323v220.554c-0.656 15.754-11.815 35.446-25.6 43.323zM512 606.851c32.164 0 57.764-26.256 57.764-57.764s-26.256-57.764-57.764-57.764c-32.164 0-57.764 26.256-57.764 57.764s25.6 57.764 57.764 57.764zM580.267 299.651c-20.349-7.877-45.292-11.815-68.267-11.815s-47.262 3.938-67.61 11.815c-70.236 26.256-120.779 95.836-120.779 177.231 0 6.564 0.656 13.128 1.313 19.692 101.744-0.656 177.887-84.677 177.887-188.39 0-1.313 0-4.595 0-4.595h20.349c0 0 0 3.282 0 4.595 0 103.713 76.144 188.39 177.231 188.39 0.656-6.564 1.313-13.128 1.313-19.692-1.313-81.395-51.2-150.318-121.436-177.231z" />
<glyph unicode="&#xe910;" glyph-name="Check-Access-RGB" d="M249.436 710.564v-525.128h525.128v525.128h-525.128zM735.179 224.821h-446.359v446.359h446.359v-446.359z" />
<glyph unicode="&#xe911;" glyph-name="Check-List-Access-RGB" d="M393.846 526.769h380.718v-39.385h-380.718v39.385zM393.846 408.615h380.718v-39.385h-380.718v39.385zM393.846 290.462h380.718v-39.385h-380.718v39.385zM393.846 644.923h380.718v-39.385h-380.718v39.385z" />
<glyph unicode="&#xe912;" glyph-name="Check-List-Doc-Access-RGB" d="M288.821 710.564v-525.128h446.359v525.128h-446.359zM695.795 224.821h-367.59v446.359h367.59v-446.359zM519.877 375.795h110.277v-39.385h-110.277v39.385zM519.877 467.692h110.277v-39.385h-110.277v39.385zM519.877 559.59h110.277v-39.385h-110.277v39.385z" />
<glyph unicode="&#xe913;" glyph-name="cb-quote-left-white" d="M345.928 463.754v-167.385h141.128v140.472h-88.615v26.256c0 12.472 10.503 30.195 21.005 36.759l68.267 39.385v60.39l-94.523-55.138c-26.913-15.097-47.262-49.887-47.262-80.738z" />
<glyph unicode="&#xe914;" glyph-name="College-Reputation-Access-RGB" d="M730.585 605.538c3.282 28.226 4.595 57.108 4.595 85.333v19.692h-446.359v-19.692c0-28.226 1.313-57.108 4.595-85.333h-109.621v-19.692c0-114.215 86.646-208.738 195.61-215.959 11.815-14.441 25.6-28.226 40.697-39.385l-57.764-105.682h-73.518v-39.385h446.359v39.385h-73.518l-57.764 105.682c15.097 11.815 29.538 24.944 41.354 40.041 105.682 10.503 188.39 103.056 188.39 215.303v19.692h-103.056zM224.492 566.154h74.174c7.877-52.513 24.944-103.713 49.887-150.974-68.267 20.349-117.497 80.082-124.062 150.974zM616.369 224.821h-208.738l64.985 118.154-15.754 9.846c-77.456 47.918-124.718 166.072-128.656 318.359h367.59c-3.938-152.287-51.2-270.441-128.656-317.703l-15.754-10.503 64.985-118.154zM676.759 417.149c24.287 46.605 40.697 97.149 48.574 149.005h67.61c-6.564-68.267-51.856-126.031-116.185-149.005z" />
<glyph unicode="&#xe915;" glyph-name="Compose-Access-RGB" d="M774.564 448h-39.385v-223.179h-446.359v446.359h223.179v39.385h-262.564v-525.128h525.128v37.415c0 0.656 0 1.313 0 1.969v223.179z" />
<glyph unicode="&#xe916;" glyph-name="Computer-Access-RGB" d="M354.462 244.513h315.077v-39.385h-315.077v39.385zM735.179 651.487v-301.949h-446.359v301.949h446.359zM735.179 690.872h-446.359c-21.662 0-39.385-17.723-39.385-39.385v-301.949c0-21.662 17.723-39.385 39.385-39.385h446.359c21.662 0 39.385 17.723 39.385 39.385v301.949c0 21.662-17.723 39.385-39.385 39.385z" />
<glyph unicode="&#xe917;" glyph-name="Credit-Card-Access-RGB" d="M741.744 257.641h-459.487c-18.379 0-32.821 14.441-32.821 32.821v308.513c0 18.379 14.441 32.821 32.821 32.821h459.487c18.379 0 32.821-14.441 32.821-32.821v-308.513c0-18.379-14.441-32.821-32.821-32.821zM288.821 297.026h446.359v295.385h-446.359v-295.385z" />
<glyph unicode="&#xe918;" glyph-name="Daft-In-Access-RGB" d="M620.308 671.179l75.487-75.487v-370.872h-367.59v446.359h292.103zM636.718 710.564h-347.897v-525.128h446.359v426.667l-98.462 98.462z" />
<glyph unicode="&#xe919;" glyph-name="cb-quote-right-white" d="M678.072 432.246v167.385h-141.128v-141.128h88.615v-26.256c0-12.472-10.503-30.195-21.005-36.759l-68.267-39.385v-60.39l94.523 55.138c26.913 15.754 47.262 50.544 47.262 81.395z" />
<glyph unicode="&#xe91a;" glyph-name="Dbl-Left-Access-RGB" d="M249.436 710.564v-525.128h525.128v525.128h-525.128zM735.179 224.821h-446.359v446.359h446.359v-446.359z" />
<glyph unicode="&#xe91b;" glyph-name="Dbl-Right-Access-RGB" d="M249.436 710.564v-525.128h525.128v525.128h-525.128zM735.179 224.821h-446.359v446.359h446.359v-446.359z" />
<glyph unicode="&#xe91c;" glyph-name="cb-quote-left" d="M609.805 499.856l9.846 5.908 14.441 8.533 43.979 25.6v60.39l-43.979-25.6-50.544-29.538c-26.913-15.754-47.262-50.544-47.262-82.051v-167.385h141.128v141.128h-88.615v26.256c0 12.472 10.503 30.851 21.005 36.759z" />
<glyph unicode="&#xe91d;" glyph-name="Dollar-Access-RGB" d="M137.846 644.923v-393.846h741.744v393.846h-741.744zM297.354 445.374c-0.656-59.077 24.944-116.185 70.236-154.913h-190.359v315.077h190.359c-45.292-40.697-70.892-99.118-70.236-160.164zM332.8 445.374c0 68.267 38.728 130.626 100.431 160.164h144.41c61.703-29.538 101.744-91.897 102.4-160.164 0-67.61-41.354-126.687-102.4-154.913h-144.41c-61.046 26.913-100.431 87.959-100.431 154.913v0zM643.282 605.538h196.923v-315.077h-196.923c45.949 38.728 72.205 95.179 72.205 154.913 0 61.046-26.256 119.467-72.205 160.164zM781.128 421.744c14.441 0 26.256 11.815 26.256 26.256s-11.815 26.256-26.256 26.256-26.256-11.815-26.256-26.256c0-14.441 11.815-26.256 26.256-26.256zM236.308 421.744c14.441 0 26.256 11.815 26.256 26.256s-11.815 26.256-26.256 26.256-26.256-11.815-26.256-26.256c0-14.441 11.815-26.256 26.256-26.256z" />
<glyph unicode="&#xe91e;" glyph-name="cb-quote-right" d="M414.195 396.144l-9.846-5.908-14.441-7.877-43.979-25.6v-60.39l43.979 25.6 50.544 29.538c26.913 15.754 47.262 50.544 47.262 82.051v167.385h-141.128v-141.128h88.615v-26.256c0-13.128-10.503-31.508-21.005-37.415z" />
<glyph unicode="&#xe91f;" glyph-name="Download-Access-RGB" d="M735.179 362.667v-137.846h-446.359v137.846h-39.385v-177.231h525.128v177.231z" />
<glyph unicode="&#xe920;" glyph-name="Educator-Access-RGB" d="M735.179 710.564h-485.744v-39.385h485.744v-446.359h-223.179v-39.385h223.179c21.662 0 39.385 17.723 39.385 39.385v0 446.359c0 21.662-17.723 39.385-39.385 39.385zM626.872 526.113l-144.41-136.533c-5.908-5.251-13.128-8.533-21.005-8.533h-172.636c-21.662 0-39.385-17.723-39.385-39.385v-156.226h39.385v157.538h172.636c17.723-0.656 35.446 5.908 47.918 18.379l144.41 136.533-26.913 28.226z" />
<glyph unicode="&#xe922;" glyph-name="Error-Access-RGB" d="M512 710.564c-145.067 0-262.564-117.497-262.564-262.564s117.497-262.564 262.564-262.564 262.564 117.497 262.564 262.564v0c0 145.067-117.497 262.564-262.564 262.564zM288.821 448c0 123.405 99.774 223.179 223.179 223.179 52.513 0 103.056-18.379 143.097-51.856l-314.421-314.421c-33.477 40.041-51.856 90.585-51.856 143.097zM512 224.821c-52.513 0-103.056 18.379-143.097 51.856l314.421 314.421c78.769-94.523 66.297-234.995-28.226-314.421-40.041-33.477-90.585-51.856-143.097-51.856v0z" />
<glyph unicode="&#xe923;" glyph-name="Essential-Math-Access-RGB" d="M328.205 428.308h65.641v-39.385h-65.641v39.385zM439.795 428.308h65.641v-39.385h-65.641v39.385zM551.385 430.277h65.641v-41.354h-65.641v41.354zM328.205 349.538h65.641v-39.385h-65.641v39.385zM439.795 349.538h65.641v-39.385h-65.641v39.385zM551.385 349.538h65.641v-39.385h-65.641v39.385zM328.205 270.769h65.641v-39.385h-65.641v39.385zM439.795 270.769h65.641v-39.385h-65.641v39.385zM551.385 270.769h65.641v-39.385h-65.641v39.385zM693.169 401.395c-12.472 0-24.287 1.313-36.759 3.282v-219.241h-367.59v446.359h191.015c0.656 13.128 3.282 26.256 6.564 39.385h-236.964v-525.128h446.359v255.344h-2.626zM656.41 631.795v-140.472c9.846-2.626 19.692-3.938 30.195-3.938 3.282 0 6.564 0 9.19 0.656v183.138h-124.062c-5.908-12.472-9.846-25.6-11.815-39.385h96.492z" />
<glyph unicode="&#xe924;" glyph-name="Everyday-Words-Access-RGB" d="M466.051 710.564v-39.385h229.744v-446.359h-367.59v446.359h32.821v39.385h-39.385c-18.379 0-32.821-14.441-32.821-32.821v-459.487c0-18.379 14.441-32.821 32.821-32.821h413.538v525.128h-269.128z" />
<glyph unicode="&#xe926;" glyph-name="Expand-Window-Access-RGB" d="M249.436 710.564v-525.128h525.128v525.128h-525.128zM288.821 671.179h72.205v-72.205h-72.205v72.205zM735.179 224.821h-446.359v334.769h446.359v-334.769zM735.179 598.974h-334.769v72.205h334.769v-72.205z" />
<glyph unicode="&#xe927;" glyph-name="Explore-Access-RGB" d="M321.641 211.692h315.077v-39.385h-315.077v39.385zM702.359 414.523v-97.805h-446.359v301.949h190.359c0 13.128 1.313 26.256 4.595 39.385h-194.954c-21.662 0-39.385-17.723-39.385-39.385v-301.949c0-21.662 17.723-39.385 39.385-39.385h446.359c21.662 0 39.385 17.723 39.385 39.385v111.59c-12.472-5.908-25.6-10.503-39.385-13.785z" />
<glyph unicode="&#xe928;" glyph-name="Facebook-Access-RGB" d="M460.8 234.667h84.021v210.051h60.39l6.564 72.205h-66.954v40.697c0 17.067 3.282 26.256 19.692 26.256h47.262v74.174h-59.077c-63.015 0-91.897-28.226-91.897-81.395v-59.733h-47.262v-69.579h47.262v-212.677z" />
<glyph unicode="&#xe929;" glyph-name="Fax-Access-RGB" d="M420.103 618.667h183.795v-39.385h-183.795v39.385zM420.103 546.462h183.795v-39.385h-183.795v39.385zM735.179 598.974h-45.949v-39.385h45.949v-216.615h-446.359v216.615h45.949v39.385h-45.949c-21.662 0-39.385-17.723-39.385-39.385v-216.615c0-21.662 17.723-39.385 39.385-39.385h45.949v-118.154h354.462v118.154h45.949c21.662 0 39.385 17.723 39.385 39.385v216.615c0 21.662-17.723 39.385-39.385 39.385zM649.846 224.821h-275.692v78.769h275.692v-78.769z" />
<glyph unicode="&#xe92b;" glyph-name="Full-Length-Practice-Access-RGB" d="M472.615 585.846h183.795v-39.385h-183.795v39.385zM472.615 487.385h183.795v-39.385h-183.795v39.385zM472.615 388.923h183.795v-39.385h-183.795v39.385zM288.821 710.564v-525.128h347.897v39.385h-308.513v446.359h367.59v-387.282h39.385v426.667z" />
<glyph unicode="&#xe92c;" glyph-name="Globe-Access-RGB" d="M661.005 344.944c101.087 101.087 101.087 264.533 0 365.621l-28.226-28.882c82.708-87.959 78.113-225.805-9.846-308.513-84.021-78.769-214.646-78.769-298.667 0l-28.882-28.226c47.918-47.918 113.559-75.487 181.169-75.487v-43.323h-87.303v-40.041h221.867v40.041h-93.867v46.605c54.482 7.877 105.026 33.477 143.754 72.205z" />
<glyph unicode="&#xe92d;" glyph-name="Graduate-Pro-School-Access-RGB" d="M609.805 224.821h-281.6v446.359h292.103l75.487-75.487v-167.385c13.785-0.656 26.913-3.938 39.385-9.19v192.985l-98.462 98.462h-347.897v-525.128h313.764l7.221 39.385z" />
<glyph unicode="&#xe92e;" glyph-name="Graduation-Access-RGB" d="M512 697.436l-347.897-157.538 85.333-38.728v45.292h24.287l238.277 107.651 252.062-114.215-252.062-114.215-179.856 81.395h-43.323v-23.631l45.949-21.005v-178.544l177.231-85.333 183.795 85.333v181.826l164.103 74.174-347.897 157.538zM656.41 308.841l-144.41-66.954-137.846 66.954v131.282l138.503-61.046 16.41 7.877 128 59.077-0.656-137.19z" />
<glyph unicode="&#xe92f;" glyph-name="Home-Access-RGB" d="M643.282 224.821h-262.564v202.831h-39.385v-242.215h341.333v242.872h-39.385zM512.656 708.595l-263.221-263.221 27.569-27.569 235.651 235.651 234.995-235.651 27.569 27.569z" />
<glyph unicode="&#xe930;" glyph-name="Information-Access-RGB" d="M584.205 710.564v52.513h-144.41v-52.513h-150.974v-525.128h446.359v525.128h-150.974zM477.867 723.692h65.641v-65.641h-65.641v65.641zM695.795 224.821h-367.59v446.359h111.59v-52.513h144.41v52.513h111.59v-446.359z" />
<glyph unicode="&#xe931;" glyph-name="Instagram-Access-RGB" d="M512 630.482c59.733 0 66.954 0 89.928-1.313 14.441 0 28.226-2.626 41.354-7.877 19.692-7.221 34.79-22.974 42.667-42.010 4.595-13.128 7.221-27.569 7.877-41.354 1.313-23.631 1.313-30.851 1.313-89.928s0-66.954-1.313-89.928c0-14.441-2.626-28.226-7.877-41.354-7.221-19.692-22.974-34.79-42.010-42.010-13.128-4.595-27.569-7.221-41.354-7.877-23.631-1.313-30.851-1.313-89.928-1.313s-66.954 0-89.928 1.313c-14.441 0-28.226 2.626-41.354 7.877-19.692 7.221-34.79 22.974-42.667 42.010-4.595 13.128-7.221 27.569-7.877 41.354-1.313 23.631-1.313 30.851-1.313 89.928s0 66.954 1.313 89.928c0 14.441 2.626 28.226 7.877 41.354 7.221 19.692 22.974 34.79 42.667 42.667 13.128 4.595 27.569 7.221 41.354 7.877 22.318 0.656 29.538 0.656 89.272 0.656zM512 671.179c-60.39 0-68.267 0-91.897-1.313-18.379-0.656-36.759-3.938-53.826-10.503-30.195-11.815-53.826-35.446-64.985-64.985-6.564-17.067-9.846-35.446-10.503-53.826-1.969-24.287-1.969-32.164-1.969-92.554s0-68.267 1.313-91.897c0.656-18.379 3.938-36.759 10.503-53.826 11.815-30.195 35.446-53.826 64.985-64.985 17.067-6.564 35.446-9.846 53.826-10.503 23.631-1.313 31.508-1.313 91.897-1.313s68.267 0 91.897 1.313c18.379 0.656 36.759 3.938 53.826 10.503 30.195 11.815 53.826 35.446 64.985 64.985 6.564 17.067 9.846 35.446 10.503 53.826 1.313 23.631 1.313 31.508 1.313 91.897s0 68.267-1.313 91.897c-0.656 18.379-3.938 36.759-10.503 53.826-11.815 30.195-35.446 53.826-64.985 64.985-17.067 6.564-35.446 9.846-53.826 10.503-23.631 1.313-30.851 1.969-91.241 1.969v0zM512 562.215c-63.015 0-114.872-51.2-114.872-114.872s51.856-114.215 114.872-114.215 114.872 51.2 114.872 114.872-51.856 114.215-114.872 114.215v0zM512 373.169c-41.354 0-74.174 33.477-74.174 74.174 0 41.354 33.477 74.174 74.174 74.174 41.354 0 74.174-33.477 74.174-74.174s-32.821-74.174-74.174-74.174v0 0zM658.379 566.81c0-14.864-12.049-26.913-26.913-26.913s-26.913 12.049-26.913 26.913c0 14.864 12.049 26.913 26.913 26.913s26.913-12.049 26.913-26.913z" />
<glyph unicode="&#xe933;" glyph-name="Light-Bulb-Access-RGB" d="M446.359 204.472h131.282v-39.385h-131.282v39.385zM400.41 283.241h223.179v-39.385h-223.179v39.385zM590.769 323.282c0 0.656 1.313 43.323 47.918 97.805l0.656 0.656c22.318 28.226 37.415 74.174 37.415 114.872 0 93.21-68.923 160.821-164.103 160.821s-164.759-67.61-164.759-160.821c0.656-41.354 13.785-81.395 38.072-114.872l0.656-0.656c44.636-51.856 45.949-97.149 45.949-97.805h39.385c0 2.626-0.656 59.733-55.795 123.405-18.379 26.256-28.882 57.764-29.538 89.928 0 72.205 49.887 121.436 124.718 121.436s124.718-48.574 124.718-121.436c0-31.508-11.815-68.923-28.226-89.928-55.795-66.297-56.451-120.779-56.451-122.749l39.385-0.656z" />
<glyph unicode="&#xe934;" glyph-name="Linkedin-Access-RGB" d="M305.231 232.697h83.364v282.256h-83.364v-282.256zM347.897 558.933c28.882-0.656 52.513 22.318 52.513 51.2 0.656 28.882-22.318 52.513-51.2 52.513s-52.513-22.318-52.513-51.2v-0.656c0-28.226 22.974-51.856 51.2-51.856v0zM539.569 381.046c0 39.385 18.379 63.015 53.169 63.015 32.164 0 47.262-22.318 47.262-63.015v-147.692h83.364v177.887c0 75.487-39.385 112.246-98.462 112.246-34.133 0.656-66.297-17.067-84.677-46.605v38.072h-83.364v-281.6h82.708v147.692z" />
<glyph unicode="&#xe935;" glyph-name="List-Access-RGB" d="M249.436 710.564v-525.128h525.128v525.128h-525.128zM735.179 224.821h-446.359v446.359h446.359v-446.359z" />
<glyph unicode="&#xe936;" glyph-name="Local-Menu-Access-RGB" d="M249.436 710.564v-525.128h525.128v525.128h-525.128zM735.179 224.821h-446.359v446.359h446.359v-446.359z" />
<glyph unicode="&#xe937;" glyph-name="Location-Access-RGB" d="M512 710.564c-117.497 0-210.051-95.836-210.051-219.241 0-119.467 78.113-198.892 196.923-296.041l13.128-10.503 13.128 10.503c119.467 97.149 196.923 175.918 196.923 296.041 0 122.749-92.554 219.241-210.051 219.241zM512 240.574c-117.497 96.492-170.667 162.133-170.667 253.374 0 101.087 75.487 177.231 170.667 177.231s170.667-76.8 170.667-177.231c0-74.174-25.6-133.908-170.667-253.374z" />
<glyph unicode="&#xe938;" glyph-name="Lock-Access-RGB" d="M347.897 546.462c-21.662 0-39.385-17.723-39.385-39.385v-282.256c0-21.662 17.723-39.385 39.385-39.385v0h315.077c21.662 0 39.385 17.723 39.385 39.385v0 282.256c0 21.662-17.723 39.385-39.385 39.385h-315.077zM662.974 224.821h-315.077v282.256h315.077v-282.256z" />
<glyph unicode="&#xe939;" glyph-name="Lock-Open-Access-RGB" d="M354.462 546.462c-21.662 0-39.385-17.723-39.385-39.385v-282.256c0-21.662 17.723-39.385 39.385-39.385v0h315.077c21.662 0 39.385 17.723 39.385 39.385v0 282.256c0 21.662-17.723 39.385-39.385 39.385h-315.077zM669.538 224.821h-315.077v282.256h315.077v-282.256z" />
<glyph unicode="&#xe93a;" glyph-name="Mail-Access-RGB" d="M249.436 671.179v-242.872h39.385v146.379l223.179-192.328 223.179 192.328v-310.482h-446.359v45.949h-39.385v-85.333h525.128v446.359h-525.128zM734.523 627.2l-223.179-192.328-223.179 192.328v4.595h446.359v-4.595zM249.436 388.923h39.385v-39.385h-39.385v39.385z" />
<glyph unicode="&#xe93b;" glyph-name="Matrix-Access-RGB" d="M249.436 710.564v-525.128h525.128v525.128h-525.128zM735.179 224.821h-446.359v446.359h446.359v-446.359z" />
<glyph unicode="&#xe93c;" glyph-name="Megaphone-Access-RGB" d="M563.856 349.538c43.323 0 78.769-34.79 79.426-78.113 0 0 0 0 0-0.656h39.385v439.795h-39.385c0-43.323-35.446-78.769-78.769-78.769 0 0 0 0-0.656 0h-173.949c-78.113 0-141.128-63.015-141.128-141.128s63.015-141.128 141.128-141.128h173.949zM643.282 359.385c-21.662 19.692-49.887 30.195-79.426 29.538h-173.949c-56.451 0-101.744 45.292-101.744 101.744s45.292 101.744 101.744 101.744h173.949c28.882 0 57.764 10.503 79.426 30.195v-263.221z" />
<glyph unicode="&#xe93d;" glyph-name="Menu-Access-RGB" d="M249.436 710.564v-525.128h525.128v525.128h-525.128zM735.179 224.821h-446.359v446.359h446.359v-446.359z" />
<glyph unicode="&#xe93e;" glyph-name="Minus-Access-RGB" d="M249.436 710.564v-525.128h525.128v525.128h-525.128zM735.179 224.821h-446.359v446.359h446.359v-446.359z" />
<glyph unicode="&#xe93f;" glyph-name="Nav-Links-Access-RGB" d="M249.436 710.564v-525.128h525.128v525.128h-525.128zM735.179 224.821h-446.359v446.359h446.359v-446.359z" />
<glyph unicode="&#xe940;" glyph-name="Needs-Score-Access-RGB" d="M620.308 671.179l75.487-75.487v-370.872h-367.59v446.359h292.103zM636.718 710.564h-347.897v-525.128h446.359v426.667l-98.462 98.462z" />
<glyph unicode="&#xe941;" glyph-name="New-Doc-Access-RGB" d="M636.718 710.564h-347.897v-525.128h446.359v426.667l-98.462 98.462zM695.795 224.821h-367.59v446.359h292.103l75.487-75.487v-370.872z" />
<glyph unicode="&#xe942;" glyph-name="New-Window-Access-RGB" d="M249.436 709.908v-525.128h525.128v525.128h-525.128zM288.821 670.523h72.205v-72.205h-72.205v72.205zM735.179 224.164h-446.359v334.769h446.359v-334.769zM735.179 598.318h-334.769v72.205h334.769v-72.205z" />
<glyph unicode="&#xe943;" glyph-name="No-Draft-Access-RGB" d="M620.308 671.179l75.487-75.487v-370.872h-367.59v446.359h292.103zM636.718 710.564h-347.897v-525.128h446.359v426.667l-98.462 98.462z" />
<glyph unicode="&#xe947;" glyph-name="Note-Access-RGB" d="M636.718 710.564h-347.897v-525.128h446.359v426.667l-98.462 98.462zM695.795 224.821h-367.59v446.359h292.103l75.487-75.487v-370.872z" />
<glyph unicode="&#xe948;" glyph-name="Online-Tool-Access-RGB" d="M597.333 185.436h-39.385v118.81l13.128 4.595c74.174 26.913 123.405 96.492 124.718 175.262 0 66.954-38.728 128.656-98.462 162.79v-192.328h-170.667v191.672c-59.077-34.133-98.462-97.149-98.462-162.133 1.313-78.769 50.544-148.349 124.718-175.262l13.128-4.595v-118.81h-39.385v91.897c-82.708 35.446-136.533 116.841-137.846 206.769 0 91.241 60.39 176.574 150.318 212.021l26.913 10.503v-212.677h91.897v212.677l26.913-10.503c89.928-34.133 150.318-119.467 150.318-212.021-1.313-89.928-55.138-171.323-137.846-206.769v-91.897z" />
<glyph unicode="&#xe949;" glyph-name="Pending-Access-RGB" d="M512 710.564c-145.067 0-262.564-117.497-262.564-262.564s117.497-262.564 262.564-262.564 262.564 117.497 262.564 262.564v0c0 145.067-117.497 262.564-262.564 262.564zM512 224.821c-123.405 0-223.179 99.774-223.179 223.179s99.774 223.179 223.179 223.179 223.179-99.774 223.179-223.179-99.774-223.179-223.179-223.179v0zM531.692 467.692v157.538h-39.385v-195.61h196.923v38.072z" />
<glyph unicode="&#xe94a;" glyph-name="Phone-Access-RGB" d="M636.718 710.564h-242.872c-21.662 0-39.385-17.723-39.385-39.385v-446.359c0-21.662 17.723-39.385 39.385-39.385v0h242.872c21.662 0 39.385 17.723 39.385 39.385v0 446.359c0 21.662-17.723 39.385-39.385 39.385zM393.846 224.821v446.359h242.872v-446.359h-242.872z" />
<glyph unicode="&#xe94b;" glyph-name="Phone-Alt-Access-RGB" d="M644.595 251.733c-32.821-34.133-87.303-35.446-122.092-2.626-0.656 0.656-1.969 1.969-2.626 2.626l-204.144 204.144c-34.133 32.821-35.446 87.303-2.626 122.092 0.656 0.656 1.969 1.969 2.626 2.626l34.133 34.133-28.226 27.569-34.133-34.133c-49.887-48.574-51.2-128.656-1.969-178.544 0.656-0.656 1.313-1.313 1.969-1.969l204.144-204.144c48.574-49.887 128.656-51.2 178.544-1.969 0.656 0.656 1.313 1.313 1.969 1.969l34.133 34.133-28.226 28.226-33.477-34.133zM364.187 520.632l28.309 28.317 220.966-220.903-28.309-28.317-220.966 220.903z" />
<glyph unicode="&#xe94c;" glyph-name="Plus-Access-RGB" d="M249.436 710.564v-525.128h525.128v525.128h-525.128zM735.179 224.821h-446.359v446.359h446.359v-446.359z" />
<glyph unicode="&#xe94d;" glyph-name="Practice-Access-RGB" d="M235.851 610.593l117.273 113.84 27.431-28.258-117.273-113.84-27.431 28.258zM612.431 660.021l-323.61-323.61v-111.59h111.59l323.61 323.61-111.59 111.59zM384 264.205h-55.795v55.795l24.944 24.944 55.795-55.795-24.944-24.944zM381.374 373.169l231.056 231.056 55.795-55.795-231.056-231.056-55.795 55.795z" />
<glyph unicode="&#xe94e;" glyph-name="Practice-Test-Access-RGB" d="M393.846 526.769h380.718v-39.385h-380.718v39.385zM393.846 408.615h380.718v-39.385h-380.718v39.385zM393.846 290.462h380.718v-39.385h-380.718v39.385zM393.846 644.923h380.718v-39.385h-380.718v39.385z" />
<glyph unicode="&#xe94f;" glyph-name="Presentation-Access-RGB" d="M249.436 625.231v-334.769h525.128v334.769h-525.128zM735.179 329.846h-446.359v256h446.359v-256z" />
<glyph unicode="&#xe950;" glyph-name="Print-Access-RGB" d="M420.103 316.718h183.795v-39.385h-183.795v39.385zM420.103 388.923h183.795v-39.385h-183.795v39.385zM735.179 592.41h-45.949v118.154h-354.462v-118.154h-45.949c-21.662 0-39.385-17.723-39.385-39.385v-216.615c0-21.662 17.723-39.385 39.385-39.385h45.949v39.385h-45.949v216.615h446.359v-216.615h-45.949v-39.385h45.949c21.662 0 39.385 17.723 39.385 39.385v216.615c0 21.662-17.723 39.385-39.385 39.385zM374.154 592.41v78.769h275.692v-78.769h-275.692z" />
<glyph unicode="&#xe951;" glyph-name="Problem-Feedback-Access-RGB" d="M735.179 671.179v-380.718h-91.897v-96.492l-86.646 84.677-11.815 11.815h-256v380.718h446.359zM774.564 710.564h-525.128v-459.487h279.631l153.6-150.974v150.974h91.897v459.487z" />
<glyph unicode="&#xe955;" glyph-name="Raided-Pencil-Access-RGB" d="M656.41 671.179c-12.472 0-24.287-5.251-33.477-14.441-3.282 24.944-26.256 43.323-51.2 40.041-11.159-1.313-21.005-6.564-28.226-15.097-5.908 24.944-30.851 39.385-55.795 33.477-18.379-4.595-32.164-20.349-34.79-38.728-17.723 18.379-46.605 19.036-64.985 1.313-8.533-8.533-13.785-20.349-13.785-32.821v-32.821h-6.564c-30.851 0-56.451-22.974-59.077-53.826v0-129.969c0-47.918 36.103-109.621 91.897-131.938v-110.933h210.051v110.933c55.795 22.974 91.897 84.021 91.897 131.938v196.923c0 25.6-20.349 45.949-45.949 45.949zM557.949 651.487c0 11.159 8.533 19.692 19.692 19.692s19.692-8.533 19.692-19.692v-111.59c0-11.159-8.533-19.692-19.692-19.692s-19.692 8.533-19.692 19.692v111.59zM479.179 579.938v91.241c0 11.159 8.533 19.692 19.692 19.692s19.692-8.533 19.692-19.692v-124.718c0-11.159-8.533-19.692-19.692-19.692-1.313 0-3.282 0-4.595 0.656l-1.313 0.656c-1.313 0-1.969 0.656-3.282 1.313l-1.313 0.656c-1.313 0.656-1.969 1.313-2.626 1.969v0c-3.938 3.938-6.564 9.19-6.564 14.441v33.477zM400.41 644.923c0 11.159 8.533 19.692 19.692 19.692s19.692-8.533 19.692-19.692v-34.133c-4.595 1.313-8.533 1.313-13.128 1.313h-26.256v32.821zM662.974 428.308c0-32.821-29.538-85.99-77.456-99.118l-14.441-3.938v-100.431h-131.282v100.431l-14.441 3.938c-47.918 13.128-77.456 66.297-77.456 99.118v124.718c0 11.159 8.533 19.692 19.692 19.692h59.077c4.595 0 9.846-1.969 13.128-5.251 1.969-1.969 3.282-3.938 4.595-6.564v0c0.656-1.313 0.656-1.969 1.313-3.282v-0.656c0.656-2.626 0.656-5.908 0-8.533 0-0.656 0-0.656-0.656-1.313-0.656-1.313-0.656-1.969-1.313-3.282l-0.656-0.656c-1.313-2.626-3.938-5.251-6.564-6.564-3.282-1.969-6.564-2.626-9.846-3.282h-39.385v-39.385c54.482 0 98.462-43.979 98.462-98.462v0h39.385c0 45.292-22.318 87.303-59.733 112.903 1.313 1.313 1.969 1.969 3.282 3.282 19.036-16.41 47.918-14.441 64.328 4.595 1.313 1.313 1.969 2.626 3.282 3.938 11.159-22.974 38.728-32.164 61.046-21.662 5.908 2.626 11.159 7.221 15.754 12.472 7.221-20.349 28.226-32.821 49.887-29.538 0 0 0-53.169 0-53.169zM676.103 526.769c0-11.159-8.533-19.692-19.692-19.692s-19.692 8.533-19.692 19.692v98.462c0 11.159 8.533 19.692 19.692 19.692s19.692-8.533 19.692-19.692v-98.462z" />
<glyph unicode="&#xe956;" glyph-name="Resources-Access-RGB" d="M597.99 647.549l-323.61-323.61v-111.59h111.59l323.61 323.61-111.59 111.59zM653.785 535.959l-231.713-231.713-55.795 55.795 231.713 231.713 55.795-55.795zM369.559 251.733h-55.795v55.795l24.944 24.944 55.795-55.795-24.944-24.944z" />
<glyph unicode="&#xe958;" glyph-name="Rupee-Access-RGB" d="M144.41 644.923v-393.846h741.744v393.846h-741.744zM303.918 445.374c-0.656-59.077 24.944-116.185 70.236-154.913h-190.359v315.077h190.359c-45.292-40.697-70.892-99.118-70.236-160.164zM339.364 445.374c0 68.267 38.728 130.626 100.431 160.164h144.41c61.703-29.538 101.744-91.897 102.4-160.164 0-67.61-41.354-126.687-102.4-154.913h-144.41c-61.046 26.913-100.431 87.959-100.431 154.913v0zM649.846 605.538h196.923v-315.077h-196.923c45.949 38.728 72.205 95.179 72.205 154.913 0 61.046-26.256 119.467-72.205 160.164zM787.692 421.744c14.441 0 26.256 11.815 26.256 26.256s-11.815 26.256-26.256 26.256-26.256-11.815-26.256-26.256 11.815-26.256 26.256-26.256zM242.872 421.744c14.441 0 26.256 11.815 26.256 26.256s-11.815 26.256-26.256 26.256-26.256-11.815-26.256-26.256 11.815-26.256 26.256-26.256z" />
<glyph unicode="&#xe959;" glyph-name="Save-Date-Access-RGB" d="M249.436 631.795v-446.359h525.128v446.359h-525.128zM735.179 224.821h-446.359v367.59h446.359v-367.59z" />
<glyph unicode="&#xe95a;" d="M551.385 349.538v0zM472.615 349.538v0zM393.846 349.538v0zM269.128 467.692v0 0z" />
<glyph unicode="&#xe95b;" d="M774.564 487.385h-525.128v-262.564h-59.077v-39.385h643.282v39.385h-59.077v262.564zM288.821 224.821v223.179h446.359v-223.179h-85.333v144.41h-39.385v-144.41h-39.385v144.41h-39.385v-144.41h-39.385v144.41h-39.385v-144.41h-39.385v144.41h-39.385v-144.41h-85.333z" />
<glyph unicode="&#xe95c;" d="M511.344 818.215l-262.564-263.877 27.569-27.569 234.995 235.651 235.651-235.651 27.569 27.569z" />
<glyph unicode="&#xe95d;" glyph-name="Science-Access-RGB" d="M439.795 264.205c-3.282 13.128-5.908 26.256-7.221 39.385h269.785v32.821h-273.067c-1.313 63.672 19.036 125.374 57.764 175.262l37.415-122.092 132.595 40.697-95.179 313.108-33.477-10.503-13.128 43.979-65.641-20.349 13.128-43.979-33.477-9.846 21.005-70.236c-88.615-76.8-136.533-189.703-131.282-306.544 1.313-21.005 4.595-41.354 8.533-61.703h-45.949v-98.462h452.923v98.462h-294.728zM616.369 451.938l-69.579-21.005-15.754 49.887 69.579 21.005 15.754-49.887zM502.154 752.574l7.877-24.944-28.226-8.533-7.877 24.944 28.226 8.533zM539.569 702.687l51.856-169.354-69.579-21.005-51.2 168.697 68.923 21.662zM460.8 597.662l15.097-48.574c-53.826-59.733-82.708-138.503-78.769-219.241 1.313-22.318 4.595-43.979 9.846-65.641h-45.949c-4.595 21.005-7.877 42.010-9.19 63.015-4.595 101.744 35.446 200.862 108.964 270.441v0zM702.359 198.564h-387.282v32.821h387.282v-32.821z" />
<glyph unicode="&#xe95e;" glyph-name="Search-Access-RGB" d="M461.456 669.21c94.523 0 170.667-76.144 170.667-170.667s-76.144-170.667-170.667-170.667-170.667 76.144-170.667 170.667v0c0 94.523 76.8 170.667 170.667 170.667zM461.456 709.908c-116.841 0-211.364-94.523-211.364-211.364s94.523-211.364 211.364-211.364 211.364 94.523 211.364 211.364v0c0.656 116.841-94.523 211.364-211.364 211.364z" />
<glyph unicode="&#xe95f;" glyph-name="Series-Access-RGB" d="M676.103 710.564h-426.667v-426.667h426.667v426.667zM636.718 323.282h-347.897v347.897h347.897v-347.897z" />
<glyph unicode="&#xe960;" glyph-name="Settings-Access-RGB" d="M586.831 185.436h-149.662v74.174c-16.41 6.564-32.164 15.754-45.949 26.256l-64.328-36.759-77.456 135.221 64.328 37.415c-2.626 17.723-2.626 34.79 0 52.513l-64.328 36.759 78.113 135.877 64.328-37.415c7.221 5.251 14.441 10.503 21.662 14.441 7.877 4.595 15.754 8.533 23.631 11.815v74.831h149.662v-74.174c7.877-3.282 16.41-7.221 23.631-11.815 7.877-4.595 15.097-9.19 21.662-14.441l64.328 37.415 78.113-135.877-64.328-36.759c2.626-17.723 2.626-34.79 0-52.513l64.328-37.415-78.113-135.877-64.328 37.415c-13.785-10.503-29.538-19.692-45.949-26.256l0.656-74.831zM476.554 224.821h70.892v63.015l13.785 4.595c21.005 7.221 40.041 18.379 56.451 32.821l10.503 9.19 53.826-31.508 39.385 67.61-53.826 31.508 1.969 13.128c4.595 21.662 4.595 43.979 0 64.985l-3.282 13.785 54.482 31.508-38.728 67.61-53.826-31.508-10.503 9.19c-16.41 14.441-36.103 25.6-57.108 32.821l-13.128 4.595v63.015h-70.892v-62.359l-13.128-4.595c-21.005-7.221-40.041-18.379-57.108-32.821l-10.503-9.19-53.826 31.508-38.728-67.61 54.482-31.508-3.282-14.441c-4.595-21.662-4.595-43.979 0-64.985l2.626-13.785-53.826-31.508 38.728-67.61 53.826 31.508 10.503-9.19c16.41-14.441 35.446-25.6 56.451-32.821l13.785-4.595v-62.359z" />
<glyph unicode="&#xe961;" glyph-name="Share-Access-RGB" d="M498.872 207.754l-17.067 17.067h-156.226l2.626 446.359h367.59v-336.082l39.385 39.385v336.082h-446.359v-525.128h232.369zM472.615 592.41h183.795v-39.385h-183.795v39.385zM472.615 493.949h183.795v-39.385h-183.795v39.385zM472.615 395.487h183.795v-39.385h-183.795v39.385z" />
<glyph unicode="&#xe962;" glyph-name="Share-Alt-Access-RGB" d="M249.436 710.564v-525.128h525.128v525.128h-525.128zM735.179 224.821h-446.359v446.359h446.359v-446.359z" />
<glyph unicode="&#xe963;" glyph-name="Signed-In-Access-RGB" d="M512 474.256c-64.985 0-118.154 53.169-118.154 118.154s53.169 118.154 118.154 118.154 118.154-53.169 118.154-118.154-53.169-118.154-118.154-118.154zM512 671.179c-43.323 0-78.769-35.446-78.769-78.769s35.446-78.769 78.769-78.769 78.769 35.446 78.769 78.769-35.446 78.769-78.769 78.769zM354.462 185.436h-39.385v131.282c0 47.262 38.072 85.333 85.333 85.333h164.103v-39.385h-164.103c-25.6 0-45.949-20.349-45.949-45.949v-131.282z" />
<glyph unicode="&#xe964;" glyph-name="Smiley-Face-Access-RGB" d="M512 664.615c123.405 0 223.179-99.774 223.179-223.179s-99.774-223.179-223.179-223.179-223.179 99.774-223.179 223.179 99.774 223.179 223.179 223.179zM512 704c-145.067 0-262.564-117.497-262.564-262.564s117.497-262.564 262.564-262.564 262.564 117.497 262.564 262.564-117.497 262.564-262.564 262.564zM512 310.81c-40.697 0-79.426 14.441-110.277 41.354l26.913 30.851c47.262-41.354 118.154-41.354 165.415 0l26.913-30.851c-29.538-26.256-68.267-41.354-108.964-41.354z" />
<glyph unicode="&#xe966;" glyph-name="Sound-Access-RGB" d="M379.405 579.282h-129.969v-262.564h129.969l137.846-131.282h39.385v525.128h-38.728l-138.503-131.282zM517.251 240.574l-121.436 115.528h-106.995v183.795h106.995l121.436 114.872v-414.195z" />
<glyph unicode="&#xe969;" glyph-name="Special-Edition-Access-RGB" d="M513.969 749.949c-126.687 0-229.744-103.056-229.744-229.744 0-53.169 18.379-102.4 48.574-141.128l-103.056-178.544 137.846 36.759 36.759-137.19 110.277 190.359c-3.938 0-7.221 0-11.159 0 3.938 0 7.221 0 11.159 0 126.687 0 229.744 103.056 229.744 229.744s-103.056 229.744-230.4 229.744zM417.477 201.846l-12.472 45.949-9.846 38.072-38.072-9.846-45.949-12.472 49.887 85.333c30.195-27.569 68.267-46.605 110.277-54.482l-53.826-92.554zM513.969 329.846c-105.026 0-190.359 85.333-190.359 190.359s85.333 190.359 190.359 190.359c105.026 0 190.359-85.333 190.359-190.359s-84.677-190.359-190.359-190.359z" />
<glyph unicode="&#xe96b;" glyph-name="Tag-Access-RGB" d="M516.595 185.436l-267.159 267.159 253.374 257.969h200.862c39.385 0 70.892-32.164 70.892-70.892v-200.862l-257.969-253.374zM305.231 452.595l212.021-212.021 217.928 214.646v183.795c0 17.723-14.441 31.508-31.508 31.508h-183.795l-214.646-217.928z" />
<glyph unicode="&#xe96c;" glyph-name="Task-Complete-1-Access-RGB" d="M620.308 671.179l75.487-75.487v-370.872h-367.59v446.359h292.103zM636.718 710.564h-347.897v-525.128h446.359v426.667l-98.462 98.462z" />
<glyph unicode="&#xe96d;" glyph-name="Task-Complete-Access-RGB" d="M249.436 710.564v-525.128h525.128v525.128h-525.128zM288.821 671.179h72.205v-72.205h-72.205v72.205zM735.179 224.821h-446.359v334.769h446.359v-334.769zM735.179 598.974h-334.769v72.205h334.769v-72.205z" />
<glyph unicode="&#xe96e;" glyph-name="Teacher-Edition-Access-RGB" d="M411.569 611.446c22.318-0.656 44.636-6.564 64.985-16.41 15.097-6.564 24.944-10.503 35.446-10.503s21.005 3.938 35.446 10.503c20.349 10.503 42.010 15.754 64.328 16.41 5.908 0 11.159-0.656 17.067-1.313 51.2-6.564 105.682-59.733 105.682-145.723 0-95.179-50.544-278.974-119.467-278.974-20.349 0.656-40.041 5.908-58.421 14.441-14.441 7.221-29.538 11.159-45.292 11.815-15.754-1.313-30.851-5.251-45.292-11.815-18.379-8.533-38.072-13.785-58.421-14.441-68.267 0-118.81 183.795-118.81 278.974 0 85.99 54.482 139.159 105.682 145.723 5.908 1.313 11.159 1.313 17.067 1.313zM411.569 650.831c-7.221 0-14.441-0.656-21.662-1.313-68.267-8.533-140.472-76.144-140.472-185.108 0-90.585 47.262-318.359 158.851-318.359 25.6 0.656 50.544 6.564 73.518 17.723 9.19 4.595 19.692 7.877 30.195 9.19 10.503-1.313 21.005-4.595 30.195-9.19 22.974-10.503 47.918-17.067 73.518-17.723 111.59 0 158.851 227.774 158.851 318.359 0 108.308-72.205 176.574-140.472 185.108-7.221 0.656-14.441 1.313-21.662 1.313-28.226-0.656-55.795-7.221-80.738-19.692-6.564-3.282-13.128-5.908-19.692-7.221-6.564 1.313-13.128 3.938-19.692 7.221-25.6 12.472-53.169 19.692-80.738 19.692v0z" />
<glyph unicode="&#xe96f;" glyph-name="Team-Leader-Access-RGB" d="M708.923 402.051h-223.179c-47.262 0-85.333-38.072-85.333-85.333v-131.282h39.385v131.282c0 25.6 20.349 45.949 45.949 45.949h223.179c25.6 0 45.949-20.349 45.949-45.949v-131.282h39.385v131.282c0 47.262-38.072 85.333-85.333 85.333v0zM597.333 474.256c64.985 0 118.154 53.169 118.154 118.154s-53.169 118.154-118.154 118.154-118.154-53.169-118.154-118.154 53.169-118.154 118.154-118.154zM597.333 671.179c43.323 0 78.769-35.446 78.769-78.769s-35.446-78.769-78.769-78.769-78.769 35.446-78.769 78.769 35.446 78.769 78.769 78.769z" />
<glyph unicode="&#xe970;" glyph-name="Test-Scored-Access-RGB" d="M620.308 671.179l75.487-75.487v-370.872h-367.59v446.359h292.103zM636.718 710.564h-347.897v-525.128h446.359v426.667l-98.462 98.462z" />
<glyph unicode="&#xe971;" glyph-name="Tuitinon-Financial-Aid-Access-RGB" d="M512 749.949c-126.687 0-229.744-103.056-229.744-229.744 0-53.169 17.723-101.744 47.918-140.472l-103.056-179.2 137.846 36.759 36.759-137.19 110.277 190.359c-3.938 0-7.221 0-11.159 0 3.938 0 7.221 0 11.159 0 126.687 0 229.744 103.056 229.744 229.744s-103.056 229.744-229.744 229.744zM415.508 201.846l-12.472 45.949-9.846 38.072-38.072-9.846-45.949-12.472 49.231 85.99c30.195-27.569 68.267-46.605 110.277-54.482l-53.169-93.21zM512 329.846c-105.026 0-190.359 85.333-190.359 190.359s85.333 190.359 190.359 190.359 190.359-85.333 190.359-190.359-85.333-190.359-190.359-190.359z" />
<glyph unicode="&#xe972;" glyph-name="Twitter-Access-RGB" d="M288.821 308.841c41.354-26.256 89.272-40.697 138.503-40.697 168.041 0 262.564 141.128 257.313 267.815 17.723 12.472 32.821 28.226 45.292 46.605-16.41-7.221-34.133-11.815-51.856-14.441 19.036 11.159 32.821 28.882 40.041 49.887-17.723-10.503-37.415-17.723-57.764-21.662-34.133 36.759-91.241 38.072-128 3.938-23.631-22.318-33.477-55.138-26.256-86.646-72.862 4.595-140.472 38.728-186.421 95.179-24.287-41.354-11.815-93.867 28.226-120.123-14.441 0.656-28.226 4.595-40.697 11.159-0.656-43.323 30.195-80.738 72.205-89.272-13.128-3.282-27.569-3.938-40.697-1.313 11.815-36.759 45.949-61.703 84.677-62.359-38.728-30.195-86.646-43.979-134.564-38.072z" />
<glyph unicode="&#xe974;" glyph-name="Upload-Access-RGB" d="M735.179 362.667v-137.846h-446.359v137.846h-39.385v-177.231h525.128v177.231z" />
<glyph unicode="&#xe975;" glyph-name="User-Access-RGB" d="M708.923 185.436h-39.385v131.282c0 25.6-20.349 45.949-45.949 45.949v0h-223.179c-25.6 0-45.949-20.349-45.949-45.949v-131.282h-39.385v131.282c0 47.262 38.072 85.333 85.333 85.333h223.179c47.262 0 85.333-38.072 85.333-85.333v-131.282zM512 474.256c-64.985 0-118.154 53.169-118.154 118.154s53.169 118.154 118.154 118.154 118.154-53.169 118.154-118.154-53.169-118.154-118.154-118.154zM512 671.179c-43.323 0-78.769-35.446-78.769-78.769s35.446-78.769 78.769-78.769 78.769 35.446 78.769 78.769-35.446 78.769-78.769 78.769z" />
<glyph unicode="&#xe976;" glyph-name="Video-Lesson-Access-RGB" d="M505.436 474.256h172.636v-39.385h-172.636v39.385zM505.436 566.154h172.636v-39.385h-172.636v39.385zM505.436 382.359h172.636v-39.385h-172.636v39.385zM466.051 362.667c0-18.126-14.694-32.821-32.821-32.821s-32.821 14.694-32.821 32.821c0 18.126 14.694 32.821 32.821 32.821s32.821-14.694 32.821-32.821zM447.672 483.446c-4.595-3.938-9.19-7.877-14.441-11.159-10.503-7.221-21.005-13.785-32.821-19.036 0.656-18.379 15.754-32.164 34.133-31.508s32.164 15.754 31.508 34.133c0 11.815-7.221 22.318-18.379 27.569v0zM503.467 671.179c3.282-13.128 5.908-26.256 5.908-39.385h225.805v-367.59h-65.641v-103.713l-125.374 103.713h-215.959v172.636h-3.938c-11.815 0-23.631 1.313-35.446 3.282v-215.303h240.903l178.544-148.349 0.656 148.349h65.641v446.359h-271.097z" />
<glyph unicode="&#xe978;" glyph-name="Window-Access-RGB" d="M249.436 710.564v-525.128h525.128v525.128h-525.128zM288.821 671.179h72.205v-72.205h-72.205v72.205zM735.179 224.821h-446.359v334.769h446.359v-334.769zM735.179 598.974h-334.769v72.205h334.769v-72.205z" />
<glyph unicode="&#xe979;" glyph-name="Work-Together-Access-RGB" d="M491.651 119.795h-161.477v67.61c-6.564 3.282-12.472 6.564-18.379 10.503l-58.421-33.477-83.364 144.41 58.421 33.477c-0.656 7.221-0.656 14.441 0 21.662l-58.421 33.477 83.364 144.41 58.421-33.477c3.282 1.969 5.908 3.938 9.19 5.251s6.564 3.282 9.846 5.251v66.954h160.821v-66.954c3.282-1.313 6.564-3.282 9.19-5.251s5.908-3.938 9.19-5.251l58.421 33.477 83.364-144.41-58.421-33.477c0.656-7.221 0.656-14.441 0-21.662l58.421-33.477-83.364-144.41-58.421 33.477c-5.908-3.938-12.472-7.221-18.379-10.503v-67.61zM369.559 159.179h82.051v53.826l12.472 5.251c11.815 4.595 22.974 11.159 32.821 19.036l10.503 7.877 46.605-26.913 43.979 76.144-46.605 26.256 1.969 13.128c1.969 12.472 1.969 24.944 0 37.415l-1.969 13.128 46.605 26.913-43.979 76.144-46.605-26.256-10.503 7.877c-5.251 3.938-10.503 7.221-15.754 10.503s-11.159 5.908-17.067 8.533l-11.815 5.251v53.169h-82.708v-53.826l-11.815-5.251c-5.908-2.626-11.815-5.251-17.067-8.533s-10.503-6.564-15.754-10.503l-10.503-7.221-46.605 26.913-43.979-76.144 46.605-26.913-1.969-13.128c-1.969-12.472-1.969-24.944 0-37.415l1.969-13.128-46.605-26.913 43.979-75.487 46.605 26.913 10.503-7.877c9.846-7.877 21.005-13.785 32.821-19.036l12.472-5.251-0.656-54.482zM746.995 673.805l25.6 15.097-32.821 57.108-25.6-15.097c-5.251 3.938-10.503 6.564-15.754 9.19v29.538h-65.641v-29.538c-5.908-2.626-11.159-5.251-15.754-9.19l-26.256 14.441-32.821-57.108 25.6-15.097c-0.656-5.908-0.656-12.472 0-18.379l-25.6-14.441 32.821-57.108 25.6 15.097c5.251-3.938 10.503-6.564 15.754-9.19v-29.538h65.641v29.538c5.908 2.626 11.159 5.251 15.754 9.19l25.6-15.097 32.821 57.108-25.6 15.097c1.313 5.908 1.313 12.472 0.656 18.379zM726.646 677.087c1.969-7.877 1.969-16.41 0-24.944l-1.313-7.221 21.005-11.815-13.128-22.974-21.005 11.815-5.251-4.595c-6.564-5.251-13.785-9.846-21.662-12.472l-6.564-1.969v-23.631h-26.256v24.287l-6.564 1.969c-7.877 2.626-15.097 6.564-21.662 12.472l-5.251 4.595-21.005-11.815-13.128 22.974 21.005 11.815-1.969 6.564c-1.969 7.877-1.969 16.41 0 24.944l1.313 7.221-20.349 11.815 13.128 22.974 21.005-11.815 5.251 4.595c6.564 5.251 13.785 9.846 21.662 12.472l6.564 1.969v23.631h26.256v-24.287l6.564-1.969c7.877-2.626 15.097-6.564 21.662-12.472l5.251-4.595 21.005 11.815 13.128-22.974-21.005-11.815 1.313-6.564z" />
<glyph unicode="&#xe97b;" glyph-name="Youtube-Access-RGB" d="M730.585 537.928c0 0-4.595 30.851-17.723 43.979-11.815 11.815-28.226 18.379-44.636 19.036-62.359 4.595-156.226 4.595-156.226 4.595v0c0 0-93.867 0-156.226-4.595-17.067 0-32.821-7.221-44.636-19.036-13.128-13.128-17.723-43.979-17.723-43.979-2.626-24.287-4.595-47.918-4.595-72.205v-33.477c0-24.287 1.969-47.918 4.595-72.205 0 0 4.595-30.851 17.723-43.979 17.067-17.723 39.385-17.067 49.231-19.036 35.446-3.282 151.631-4.595 151.631-4.595s93.867 0 156.226 4.595c17.067 0 32.821 7.221 44.636 19.036 13.128 13.785 17.723 43.979 17.723 43.979 2.626 24.287 4.595 47.918 4.595 72.205v34.133c0 23.631-1.313 47.918-4.595 71.549zM466.051 397.456v124.718l120.779-62.359-120.779-62.359z" />
<glyph unicode="&#xe97c;" glyph-name="Accessible-Access-RGB2" d="M459.487 658.051c0 28.882 23.631 52.513 52.513 52.513s52.513-23.631 52.513-52.513-23.631-52.513-52.513-52.513-52.513 23.631-52.513 52.513z" />
<glyph unicode="&#xe97d;" glyph-name="App-Access-RGB2" d="M387.282 329.846h249.436v-39.385h-249.436v39.385z" />
<glyph unicode="&#xe97e;" glyph-name="Bag-Access-RGB2" d="M629.497 546.462v100.431c0 35.446-28.226 63.672-63.672 63.672h-108.308c-35.446 0-63.672-28.226-63.672-63.672v-100.431h39.385v100.431c0 13.128 11.159 24.287 24.287 24.287h108.964c13.128 0 24.287-11.159 24.287-24.287v-100.431h38.728z" />
<glyph unicode="&#xe97f;" glyph-name="Barchart-Access-RGB2" d="M315.077 428.308h45.949v-137.846h39.385v177.231h-124.718v-177.231h39.385zM662.974 644.923h45.949v-354.462h39.385v393.846h-124.718v-393.846h39.385z" />
<glyph unicode="&#xe980;" glyph-name="Batch-Download-Access-RGB2" d="M683.323 526.113l-27.569 27.569-143.754-143.754-143.754 143.754-27.569-27.569 171.323-171.323zM683.323 670.523l-27.569 27.569-143.754-143.754-143.754 143.754-27.569-27.569 171.323-171.323z" />
<glyph unicode="&#xe981;" glyph-name="Batch-Upload-Access-RGB2" d="M512 656.738l143.754-143.754 27.569 27.569-171.979 171.323-170.667-171.323 27.569-27.569zM512 512.328l143.754-143.754 27.569 27.569-171.979 171.323-170.667-171.323 27.569-27.569z" />
<glyph unicode="&#xe982;" glyph-name="Bell-Access-RGB2" d="M459.487 710.564h105.026v-39.385h-105.026v39.385zM512 224.821c-21.662 0-39.385 17.723-39.385 39.385h-39.385c0-43.323 35.446-78.769 78.769-78.769s78.769 35.446 78.769 78.769h-39.385c0-21.662-17.723-39.385-39.385-39.385z" />
<glyph unicode="&#xe983;" glyph-name="Book-Access-RGB2" d="M328.205 585.846h105.026v-39.385h-105.026v39.385zM328.205 507.077h105.026v-39.385h-105.026v39.385zM328.205 428.308h105.026v-39.385h-105.026v39.385z" />
<glyph unicode="&#xe984;" glyph-name="Bullet-List-Access-RGB2" d="M328.205 507.077c0-21.752-17.633-39.385-39.385-39.385s-39.385 17.633-39.385 39.385c0 21.752 17.633 39.385 39.385 39.385s39.385-17.633 39.385-39.385zM328.205 388.923c0-21.752-17.633-39.385-39.385-39.385s-39.385 17.633-39.385 39.385c0 21.752 17.633 39.385 39.385 39.385s39.385-17.633 39.385-39.385zM328.205 270.769c0-21.752-17.633-39.385-39.385-39.385s-39.385 17.633-39.385 39.385c0 21.752 17.633 39.385 39.385 39.385s39.385-17.633 39.385-39.385zM328.205 625.231c0-21.752-17.633-39.385-39.385-39.385s-39.385 17.633-39.385 39.385c0 21.752 17.633 39.385 39.385 39.385s39.385-17.633 39.385-39.385z" />
<glyph unicode="&#xe985;" glyph-name="Bullet-List-Doc-Access-RGB2" d="M439.795 539.897c0-10.876-8.817-19.692-19.692-19.692s-19.692 8.817-19.692 19.692c0 10.876 8.817 19.692 19.692 19.692s19.692-8.817 19.692-19.692zM439.795 448c0-10.876-8.817-19.692-19.692-19.692s-19.692 8.817-19.692 19.692c0 10.876 8.817 19.692 19.692 19.692s19.692-8.817 19.692-19.692zM439.795 356.103c0-10.876-8.817-19.692-19.692-19.692s-19.692 8.817-19.692 19.692c0 10.876 8.817 19.692 19.692 19.692s19.692-8.817 19.692-19.692z" />
<glyph unicode="&#xe986;" glyph-name="Calculator-Access-RGB2" d="M617.026 585.846v-39.385h-210.051v39.385h210.051zM656.41 625.231h-288.821v-118.154h288.821v118.154z" />
<glyph unicode="&#xe987;" glyph-name="Calendar-Empty-Access-RGB2" d="M334.769 710.564h39.385v-78.769h-39.385v78.769zM649.846 710.564h39.385v-78.769h-39.385v78.769z" />
<glyph unicode="&#xe988;" glyph-name="Calendar-Full-Access-RGB2" d="M334.769 710.564h39.385v-78.769h-39.385v78.769zM649.846 710.564h39.385v-78.769h-39.385v78.769zM367.59 395.487h65.641v-65.641h-65.641v65.641zM479.179 395.487h65.641v-65.641h-65.641v65.641zM590.769 395.487h65.641v-65.641h-65.641v65.641z" />
<glyph unicode="&#xe989;" glyph-name="Cart-Access-RGB2" d="M685.292 337.067c-38.072 0-69.579-30.851-69.579-69.579s30.851-69.579 69.579-69.579c38.072 0 69.579 30.851 69.579 69.579v0c0 38.728-30.851 69.579-69.579 69.579zM685.292 237.949c-16.41 0-30.195 13.128-30.195 30.195 0 16.41 13.128 30.195 30.195 30.195 16.41 0 30.195-13.128 30.195-30.195v0c0-17.067-13.128-30.195-30.195-30.195v0zM420.759 337.067c-38.072 0-69.579-30.851-69.579-69.579 0-38.072 30.851-69.579 69.579-69.579 38.072 0 69.579 30.851 69.579 69.579s-31.508 69.579-69.579 69.579zM420.759 237.949c-16.41 0-30.195 13.128-30.195 30.195 0 16.41 13.128 30.195 30.195 30.195 16.41 0 30.195-13.128 30.195-30.195v0c-0.656-17.067-13.785-30.195-30.195-30.195v0zM630.154 526.769h39.385v-39.385h-39.385v39.385zM557.949 526.769h39.385v-39.385h-39.385v39.385zM479.179 526.769h39.385v-39.385h-39.385v39.385z" />
<glyph unicode="&#xe98a;" glyph-name="Chat-Access-RGB2" d="M774.564 201.846l-135.877 134.564h-271.097v275.692h406.974v-410.256zM406.974 375.795h247.467l80.738-79.426v276.349h-328.205v-196.923z" />
<glyph unicode="&#xe98b;" glyph-name="Check-Access-RGB2" d="M645.908 516.267l-27.569 27.569-152.944-150.318-59.733 60.39-28.226-28.226 87.959-87.303z" />
<glyph unicode="&#xe98c;" glyph-name="Check-List-Access-RGB2" d="M296.041 581.251l-46.605 45.949 19.036 18.379 27.569-28.226 46.605 47.262 18.379-18.379zM296.041 463.097l-46.605 45.949 19.036 18.379 27.569-28.226 46.605 47.262 18.379-18.379zM296.041 344.944l-46.605 45.949 19.036 18.379 27.569-28.226 46.605 47.262 18.379-18.379zM296.041 226.79l-46.605 45.949 19.036 18.379 27.569-28.226 46.605 47.262 18.379-18.379z" />
<glyph unicode="&#xe98d;" glyph-name="Check-List-Doc-Access-RGB2" d="M414.195 410.585l-46.605 45.949 18.379 18.379 27.569-28.226 46.605 47.262 19.036-18.379zM414.195 500.513l-46.605 46.605 18.379 17.723 27.569-27.569 46.605 46.605 19.036-18.379zM414.195 318.687l-46.605 45.949 18.379 18.379 27.569-28.226 46.605 47.262 19.036-18.379z" />
<glyph unicode="&#xe98e;" glyph-name="College-Reputation-Access-RGB2" d="M513.313 631.795l23.631-72.862h76.8l-61.703-44.636 23.631-72.862-62.359 44.636-61.703-44.636 23.631 72.862-61.703 44.636h76.8z" />
<glyph unicode="&#xe98f;" glyph-name="Compose-Access-RGB2" d="M361.026 297.026h111.59l301.949 301.949-111.59 111.59-301.949-301.949v-111.59zM662.974 654.769l55.795-55.795-198.236-198.236-55.795 55.795 198.236 198.236zM400.41 392.205l36.759 36.759 55.795-55.795-36.759-36.759h-55.795v55.795z" />
<glyph unicode="&#xe990;" glyph-name="Computer-Access-RGB2" d="M288.821 441.436h446.359v-39.385h-446.359v39.385zM564.513 310.154h39.385v-65.641h-39.385v65.641zM420.103 310.154h39.385v-65.641h-39.385v65.641z" />
<glyph unicode="&#xe991;" glyph-name="Credit-Card-Access-RGB2" d="M288.821 507.077h446.359v-39.385h-446.359v39.385z" />
<glyph unicode="&#xe992;" glyph-name="Daft-In-Access-RGB2" d="M513.313 365.292l-134.564 134.564 27.569 27.569 106.995-106.338 106.338 106.338 27.569-27.569z" />
<glyph unicode="&#xe994;" glyph-name="Dbl-Left-Access-RGB2" d="M634.749 308.185l27.569 27.569-111.59 112.246 111.59 111.59-27.569 28.226-139.815-139.815zM520.533 335.754l-112.246 112.246 112.246 111.59-28.226 28.226-139.815-139.815 139.815-139.815z" />
<glyph unicode="&#xe995;" glyph-name="Dbl-Right-Access-RGB2" d="M389.251 308.185l139.815 139.815-139.815 139.815-28.226-28.226 112.246-111.59-112.246-112.246zM503.467 335.754l27.569-27.569 139.815 139.815-139.815 139.815-27.569-28.226 112.246-111.59z" />
<glyph unicode="&#xe997;" glyph-name="Dollar-Access-RGB2" d="M441.108 415.836c2.626 1.313 5.251 2.626 8.533 3.282 2.626 0.656 5.908 0.656 9.19 0.656s5.908-0.656 9.19-0.656c3.282-0.656 5.908-1.313 8.533-3.282v-9.846c0-2.626 0.656-5.908 1.969-8.533 1.313-3.282 3.938-5.908 6.564-7.877 3.282-2.626 7.221-4.595 11.159-5.908 5.251-1.313 11.159-2.626 16.41-1.969 7.877-0.656 15.754 1.313 22.318 5.251 3.938 3.282 6.564 7.877 6.564 13.128 0 2.626-0.656 5.908-1.969 8.533s-3.938 5.251-6.564 6.564c-3.938 2.626-7.877 3.938-12.472 5.251-5.251 1.969-11.815 3.282-20.349 5.251-15.097 2.626-29.538 9.19-42.010 18.379-9.846 9.19-15.097 22.974-14.441 36.103 0 7.221 1.313 14.441 3.938 21.005 2.626 5.908 6.564 11.159 11.159 15.097 5.251 4.595 10.503 7.877 17.067 9.846 6.564 2.626 13.785 3.938 21.005 5.251v19.692h25.6v-21.005c3.938-0.656 8.533-1.969 11.815-3.938 2.626-1.313 5.251-3.282 7.877-5.251v5.908c1.969 1.313 4.595 2.626 7.221 3.282s5.251 0.656 7.877 0.656c2.626 0 5.251-0.656 7.877-0.656 2.626-0.656 5.251-1.313 7.877-3.282v-52.513c-2.626-1.313-5.251-2.626-7.877-3.282s-5.908-0.656-8.533-0.656c-2.626 0-5.908 0.656-8.533 0.656-2.626 0.656-5.251 1.313-7.877 3.282v7.221c0 2.626-0.656 5.908-1.969 8.533s-3.282 5.251-5.251 7.221c-2.626 2.626-5.908 3.938-9.846 5.251-4.595 1.313-9.19 1.969-14.441 1.969-7.221 0.656-14.441-1.313-20.349-5.251-3.938-3.282-6.564-7.877-6.564-13.128 0-2.626 0.656-5.251 1.969-7.221 1.313-2.626 3.282-4.595 5.908-5.908 3.938-1.969 7.877-3.938 11.815-5.251 5.251-1.313 11.815-3.282 19.692-5.251 8.533-1.969 17.067-3.938 24.944-7.221 6.564-2.626 13.128-5.908 18.379-10.503 5.251-3.938 9.19-9.19 11.815-15.754 2.626-7.221 3.938-15.097 3.938-22.318 0-7.877-1.313-15.754-4.595-22.974-2.626-5.908-7.221-11.815-12.472-16.41s-11.159-7.877-18.379-9.846c-7.221-2.626-14.441-3.938-21.662-4.595v-27.569h-24.287v28.226c-4.595 0.656-9.846 2.626-13.785 4.595s-7.221 3.938-10.503 6.564v-7.221c-2.626-1.313-5.251-2.626-7.877-3.282s-5.908-0.656-8.533-0.656c-2.626 0-5.908 0-8.533 0.656s-5.908 1.313-7.877 3.282l-0.656 58.421z" />
<glyph unicode="&#xe999;" glyph-name="Download-Access-RGB2" d="M682.667 500.513l-27.569 27.569-123.405-122.749v305.231h-39.385v-304.574l-122.749 122.749-28.226-28.226 170.667-170.667z" />
<glyph unicode="&#xe99a;" glyph-name="Educator-Access-RGB2" d="M472.615 513.641c0 47.262-38.072 85.333-85.333 85.333s-85.333-38.072-85.333-85.333 38.072-85.333 85.333-85.333 85.333 38.072 85.333 85.333zM341.333 513.641c0 25.6 20.349 45.949 45.949 45.949s45.949-20.349 45.949-45.949-20.349-45.949-45.949-45.949-45.949 20.349-45.949 45.949z" />
<glyph unicode="&#xe99b;" glyph-name="Essential-Math-Access-RGB2" d="M508.062 507.077h-140.472v39.385h122.749c-4.595 13.128-7.221 26.256-9.19 39.385h-152.944v-118.154h210.051c-11.159 11.815-21.662 24.944-30.195 39.385zM932.103 408.615l-109.621 110.277c53.169 75.487 35.446 179.856-40.041 233.026s-179.856 35.446-233.026-40.041-35.446-179.856 40.041-233.026c63.015-44.636 148.349-40.041 206.113 10.503l108.308-108.308 0.656 0.656 0.656-0.656 26.913 27.569zM686.605 488.041c-24.944 0-48.574 7.221-69.579 20.349v77.456h-54.482c-16.41 68.267 25.6 137.19 94.523 153.6s137.19-25.6 153.6-94.523c16.41-68.267-25.6-137.19-94.523-153.6-9.846-1.969-19.692-3.282-29.538-3.282z" />
<glyph unicode="&#xe99c;" glyph-name="Everyday-Words-Access-RGB2" d="M361.026 710.564v-183.138l51.856 52.513 53.169-53.169v183.795zM440.451 335.754l53.826 161.477h53.826l51.856-161.477h14.441c0.656-2.626 1.313-5.251 1.969-8.533 0.656-2.626 0.656-5.251 0.656-7.877s0-5.251-0.656-7.877c-0.656-2.626-1.313-5.908-1.969-8.533h-76.144c-0.656 2.626-1.313 5.251-1.969 7.877s-0.656 5.251-0.656 7.221c0 2.626 0 5.251 0.656 7.221 0.656 2.626 1.313 5.251 1.969 7.877h15.754l-7.221 24.944h-56.451l-7.877-24.944h16.41c0.656-2.626 1.313-5.251 1.969-7.877s0.656-4.595 0.656-7.221 0-5.251-0.656-7.221-1.313-5.251-1.969-7.877h-74.174c-0.656 2.626-1.313 5.251-1.969 8.533-0.656 2.626-0.656 5.251-0.656 7.877s0 5.251 0.656 7.877c0.656 2.626 1.313 5.251 1.969 8.533h15.754zM538.913 387.61l-19.692 70.236-20.349-70.236h40.041z" />
<glyph unicode="&#xe99e;" glyph-name="Expand-Window-Access-RGB2" d="M430.605 289.805l133.908 132.595v-131.938h39.385v196.923h-190.359v-39.385h120.779l-131.282-130.626z" />
<glyph unicode="&#xe99f;" glyph-name="Explore-Access-RGB2" d="M899.282 408.615l-109.621 110.277c53.169 75.487 35.446 179.856-40.041 233.026s-179.856 35.446-233.026-40.041-35.446-179.856 40.041-233.026c63.015-44.636 149.005-40.041 206.769 10.503l108.308-108.964 27.569 28.226zM525.785 615.385c0 70.236 57.108 128 128 128s127.344-57.108 127.344-128-57.108-128-128-128c-70.236 0.656-127.344 57.764-127.344 128zM256 408.615h446.359v-39.385h-446.359v39.385zM387.282 277.333h39.385v-65.641h-39.385v65.641zM531.692 277.333h39.385v-65.641h-39.385v65.641z" />
<glyph unicode="&#xe9a0;" glyph-name="Fax-Access-RGB2" d="M334.769 710.564h354.462v-295.385h-354.462v295.385zM649.846 671.179h-275.692v-216.615h275.692v216.615z" />
<glyph unicode="&#xe9a1;" glyph-name="Full-Length-Practice-Access-RGB2" d="M433.231 566.154c0-18.126-14.694-32.821-32.821-32.821s-32.821 14.694-32.821 32.821c0 18.126 14.694 32.821 32.821 32.821s32.821-14.694 32.821-32.821zM433.231 467.692c0-18.126-14.694-32.821-32.821-32.821s-32.821 14.694-32.821 32.821c0 18.126 14.694 32.821 32.821 32.821s32.821-14.694 32.821-32.821zM433.231 369.231c0-18.126-14.694-32.821-32.821-32.821s-32.821 14.694-32.821 32.821c0 18.126 14.694 32.821 32.821 32.821s32.821-14.694 32.821-32.821zM636.718 185.436v98.462h98.462z" />
<glyph unicode="&#xe9a2;" glyph-name="Globe-Access-RGB2" d="M477.21 346.913c-100.431 0-181.826 80.738-181.826 181.169s81.395 181.169 181.826 181.169 181.169-81.395 181.169-181.169c0-99.774-81.395-181.169-181.169-181.169zM477.21 670.523c-78.769 0-142.441-63.672-142.441-142.441s63.672-142.441 142.441-142.441 142.441 63.672 142.441 142.441c0 78.769-64.328 142.441-142.441 142.441v0z" />
<glyph unicode="&#xe9a3;" glyph-name="Graduate-Pro-School-Access-RGB2" d="M393.846 467.692h236.308v-39.385h-236.308v39.385zM393.846 559.59h236.308v-39.385h-236.308v39.385zM762.749 316.062c0 40.041-32.821 72.862-72.862 72.862s-72.862-32.821-72.862-72.862c0-26.913 14.441-51.2 38.072-64.328l-24.287-131.938 45.949-8.533 13.785 74.174 13.785-74.174 45.949 8.533-24.287 131.938c22.974 13.128 37.415 37.415 36.759 64.328zM595.364 375.795h-201.518v-39.385h185.764c2.626 13.785 7.877 27.569 15.754 39.385z" />
<glyph unicode="&#xe9a4;" glyph-name="Graduation-Access-RGB2" d="M512 507.077v39.385h-262.564v-236.308l-32.821-85.333h105.026l-32.821 85.333v196.923z" />
<glyph unicode="&#xe9a5;" glyph-name="Home-Access-RGB2" d="M439.795 428.308v-144.41h144.41v144.41h-144.41zM544.821 323.282h-65.641v65.641h65.641v-65.641zM643.282 577.969v40.697h39.385v-80.738l32.821-32.821v152.944h-105.026v-47.262z" />
<glyph unicode="&#xe9a6;" glyph-name="Information-Access-RGB2" d="M387.282 375.795h249.436v-39.385h-249.436v39.385zM387.282 467.692h249.436v-39.385h-249.436v39.385zM387.282 559.59h249.436v-39.385h-249.436v39.385z" />
<glyph unicode="&#xe9a8;" glyph-name="Light-Bulb-Access-RGB2" d="M466.051 572.718h91.897v-91.897h-91.897v91.897zM726.646 308.841l-27.569 27.569c101.087 101.087 101.087 265.19 0 366.277l27.569 27.569c116.185-116.185 116.185-304.574 0-421.415zM297.354 308.841c-116.185 116.841-116.185 305.231 0 421.415l27.569-27.569c-101.087-101.087-101.087-265.19 0-366.277l-27.569-27.569z" />
<glyph unicode="&#xe9a9;" glyph-name="List-Access-RGB2" d="M387.282 559.59h39.385v-39.385h-39.385v39.385zM472.615 559.59h164.103v-39.385h-164.103v39.385zM387.282 467.692h39.385v-39.385h-39.385v39.385zM472.615 467.692h164.103v-39.385h-164.103v39.385zM387.282 375.795h39.385v-39.385h-39.385v39.385zM472.615 375.795h164.103v-39.385h-164.103v39.385z" />
<glyph unicode="&#xe9aa;" glyph-name="Local-Menu-Access-RGB2" d="M590.769 375.795h39.385v-39.385h-39.385v39.385zM393.846 375.795h157.538v-39.385h-157.538v39.385zM590.769 467.692h39.385v-39.385h-39.385v39.385zM393.846 467.692h157.538v-39.385h-157.538v39.385zM590.769 559.59h39.385v-39.385h-39.385v39.385zM393.846 559.59h157.538v-39.385h-157.538v39.385z" />
<glyph unicode="&#xe9ab;" glyph-name="Location-Access-RGB2" d="M439.795 434.872h144.41v144.41h-144.41v-144.41zM544.821 474.256h-65.641v65.641h65.641v-65.641z" />
<glyph unicode="&#xe9ac;" glyph-name="Lock-Access-RGB2" d="M564.513 448h-118.154v-157.538h118.154v157.538zM485.744 408.615h39.385v-78.769h-39.385v78.769zM622.933 546.462v100.431c0 35.446-28.226 63.672-63.672 63.672h-108.308c-35.446 0-63.672-28.226-63.672-63.672v-100.431h39.385v100.431c0 13.128 11.159 24.287 24.287 24.287h108.964c13.128 0 24.287-11.159 24.287-24.287v-100.431h38.728z" />
<glyph unicode="&#xe9ad;" glyph-name="Lock-Open-Access-RGB2" d="M571.077 448h-118.154v-157.538h118.154v157.538zM492.308 408.615h39.385v-78.769h-39.385v78.769zM590.769 646.892v-34.79h38.728v34.79c0 35.446-28.226 63.672-63.672 63.672h-108.308c-35.446 0-63.672-28.226-63.672-63.672v-100.431h39.385v100.431c0 13.128 11.159 24.287 24.287 24.287h108.964c13.128 0 24.287-11.159 24.287-24.287z" />
<glyph unicode="&#xe9ae;" glyph-name="Mail-Access-RGB2" d="M354.462 388.923v39.385h-269.128v-39.385zM380.718 310.154v39.385h-269.128v-39.385z" />
<glyph unicode="&#xe9af;" glyph-name="Matrix-Access-RGB2" d="M492.308 559.59h39.385v-39.385h-39.385v39.385zM584.205 559.59h39.385v-39.385h-39.385v39.385zM492.308 467.692h39.385v-39.385h-39.385v39.385zM492.308 375.795h39.385v-39.385h-39.385v39.385zM584.205 467.692h39.385v-39.385h-39.385v39.385zM584.205 375.795h39.385v-39.385h-39.385v39.385zM400.41 559.59h39.385v-39.385h-39.385v39.385zM400.41 467.692h39.385v-39.385h-39.385v39.385zM400.41 375.795h39.385v-39.385h-39.385v39.385z" />
<glyph unicode="&#xe9b0;" glyph-name="Megaphone-Access-RGB2" d="M735.179 552.369h39.385v-130.626h-39.385v130.626zM551.385 349.538v-164.103h-137.846v164.103h39.385v-124.718h59.077v124.718z" />
<glyph unicode="&#xe9b1;" glyph-name="Menu-Access-RGB2" d="M393.846 375.795h236.308v-39.385h-236.308v39.385zM393.846 467.692h236.308v-39.385h-236.308v39.385zM393.846 559.59h236.308v-39.385h-236.308v39.385z" />
<glyph unicode="&#xe9b2;" glyph-name="Minus-Access-RGB2" d="M380.718 467.692h262.564v-39.385h-262.564v39.385z" />
<glyph unicode="&#xe9b3;" glyph-name="Nav-Links-Access-RGB2" d="M488.369 375.795h49.887v-52.513h-49.887v52.513zM485.744 474.256h52.513v-52.513h-52.513v52.513zM485.744 572.718h52.513v-52.513h-52.513v52.513z" />
<glyph unicode="&#xe9b4;" glyph-name="Needs-Score-Access-RGB2" d="M512 539.897c50.544 0 91.897-41.354 91.897-91.897s-41.354-91.897-91.897-91.897-91.897 41.354-91.897 91.897 41.354 91.897 91.897 91.897zM512 579.282c-72.205 0-131.282-59.077-131.282-131.282s59.077-131.282 131.282-131.282 131.282 59.077 131.282 131.282-59.077 131.282-131.282 131.282z" />
<glyph unicode="&#xe9b5;" glyph-name="New-Doc-Access-RGB2" d="M531.692 557.621h-39.385v-89.928h-91.897v-39.385h91.897v-89.928h39.385v89.928h91.897v39.385h-91.897z" />
<glyph unicode="&#xe9b6;" glyph-name="New-Window-Access-RGB2" d="M492.308 283.241h39.385v91.897h91.897v39.385h-91.897v91.897h-39.385v-91.897h-89.928v-39.385h89.928z" />
<glyph unicode="&#xe9b7;" glyph-name="No-Draft-Access-RGB2" d="M632.779 543.179l-27.569 28.226-95.179-95.179-95.836 95.179-27.569-27.569 95.179-95.836-95.179-95.179 27.569-28.226 95.836 95.836 95.179-95.179 27.569 27.569-95.179 95.179z" />
<glyph unicode="&#xe9b8;" glyph-name="North-West-Access-RGB2" d="M696.451 288.492l-307.856 307.856h267.815v39.385h-334.769v-334.769h39.385v267.159l307.856-307.856z" />
<glyph unicode="&#xe9b9;" glyph-name="Note-Access-RGB2" d="M400.41 356.103h216.615v-39.385h-216.615v39.385zM400.41 448h216.615v-39.385h-216.615v39.385zM400.41 539.897h216.615v-39.385h-216.615v39.385z" />
<glyph unicode="&#xe9ba;" glyph-name="Online-Tool-Access-RGB2" d="M466.051 585.846h91.897v-91.897h-91.897v91.897zM787.036 583.877h91.897v-91.897h-91.897v91.897zM111.593 537.957l64.981 64.981 64.981-64.981-64.981-64.981-64.981 64.981z" />
<glyph unicode="&#xe9bb;" glyph-name="Pending-Access-RGB2" d="M492.308 357.415h39.385v-91.897h-39.385v91.897zM334.769 469.005h91.897v-39.385h-91.897v39.385z" />
<glyph unicode="&#xe9bc;" glyph-name="Phone-Access-RGB2" d="M452.923 323.282h131.282v-39.385h-131.282v39.385z" />
<glyph unicode="&#xe9bd;" glyph-name="Phone-Alt-Access-RGB2" d="M355.11 682.396l28.309 28.317 102.127-102.098-28.309-28.317-102.127 102.098zM644.782 393.927l28.317 28.309 102.098-102.127-28.317-28.309-102.098 102.127z" />
<glyph unicode="&#xe9be;" glyph-name="Plus-Access-RGB2" d="M643.282 467.692h-111.59v111.59h-39.385v-111.59h-111.59v-39.385h111.59v-111.59h39.385v111.59h111.59z" />
<glyph unicode="&#xe9bf;" glyph-name="Practice-Access-RGB2" d="M596.021 420.431l47.262-47.262-55.795-55.795-47.262 47.262-28.226-28.226 111.59-111.59h111.59v111.59l-111.59 111.59-27.569-27.569zM695.795 320v-55.795h-55.795l-24.944 24.944 55.795 55.795 24.944-24.944zM484.431 532.021l27.569 27.569-100.431 100.431-111.59-111.59 100.431-100.431 27.569 27.569-72.205 72.862 55.795 55.795zM643.915 696.613l27.431 28.258 117.273-113.84-27.431-28.258-117.273 113.84z" />
<glyph unicode="&#xe9c0;" glyph-name="Practice-Test-Access-RGB2" d="M328.205 507.077c0-21.752-17.633-39.385-39.385-39.385s-39.385 17.633-39.385 39.385c0 21.752 17.633 39.385 39.385 39.385s39.385-17.633 39.385-39.385zM328.205 388.923c0-21.752-17.633-39.385-39.385-39.385s-39.385 17.633-39.385 39.385c0 21.752 17.633 39.385 39.385 39.385s39.385-17.633 39.385-39.385zM328.205 270.769c0-21.752-17.633-39.385-39.385-39.385s-39.385 17.633-39.385 39.385c0 21.752 17.633 39.385 39.385 39.385s39.385-17.633 39.385-39.385zM328.205 625.231c0-21.752-17.633-39.385-39.385-39.385s-39.385 17.633-39.385 39.385c0 21.752 17.633 39.385 39.385 39.385s39.385-17.633 39.385-39.385z" />
<glyph unicode="&#xe9c1;" glyph-name="Presentation-Access-RGB2" d="M249.436 710.564h525.128v-39.385h-525.128v39.385zM518.564 415.836l28.226-28.226 114.872 114.872-28.226 27.569-86.646-86.646-94.523 95.179h-0.656l-89.272-89.272 28.226-28.226 61.046 61.703zM473.272 290.462l-112.903-113.559 28.226-27.569 123.405 124.062 123.405-124.062 28.226 27.569-112.903 113.559z" />
<glyph unicode="&#xe9c2;" glyph-name="Print-Access-RGB2" d="M689.231 185.436h-354.462v295.385h354.462v-295.385zM374.154 224.821h275.692v216.615h-275.692v-216.615z" />
<glyph unicode="&#xe9c3;" glyph-name="Problem-Feedback-Access-RGB2" d="M439.795 382.359c0-18.126-14.694-32.821-32.821-32.821s-32.821 14.694-32.821 32.821c0 18.126 14.694 32.821 32.821 32.821s32.821-14.694 32.821-32.821zM544.821 382.359c0-18.126-14.694-32.821-32.821-32.821s-32.821 14.694-32.821 32.821c0 18.126 14.694 32.821 32.821 32.821s32.821-14.694 32.821-32.821zM649.846 382.359c0-18.126-14.694-32.821-32.821-32.821s-32.821 14.694-32.821 32.821c0 18.126 14.694 32.821 32.821 32.821s32.821-14.694 32.821-32.821z" />
<glyph unicode="&#xe9c5;" glyph-name="Raided-Pencil-Access-RGB2" d="M774.564 605.538h32.821v-131.282h-32.821v131.282zM137.846 539.897l64.328-65.641h106.338v84.021c1.969 21.005 14.441 38.072 31.508 47.262h-137.846l-64.328-65.641zM275.692 572.718h19.692v-65.641h-19.692v65.641zM244.185 572.718v-65.641h-28.882l-32.164 32.821 32.164 32.821h28.882zM702.359 605.538h45.949v-131.282h-45.949v131.282z" />
<glyph unicode="&#xe9c6;" glyph-name="Resources-Access-RGB2" d="M653.785 184.123l-147.692 147.692 27.569 28.226 120.123-120.123 61.703 61.046-120.123 120.123 27.569 28.226 148.349-148.349zM394.503 443.405l-148.349 148.349 117.497 116.841 147.692-147.692-27.569-27.569-120.123 119.467-61.703-61.046 120.123-120.123zM629.426 683.367l27.431 28.258 117.273-113.84-27.431-28.258-117.273 113.84z" />
<glyph unicode="&#xe9c8;" glyph-name="Rupee-Access-RGB2" d="M433.231 434.872h45.949v-32.821h-45.949v32.821zM597.333 533.333v32.821h-164.103v-32.821h36.103c21.662 0 39.385-13.785 46.605-32.821h-82.708v-32.821h82.708c-6.564-19.036-24.944-32.821-46.605-32.821h-3.282v-9.846l-7.877 7.877-22.974-22.974 101.744-101.744 22.974 22.974-72.205 72.205c31.508 7.221 55.795 32.164 62.359 63.672h47.262v32.821h-47.918c-2.626 12.472-7.877 22.974-15.097 32.821h63.015v0.656z" />
<glyph unicode="&#xe9c9;" glyph-name="Save-Date-Access-RGB2" d="M334.769 710.564h39.385v-78.769h-39.385v78.769zM649.846 710.564h39.385v-78.769h-39.385v78.769zM640.656 483.446l-27.569 27.569-141.785-141.785-60.39 59.733-27.569-27.569 87.959-87.959z" />
<glyph unicode="&#xe9ca;" d="M459.487 566.154c0 28.882 23.631 52.513 52.513 52.513s52.513-23.631 52.513-52.513-23.631-52.513-52.513-52.513-52.513 23.631-52.513 52.513z" />
<glyph unicode="&#xe9cb;" d="M551.385 349.538v0zM472.615 349.538v0zM393.846 349.538v0z" />
<glyph unicode="&#xe9cc;" glyph-name="Science-Access-RGB2" d="M546.79 647.549c-7.221 13.128-23.631 17.723-36.759 10.503s-17.723-23.631-10.503-36.759c7.221-13.128 23.631-17.723 36.759-10.503 1.969 1.313 3.938 2.626 5.251 3.938l1.313 1.313c4.595 5.251 7.221 11.815 7.221 18.379 0 5.251-1.313 9.19-3.282 13.128zM522.503 627.2c-3.938 0-7.877 3.282-7.877 7.877s3.282 7.877 7.877 7.877c3.938 0 7.877-3.282 7.877-7.877s-3.938-7.877-7.877-7.877v0z" />
<glyph unicode="&#xe9cd;" glyph-name="Search-Access-RGB2" d="M649.19 400.082c-6.564-11.815-13.785-22.974-22.318-34.133l93.21-93.867-32.164-32.164-93.867 93.867c-10.503-8.533-21.662-15.754-34.133-22.318l127.344-126.687 87.959 87.959-126.031 127.344z" />
<glyph unicode="&#xe9ce;" glyph-name="Series-Access-RGB2" d="M735.836 598.974v-374.81h-374.81v-38.728h413.538v413.538z" />
<glyph unicode="&#xe9cf;" glyph-name="Settings-Access-RGB2" d="M544.821 481.477v-66.297h-65.641v66.297h65.641zM439.795 375.795h144.41v145.067h-144.41v-145.067z" />
<glyph unicode="&#xe9d0;" glyph-name="Share-Access-RGB2" d="M565.169 274.051l-38.728-38.728 101.744-101.087 161.477 162.133-38.728 38.728-122.749-123.405zM433.231 572.718c0-18.126-14.694-32.821-32.821-32.821s-32.821 14.694-32.821 32.821c0 18.126 14.694 32.821 32.821 32.821s32.821-14.694 32.821-32.821zM433.231 474.256c0-18.126-14.694-32.821-32.821-32.821s-32.821 14.694-32.821 32.821c0 18.126 14.694 32.821 32.821 32.821s32.821-14.694 32.821-32.821zM433.231 375.795c0-18.126-14.694-32.821-32.821-32.821s-32.821 14.694-32.821 32.821c0 18.126 14.694 32.821 32.821 32.821s32.821-14.694 32.821-32.821z" />
<glyph unicode="&#xe9d1;" glyph-name="Share-Alt-Access-RGB2" d="M413.538 533.333h149.662l-164.759-164.103 28.226-28.226 164.103 164.759v-149.662h39.385v216.615h-216.615z" />
<glyph unicode="&#xe9d2;" glyph-name="Signed-In-Access-RGB2" d="M536.287 190.687l-85.333 85.333 27.569 27.569 57.764-57.108 133.908 133.908 28.226-27.569z" />
<glyph unicode="&#xe9d3;" glyph-name="Smiley-Face-Access-RGB2" d="M570.421 486.728c0 18.379 14.441 32.821 32.821 32.821s32.821-14.441 32.821-32.821-14.441-32.821-32.821-32.821-32.821 15.097-32.821 32.821zM387.938 486.728c0 18.379 14.441 32.821 32.821 32.821s32.821-14.441 32.821-32.821-14.441-32.821-32.821-32.821c-17.723 0-32.821 15.097-32.821 32.821z" />
<glyph unicode="&#xe9d4;" glyph-name="Sound-Access-RGB2" d="M597.333 621.949v-39.385c74.174 1.969 135.877-57.108 137.846-131.938s-57.108-135.877-131.938-137.846c-1.969 0-3.938 0-5.908 0v-39.385c97.805 0 177.231 78.113 177.231 174.605s-79.426 173.949-177.231 173.949zM684.636 448c-0.656 47.918-40.041 85.99-87.303 85.99v-39.385c25.6 0 46.605-21.005 46.605-46.605s-21.005-46.605-46.605-46.605v-39.385c47.918-0.656 86.646 38.072 87.303 85.99zM321.641 507.077h39.385v-118.154h-39.385v118.154z" />
<glyph unicode="&#xe9d5;" glyph-name="Special-Edition-Access-RGB2" d="M695.795 379.077c-8.533-11.159-17.723-21.005-28.226-30.195l49.887-85.99-45.949 12.472-38.072 10.503-10.503-38.072-12.472-45.949-53.826 92.554c-14.441-2.626-28.882-3.938-43.323-3.938l110.277-190.359 36.759 137.19 137.19-36.759-101.744 178.544z" />
<glyph unicode="&#xe9d6;" glyph-name="Tag-Access-RGB2" d="M676.103 480.821h-131.282v131.282h131.282v-131.282zM584.205 520.205h52.513v52.513h-52.513v-52.513z" />
<glyph unicode="&#xe9d7;" glyph-name="Task-Complete-1-Access-RGB2" d="M393.846 375.795h236.308v-39.385h-236.308v39.385zM393.846 467.692h236.308v-39.385h-236.308v39.385zM393.846 559.59h236.308v-39.385h-236.308v39.385z" />
<glyph unicode="&#xe9d8;" glyph-name="Task-Complete-Access-RGB2" d="M640.656 450.626l-27.569 27.569-133.908-133.908-57.108 57.108-28.226-27.569 85.333-84.677z" />
<glyph unicode="&#xe9d9;" glyph-name="Teacher-Edition-Access-RGB2" d="M493.621 630.482c5.908-2.626 11.815-5.251 18.379-6.564 6.564 1.313 13.128 3.938 19.692 7.221 0.656 0 1.313 0.656 1.313 0.656 0 4.595 0.656 9.19 0.656 13.785 0 7.221 0 14.441-0.656 21.005 65.641 10.503 113.559 68.923 110.277 135.221-50.544 2.626-97.805-24.287-121.436-68.923-3.282 12.472-7.877 24.944-12.472 37.415h-43.323c18.379-38.728 28.226-81.395 28.226-124.718 0-5.251 0-9.846-0.656-15.097z" />
<glyph unicode="&#xe9da;" glyph-name="Team-Leader-Access-RGB2" d="M400.41 454.564h-147.036c-49.231 0-89.272-40.041-89.272-89.272v-48.574h39.385v48.574c0 27.569 22.318 49.887 49.887 49.887h147.036v39.385zM341.333 690.872c-54.482 0-98.462-43.979-98.462-98.462s43.979-98.462 98.462-98.462 98.462 43.979 98.462 98.462-43.979 98.462-98.462 98.462zM341.333 533.333c-32.821 0-59.077 26.256-59.077 59.077s26.256 59.077 59.077 59.077 59.077-26.256 59.077-59.077-26.256-59.077-59.077-59.077v0z" />
<glyph unicode="&#xe9db;" glyph-name="Test-Scored-Access-RGB2" d="M471.303 337.723l-87.959 87.959 27.569 28.226 60.39-60.39 141.785 142.441 27.569-28.226z" />
<glyph unicode="&#xe9dc;" glyph-name="Tuitinon-Financial-Aid-Access-RGB2" d="M693.169 379.077c-8.533-11.159-17.723-21.005-28.226-30.195l49.887-85.99-45.949 12.472-38.072 10.503-10.503-38.072-12.472-45.949-53.826 92.554c-14.441-2.626-28.226-3.938-42.667-3.938l110.277-190.359 36.759 137.19 137.19-36.759-102.4 178.544zM447.672 495.262c2.626 1.313 5.251 2.626 8.533 3.282 2.626 0.656 5.908 0.656 9.19 0.656s5.908-0.656 9.19-0.656c3.282-0.656 5.908-1.313 8.533-3.282v-9.846c0-2.626 0.656-5.908 1.969-8.533 1.313-3.282 3.938-5.908 6.564-7.877 3.282-2.626 7.221-4.595 11.159-5.908 5.251-1.313 10.503-2.626 16.41-1.969 7.877-0.656 15.754 1.313 22.318 5.251 3.938 3.282 6.564 7.877 6.564 13.128 0 2.626-0.656 5.908-1.969 8.533s-3.938 5.251-6.564 6.564c-3.938 2.626-7.877 3.938-12.472 5.251-5.251 1.969-11.815 3.282-20.349 5.251-15.097 2.626-29.538 9.19-42.010 18.379-9.846 9.19-15.097 22.974-14.441 36.103 0 7.221 1.313 14.441 3.938 21.005 2.626 5.908 6.564 11.159 11.159 15.097 5.251 4.595 10.503 7.877 17.067 9.846 6.564 2.626 13.785 3.938 21.005 4.595v19.692h25.6v-21.005c3.938-0.656 8.533-1.969 11.815-3.938 2.626-1.313 5.251-3.282 7.877-5.251v5.908c1.969 1.313 4.595 2.626 7.221 3.282s5.251 1.313 7.877 1.969c2.626 0 5.251-0.656 7.877-0.656 2.626-0.656 5.251-1.313 7.877-3.282v-53.826c-2.626-1.313-5.251-2.626-7.877-3.282s-5.908-0.656-8.533-0.656c-2.626 0-5.908 0.656-8.533 0.656-2.626 0.656-5.251 1.313-7.877 3.282v7.877c0 2.626-0.656 5.908-1.969 8.533s-3.282 5.251-5.251 7.221c-2.626 2.626-5.908 3.938-9.846 5.251-4.595 1.313-9.19 1.969-14.441 1.969-7.221 0.656-14.441-1.313-20.349-5.251-3.938-3.282-6.564-7.877-6.564-13.128 0-2.626 0.656-5.251 1.969-7.221 1.313-2.626 3.282-4.595 5.908-5.908 3.938-1.969 7.877-3.938 11.815-5.251 5.251-1.313 11.815-3.282 19.692-5.251 8.533-1.969 17.067-3.938 24.944-7.221 6.564-2.626 13.128-5.908 18.379-10.503 5.251-3.938 9.19-9.19 11.815-15.754 2.626-7.221 3.938-15.097 3.938-22.318 0-7.877-1.313-15.754-4.595-22.974-2.626-5.908-7.221-11.815-12.472-16.41s-11.159-7.877-18.379-9.846c-7.221-2.626-14.441-3.938-21.662-4.595v-27.569h-24.287v28.226c-4.595 0.656-9.846 2.626-13.785 4.595s-7.221 3.938-10.503 6.564v-7.221c-2.626-1.313-5.251-2.626-7.877-2.626-2.626-0.656-5.908-0.656-8.533-0.656s-5.908 0-8.533 0.656c-2.626 0.656-5.908 1.313-7.877 3.282v57.764z" />
<glyph unicode="&#xe9de;" glyph-name="Upload-Access-RGB2" d="M492.308 616.697v-293.415h39.385v293.415l120.779-120.779 28.226 27.569-168.697 168.697-168.697-168.697 28.226-27.569z" />
<glyph unicode="&#xe9df;" glyph-name="Video-Lesson-Access-RGB2" d="M324.923 730.256v0c5.908 0 11.815-0.656 17.067-1.313 59.077-9.19 99.118-64.985 89.928-124.062-8.533-52.513-53.169-90.585-106.338-91.241-34.79 0-66.954 16.41-87.959 44.636-35.446 48.574-24.287 116.185 23.631 151.631 18.379 13.128 40.697 20.349 63.672 20.349zM324.923 769.641c-82.051 0-148.349-66.297-148.349-148.349 0-81.395 66.297-147.692 148.349-147.692s147.692 66.297 147.692 147.692c0 72.862-52.513 135.221-124.718 146.379-7.877 1.313-15.754 1.969-22.974 1.969zM301.949 669.867v-103.713l65.641 52.513z" />
<glyph unicode="&#xe9e0;" glyph-name="Work-Together-Access-RGB2" d="M430.605 372.513v-38.728h-39.385v38.728h39.385zM469.99 411.897h-118.154v-117.497h118.154v117.497zM698.421 631.795v65.641h-65.641v-65.641h65.641zM678.728 651.487h-26.256v26.256h26.256v-26.256z" />
<glyph unicode="&#xe9e2;" glyph-name="cb-add-user" d="M512 497.887c-64.985 0-118.154 53.169-118.154 118.154s53.169 118.154 118.154 118.154c64.985 0 118.154-53.169 118.154-118.154s-53.169-118.154-118.154-118.154zM512 694.81c-43.323 0-78.769-35.446-78.769-78.769s35.446-78.769 78.769-78.769c43.323 0 78.769 35.446 78.769 78.769s-35.446 78.769-78.769 78.769zM354.462 209.067h-39.385v131.282c0 47.262 38.728 85.333 85.333 85.333h164.103v-39.385h-164.103c-25.6 0-45.949-21.005-45.949-45.949v-131.282z" />
<glyph unicode="&#xe9e3;" glyph-name="cb-dollars" d="M512 710.564c-145.067 0-262.564-117.497-262.564-262.564s117.497-262.564 262.564-262.564c145.067 0 262.564 117.497 262.564 262.564s-117.497 262.564-262.564 262.564zM512 224.821c-122.749 0-223.179 100.431-223.179 223.179s100.431 223.179 223.179 223.179c122.749 0 223.179-100.431 223.179-223.179s-100.431-223.179-223.179-223.179zM56.451 681.682c-5.908-11.815-11.815-23.631-17.067-35.446 72.205-37.415 121.436-112.246 121.436-198.236s-49.231-160.821-120.779-198.236c5.251-12.472 10.503-24.287 17.067-35.446 85.333 43.323 143.097 131.938 143.097 233.682s-58.421 190.359-143.754 233.682zM967.549 214.318c5.908 11.815 11.815 23.631 17.067 35.446-71.549 37.415-120.779 112.246-120.779 198.236s49.231 160.821 120.779 198.236c-5.251 12.472-10.503 24.287-17.067 35.446-85.333-43.323-143.097-131.938-143.097-233.682-0.656-101.744 57.764-190.359 143.097-233.682z" />
<glyph unicode="&#xe9e4;" glyph-name="cb-essential-math" d="M328.205 428.308h65.641v-39.385h-65.641v39.385zM439.795 428.308h65.641v-39.385h-65.641v39.385zM551.385 430.277h65.641v-41.354h-65.641v41.354zM328.205 349.538h65.641v-39.385h-65.641v39.385zM439.795 349.538h65.641v-39.385h-65.641v39.385zM551.385 349.538h65.641v-39.385h-65.641v39.385zM328.205 270.769h65.641v-39.385h-65.641v39.385zM439.795 270.769h65.641v-39.385h-65.641v39.385zM551.385 270.769h65.641v-39.385h-65.641v39.385zM693.169 401.395c-12.472 0-24.944 1.313-36.759 3.282v-219.241h-367.59v446.359h191.015c1.313 13.785 3.282 26.913 6.564 39.385h-236.964v-525.128h446.359v255.344c-0.656 0-1.969 0-2.626 0zM656.41 631.795v-140.472c9.846-2.626 19.692-3.938 30.195-3.938 3.282 0 6.564 0 9.19 0.656v183.138h-124.062c-5.908-12.472-9.846-25.6-11.815-39.385h96.492z" />
<glyph unicode="&#xe9e5;" glyph-name="cb-explore1" d="M321.641 211.692h315.077v-39.385h-315.077v39.385zM702.359 414.523v-97.805h-446.359v301.949h190.359c0 13.785 1.969 26.913 4.595 39.385h-194.954c-21.662 0-39.385-17.723-39.385-39.385v-301.949c0-21.662 17.723-39.385 39.385-39.385h446.359c21.662 0 39.385 17.723 39.385 39.385v111.59c-12.472-5.908-25.6-10.503-39.385-13.785z" />
<glyph unicode="&#xe9e6;" glyph-name="cb-face-happy1" d="M512 664.615c122.749 0 223.179-100.431 223.179-223.179s-100.431-223.179-223.179-223.179-223.179 100.431-223.179 223.179c0 122.749 100.431 223.179 223.179 223.179zM512 704c-145.067 0-262.564-117.497-262.564-262.564s117.497-262.564 262.564-262.564c145.067 0 262.564 117.497 262.564 262.564s-117.497 262.564-262.564 262.564zM512 310.81c-40.697 0-79.426 14.441-110.277 41.354l26.913 30.851c22.974-20.349 52.513-30.851 82.708-30.851 30.851 0 59.733 11.159 82.708 30.851l26.913-30.851c-29.538-26.256-68.267-41.354-108.964-41.354z" />
<glyph unicode="&#xe9e7;" glyph-name="cb-face-unhappy1" d="M512 664.615c122.749 0 223.179-100.431 223.179-223.179s-100.431-223.179-223.179-223.179c-122.749 0-223.179 100.431-223.179 223.179s100.431 223.179 223.179 223.179zM512 704c-145.067 0-262.564-117.497-262.564-262.564s117.497-262.564 262.564-262.564c145.067 0 262.564 117.497 262.564 262.564s-117.497 262.564-262.564 262.564zM512 383.015c40.697 0 79.426-14.441 110.277-41.354l-26.913-30.851c-22.974 20.349-52.513 30.851-82.708 30.851-30.851 0-59.733-11.159-82.708-30.851l-26.913 30.851c29.538 26.913 68.267 41.354 108.964 41.354z" />
<glyph unicode="&#xe9e8;" glyph-name="cb-face-unsure1" d="M512 664.615c122.749 0 223.179-100.431 223.179-223.179s-100.431-223.179-223.179-223.179-223.179 100.431-223.179 223.179c0 122.749 100.431 223.179 223.179 223.179zM512 704c-145.067 0-262.564-117.497-262.564-262.564s117.497-262.564 262.564-262.564c145.067 0 262.564 117.497 262.564 262.564s-117.497 262.564-262.564 262.564zM427.323 362.667h166.728v-39.385h-166.728v39.385z" />
<glyph unicode="&#xe9e9;" glyph-name="cb-khan-academy" d="M730.585 601.6l-193.641 110.933c-13.785 7.877-36.759 7.877-50.544 0l-192.985-110.933c-13.785-7.877-24.944-27.569-24.944-43.323v-220.554c0-15.754 11.159-35.446 24.944-43.323l193.641-110.277c13.785-7.877 36.759-7.877 50.544 0l193.641 110.277c13.785 7.877 24.944 27.569 24.944 43.323v220.554c-0.656 15.754-11.815 35.446-25.6 43.323zM512 606.851c32.164 0 57.764-26.256 57.764-57.764s-26.256-57.764-57.764-57.764c-32.164 0-57.764 26.256-57.764 57.764s25.6 57.764 57.764 57.764zM580.267 299.651c-20.349-7.877-45.292-11.815-68.267-11.815s-47.262 3.938-67.61 11.815c-70.236 26.256-120.779 95.836-120.779 177.231 0 6.564 0.656 13.128 1.313 19.692 101.744-0.656 177.887-84.677 177.887-188.39 0-1.313 0-4.595 0-4.595h20.349c0 0 0 3.282 0 4.595 0 103.713 76.144 188.39 177.231 188.39 0.656-6.564 1.313-13.128 1.313-19.692-1.313-81.395-51.2-150.318-121.436-177.231z" />
<glyph unicode="&#xe9ea;" glyph-name="cb-maths1" d="M571.077 612.103h203.487v-39.385h-203.487v39.385zM444.39 348.226l-27.569 27.569-70.236-69.579-69.579 69.579-27.569-27.569 69.579-69.579-69.579-70.236 27.569-27.569 69.579 69.579 70.236-69.579 27.569 27.569-69.579 70.236z" />
<glyph unicode="&#xe9eb;" glyph-name="cb-school1" d="M774.564 487.385h-525.128v-262.564h-59.077v-39.385h643.282v39.385h-59.077v262.564zM288.821 224.821v223.179h446.359v-223.179h-446.359zM511.344 818.215l-262.564-263.877 27.569-27.569 234.995 235.651 235.651-235.651 27.569 27.569z" />
<glyph unicode="&#xe9ec;" glyph-name="cb-add-user1" d="M728.615 292.431h-74.831v74.831h-39.385v-74.831h-74.831v-39.385h74.831v-74.831h39.385v74.831h74.831z" />
<glyph unicode="&#xe9ed;" glyph-name="cb-dollars1" d="M565.169 378.421c0 11.815-3.938 21.662-12.472 29.538-7.877 7.877-21.662 15.097-41.354 21.662-26.913 7.877-46.605 19.036-59.077 32.164s-18.379 30.195-18.379 50.544c0 21.005 5.908 37.415 18.379 51.2 11.815 13.128 28.882 21.005 49.887 23.631v41.354h28.226v-41.354c21.005-2.626 37.415-11.815 49.231-26.913s17.723-35.446 17.723-61.046h-34.79c0 17.723-3.938 32.164-12.472 42.667s-19.692 15.754-34.133 15.754c-15.097 0-26.256-3.938-34.133-11.815s-11.815-18.379-11.815-32.821c0-13.128 3.938-22.974 12.472-30.851s22.318-14.441 41.354-21.005c19.036-6.564 34.133-13.128 45.292-20.349 10.503-7.221 19.036-16.41 23.631-26.256 5.251-9.846 7.877-21.662 7.877-34.79 0-21.005-6.564-38.728-19.036-51.2-13.128-13.128-30.851-21.005-53.826-22.974v-36.103h-28.882v36.103c-23.631 1.969-42.010 10.503-55.138 24.944s-19.692 34.133-19.692 59.077h34.79c0-17.723 4.595-30.851 13.785-40.697 9.19-9.19 22.318-14.441 39.385-14.441 16.41 0 29.538 3.938 38.728 11.815 9.846 7.877 14.441 18.379 14.441 32.164z" />
<glyph unicode="&#xe9ee;" glyph-name="cb-essential-math1" d="M508.718 507.077h-141.128v39.385h122.749c-4.595 12.472-7.221 25.6-9.19 39.385h-152.944v-118.154h210.051c-11.815 11.815-21.662 24.944-29.538 39.385zM822.482 518.236c19.692 27.569 30.851 61.046 30.851 97.149 0 92.554-74.831 167.385-167.385 167.385s-167.385-74.831-167.385-167.385c0-92.554 74.831-167.385 167.385-167.385 42.010 0 80.082 15.754 109.621 40.697l108.308-108.308 28.226 28.226-109.621 109.621zM686.605 488.041c-25.6 0-49.231 7.877-69.579 20.349v77.456h-54.482c-2.626 9.846-3.938 19.692-3.938 29.538 0 70.236 57.108 128 128 128 70.236 0 128-57.108 128-128-0.656-70.236-57.764-127.344-128-127.344z" />
<glyph unicode="&#xe9ef;" glyph-name="cb-explore" d="M387.282 277.333h39.385v-65.641h-39.385v65.641zM531.692 277.333h39.385v-65.641h-39.385v65.641zM256 408.615h446.359v-39.385h-446.359v39.385zM899.282 408.615l-109.621 109.621c19.692 27.569 30.851 61.046 30.851 97.149 0 92.554-74.831 167.385-166.728 167.385-92.554 0-167.385-74.831-167.385-167.385s74.831-167.385 167.385-167.385c42.010 0 80.082 15.754 109.621 40.697l108.308-108.308 27.569 28.226zM525.785 615.385c0 70.236 57.108 128 128 128 70.236 0 128-57.108 128-128 0-70.236-57.108-128-128-128-70.892 0.656-128 57.764-128 128z" />
<glyph unicode="&#xe9f0;" glyph-name="cb-face-happy" d="M570.421 486.728c0 18.379 14.441 32.821 32.821 32.821s32.821-14.441 32.821-32.821c0-18.379-14.441-32.821-32.821-32.821s-32.821 15.097-32.821 32.821zM387.938 486.728c0 18.379 14.441 32.821 32.821 32.821s32.821-14.441 32.821-32.821c0-18.379-14.441-32.821-32.821-32.821-17.723 0-32.821 15.097-32.821 32.821z" />
<glyph unicode="&#xe9f1;" glyph-name="cb-face-unhappy" d="M570.421 486.728c0 18.379 14.441 32.821 32.821 32.821s32.821-14.441 32.821-32.821c0-18.379-14.441-32.821-32.821-32.821s-32.821 15.097-32.821 32.821zM387.938 486.728c0 18.379 14.441 32.821 32.821 32.821s32.821-14.441 32.821-32.821c0-18.379-14.441-32.821-32.821-32.821-17.723 0-32.821 15.097-32.821 32.821z" />
<glyph unicode="&#xe9f2;" glyph-name="cb-face-unsure" d="M570.421 486.728c0 18.379 14.441 32.821 32.821 32.821s32.821-14.441 32.821-32.821c0-18.379-14.441-32.821-32.821-32.821s-32.821 15.097-32.821 32.821zM387.938 486.728c0 18.379 14.441 32.821 32.821 32.821s32.821-14.441 32.821-32.821c0-18.379-14.441-32.821-32.821-32.821-17.723 0-32.821 15.097-32.821 32.821z" />
<glyph unicode="&#xe9f3;" glyph-name="cb-maths" d="M571.077 303.59h203.487v-39.385h-203.487v39.385zM653.128 382.359h39.385v-39.385h-39.385v39.385zM653.128 224.164h39.385v-39.385h-39.385v39.385zM485.744 612.103h-98.462v98.462h-39.385v-98.462h-98.462v-39.385h98.462v-98.462h39.385v98.462h98.462z" />
<glyph unicode="&#xe9f4;" glyph-name="cb-school" d="M456.862 579.938c0 28.882 23.631 52.513 52.513 52.513s52.513-23.631 52.513-52.513c0-28.882-23.631-52.513-52.513-52.513s-52.513 22.974-52.513 52.513zM531.692 448h39.385v-223.179h-39.385v223.179zM610.462 448h39.385v-223.179h-39.385v223.179zM452.923 448h39.385v-223.179h-39.385v223.179zM374.154 448h39.385v-223.179h-39.385v223.179z" />
</font>
</defs>
</svg>
