<?xml version="1.0" encoding="utf-8"?>
<!-- Generator: Adobe Illustrator 21.0.0, SVG Export Plug-In . SVG Version: 6.00 Build 0)  -->
<svg version="1.1" id="type" xmlns="http://www.w3.org/2000/svg" xmlns:xlink="http://www.w3.org/1999/xlink" x="0px" y="0px"
	 viewBox="0 0 54 44" style="enable-background:new 0 0 54 44;" xml:space="preserve">
<style type="text/css">
	.st0{opacity:0;}
	.st1{fill:#009CDE;}
</style>
<title>Programs</title>
<g id="color_blocks" class="st0">
	<rect class="st1" width="54" height="44"/>
</g>
<path d="M12.1,27.2l4.4-13.3h4.4l4.3,13.3h1.2c0.1,0.2,0.1,0.4,0.2,0.7c0,0.2,0.1,0.4,0,0.6c0,0.2,0,0.4,0,0.6
	c0,0.2-0.1,0.5-0.2,0.7h-6.3c-0.1-0.2-0.1-0.4-0.2-0.6c0-0.2-0.1-0.4,0-0.6c0-0.4,0.1-0.8,0.2-1.2h1.3l-0.6-2h-4.7l-0.6,2h1.3
	c0.1,0.4,0.2,0.8,0.2,1.2c0,0.2,0,0.4,0,0.6c0,0.2-0.1,0.4-0.2,0.6h-6.1c-0.1-0.2-0.1-0.5-0.2-0.7c0-0.2-0.1-0.4-0.1-0.6
	c0-0.2,0-0.4,0.1-0.6c0-0.2,0.1-0.5,0.2-0.7C10.7,27.2,12,27.2,12.1,27.2z M20.2,22.9l-1.6-5.8l-1.7,5.8H20.2L20.2,22.9z"/>
<path d="M29.7,27.2V16.8h-1.3c-0.1-0.2-0.1-0.4-0.2-0.7c0-0.2-0.1-0.4,0-0.6c0-0.2,0-0.4,0-0.6c0-0.2,0.1-0.5,0.2-0.7h7.8
	c0.7,0,1.5,0.1,2.2,0.4c0.6,0.2,1.1,0.6,1.6,1c0.4,0.4,0.8,0.9,1,1.5c0.2,0.6,0.3,1.2,0.3,1.9c0,0.6-0.1,1.2-0.3,1.7
	c-0.2,0.6-0.5,1.1-0.8,1.6c-0.4,0.5-1,0.9-1.6,1.1c-0.8,0.3-1.6,0.5-2.4,0.4h-2.8v3.5H35c0.1,0.2,0.1,0.4,0.2,0.7
	c0,0.2,0.1,0.4,0,0.6c0,0.2,0,0.4,0,0.6c0,0.2-0.1,0.5-0.2,0.7h-6.6c-0.1-0.2-0.1-0.5-0.2-0.7c0-0.2-0.1-0.4,0-0.6
	c0-0.2,0-0.4,0-0.6c0-0.2,0.1-0.5,0.2-0.7L29.7,27.2L29.7,27.2z M35.4,21c1,0.1,2-0.6,2.1-1.6c0-0.2,0-0.3,0-0.5
	c0-0.5-0.2-1.1-0.5-1.5c-0.4-0.4-0.9-0.6-1.5-0.5h-2.1V21H35.4L35.4,21z"/>
<path d="M42,15.5c0-0.2,0-0.4,0.1-0.6c0.1-0.2,0.2-0.4,0.3-0.5c0.1-0.1,0.3-0.2,0.5-0.3c0.2-0.1,0.4-0.1,0.6-0.1
	c0.4,0,0.8,0.2,1.1,0.4c0.1,0.1,0.3,0.3,0.3,0.5c0.1,0.2,0.1,0.4,0.1,0.6c0,0.4-0.2,0.8-0.5,1.1c-0.1,0.1-0.3,0.2-0.5,0.3
	C44,17,43.8,17,43.6,17c-0.2,0-0.4,0-0.6-0.1c-0.2-0.1-0.4-0.2-0.5-0.3C42.2,16.3,42,15.9,42,15.5z M43.6,16.7c0.5,0,0.9-0.3,1-0.7
	c0.1-0.2,0.1-0.3,0.1-0.5c0-0.2,0-0.4-0.1-0.5c-0.1-0.1-0.1-0.3-0.2-0.4c-0.1-0.1-0.2-0.2-0.4-0.2c-0.1-0.1-0.3-0.1-0.5-0.1
	c-0.2,0-0.3,0-0.5,0.1c-0.1,0.1-0.3,0.1-0.4,0.2c-0.1,0.1-0.2,0.2-0.2,0.4c-0.1,0.1-0.1,0.3-0.1,0.5c0,0.2,0,0.3,0.1,0.5
	c0.1,0.3,0.3,0.5,0.6,0.6C43.2,16.6,43.4,16.7,43.6,16.7L43.6,16.7z M43,16.1v-1.3h-0.1v-0.1c0,0,0,0,0-0.1l0,0v-0.1h0.8
	c0.1,0,0.2,0,0.2,0c0.1,0,0.1,0.1,0.2,0.1c0.1,0,0.1,0.1,0.1,0.2c0,0.1,0,0.1,0,0.2c0,0.1,0,0.2-0.1,0.3c0,0.1-0.1,0.2-0.2,0.2
	l0.2,0.5h0.1c0,0,0,0.1,0,0.1c0,0,0,0,0,0.1l0,0v0.1h-0.3l-0.3-0.7h-0.3v0.5h0.2v0.1c0,0,0,0,0,0.1l0,0c0,0,0,0.1,0,0.1h-0.6v-0.1
	l0,0c0,0,0,0,0-0.1v-0.1L43,16.1L43,16.1z M43.6,15.4c0.1,0,0.1,0,0.2-0.1c0-0.1,0.1-0.1,0.1-0.2c0-0.1-0.1-0.2-0.2-0.2c0,0,0,0,0,0
	h-0.3v0.5C43.3,15.4,43.6,15.4,43.6,15.4z"/>
</svg>
