<?xml version="1.0" encoding="utf-8"?>
<!-- Generator: Adobe Illustrator 23.1.0, SVG Export Plug-In . SVG Version: 6.00 Build 0)  -->
<svg version="1.1" id="Layer_1" xmlns="http://www.w3.org/2000/svg" xmlns:xlink="http://www.w3.org/1999/xlink" x="0px" y="0px"
	 viewBox="0 0 400 400" style="enable-background:new 0 0 400 400;" xml:space="preserve">
<style type="text/css">
	.st0{fill:url(#SVGID_1_);}
	.st1{fill:#006DCC;}
	.st2{fill:#FFFFFF;}
</style>
<title>btn_Unpause_hover</title>
<g id="button">
	
		<linearGradient id="SVGID_1_" gradientUnits="userSpaceOnUse" x1="400" y1="-214.3" x2="54.4" y2="-214.3" gradientTransform="matrix(1 0 0 -1 -27.2 -14.3)">
		<stop  offset="0" style="stop-color:#007BE6"/>
		<stop  offset="1" style="stop-color:#006DCC"/>
	</linearGradient>
	<circle class="st0" cx="200" cy="200" r="172.8"/>
</g>
<g id="icon">
	<g id="Pause">
		<path class="st1" d="M183.6,109.8h-20.4c-4.5,0-8.2,3.7-8.2,8.2l0,0v89.8c0,4.5,3.7,8.2,8.2,8.2h20.4c4.5,0,8.2-3.6,8.2-8.1
			c0,0,0,0,0,0V118c0.1-4.4-3.4-8.1-7.8-8.2C183.9,109.8,183.7,109.8,183.6,109.8L183.6,109.8z M236.7,109.8h-20.4
			c-4.5,0-8.2,3.7-8.2,8.2l0,0v89.8c0,4.5,3.7,8.2,8.2,8.2h20.4c4.5,0,8.2-3.7,8.2-8.2l0,0V118C244.9,113.5,241.3,109.8,236.7,109.8
			C236.7,109.8,236.7,109.8,236.7,109.8L236.7,109.8z"/>
	</g>
	<g id="Pause-2">
		<path class="st2" d="M183.6,109.8h-20.4c-4.5,0-8.2,3.7-8.2,8.2l0,0v89.8c0,4.5,3.7,8.2,8.2,8.2h20.4c4.5,0,8.2-3.6,8.2-8.1
			c0,0,0,0,0,0V118c0.1-4.4-3.4-8.1-7.8-8.2C183.9,109.8,183.7,109.8,183.6,109.8L183.6,109.8z M236.7,109.8h-20.4
			c-4.5,0-8.2,3.7-8.2,8.2l0,0v89.8c0,4.5,3.7,8.2,8.2,8.2h20.4c4.5,0,8.2-3.7,8.2-8.2l0,0V118C244.9,113.5,241.3,109.8,236.7,109.8
			C236.7,109.8,236.7,109.8,236.7,109.8L236.7,109.8z"/>
	</g>
</g>
<g id="label">
	<g>
		<path class="st2" d="M147,251.9c4.1,0,7.3,1,9.6,3.1c4.5,4.3,4.7,11.5,0.4,16l-0.4,0.4c-2.4,2.1-5.6,3.1-9.6,3.1h-6v7.9l3.8,0.7
			v4.3h-14.7v-4.3l3.8-0.7v-25.5l-3.8-0.7v-4.3L147,251.9z M141,269h6c1.7,0.1,3.3-0.5,4.5-1.6c1-1.1,1.6-2.6,1.5-4.1
			c0.1-1.5-0.5-3.1-1.5-4.2c-1.2-1.2-2.8-1.8-4.5-1.7h-6V269z"/>
		<path class="st2" d="M179.2,287.4c-0.2-0.4-0.4-0.9-0.5-1.4c-0.1-0.5-0.2-0.9-0.3-1.4c-0.9,1-1.9,1.8-3.1,2.4
			c-1.3,0.6-2.8,0.9-4.2,0.9c-2.3,0.1-4.5-0.6-6.2-2.1c-1.6-1.5-2.4-3.6-2.3-5.8c-0.1-2.3,1.1-4.5,3-5.7c2-1.4,4.9-2,8.7-2h3.6v-2.6
			c0.1-1.1-0.4-2.2-1.2-3c-0.9-0.8-2.1-1.1-3.3-1c-0.7,0-1.5,0.1-2.2,0.3c-0.5,0.1-1.1,0.4-1.5,0.7l-0.5,2.8h-5.4v-5.9
			c1.4-0.9,2.9-1.7,4.5-2.2c1.8-0.6,3.6-0.9,5.5-0.9c2.9-0.1,5.7,0.7,8,2.4c2.1,1.7,3.2,4.2,3.1,6.9v12c0,0.3,0,0.7,0.1,1l2.2,0.3
			v4.3L179.2,287.4z M173,282.6c2,0,3.8-0.9,5-2.5v-4h-3.6c-1.2-0.1-2.5,0.3-3.4,1.1c-0.7,0.7-1.2,1.6-1.2,2.6
			c0,0.8,0.3,1.6,0.9,2.1C171.3,282.4,172.2,282.7,173,282.6L173,282.6z"/>
		<path class="st2" d="M207.5,284.1c-1.6,2.5-4.4,4-7.4,3.9c-2.5,0.1-4.8-0.9-6.5-2.7c-1.6-1.8-2.4-4.5-2.4-8.3v-11l-2.9-0.7V261h10
			v16c-0.1,1.4,0.2,2.9,1,4.1c0.7,0.9,1.8,1.3,2.9,1.3c1,0,2-0.2,2.9-0.5c0.8-0.4,1.5-0.9,2-1.6V266l-3.1-0.7V261h10.3v21.4l3.2,0.7
			v4.3H208L207.5,284.1z"/>
		<path class="st2" d="M241.8,270.1H237l-0.8-3.3c-0.6-0.4-1.2-0.7-1.8-1c-0.8-0.3-1.6-0.4-2.5-0.4c-1.1-0.1-2.1,0.2-3,0.8
			c-0.7,0.5-1.1,1.3-1.1,2.1c0,0.8,0.4,1.6,1.1,2c1.3,0.7,2.7,1.2,4.2,1.4c2.6,0.4,5.1,1.4,7.3,2.9c1.6,1.2,2.5,3.2,2.4,5.2
			c0,2.3-1.1,4.5-3.1,5.8c-2.4,1.6-5.2,2.4-8.1,2.3c-1.9,0-3.8-0.3-5.6-0.9c-1.6-0.6-3.2-1.4-4.5-2.5l-0.1-5.9h5l1,3.4
			c0.5,0.4,1.1,0.7,1.7,0.8c0.8,0.2,1.5,0.3,2.3,0.3c1.2,0.1,2.3-0.2,3.3-0.8c1.1-0.7,1.5-2.2,0.8-3.4c-0.2-0.3-0.5-0.6-0.8-0.8
			c-1.3-0.8-2.7-1.3-4.2-1.5c-2.5-0.4-4.9-1.4-7-2.8c-1.6-1.2-2.5-3.1-2.4-5.1c0-2.2,1-4.3,2.7-5.7c1.8-1.6,4.4-2.4,7.8-2.4
			c2,0,3.9,0.3,5.8,0.8c1.6,0.4,3,1.1,4.3,2.1L241.8,270.1z"/>
		<path class="st2" d="M258.6,287.9c-3.4,0.2-6.8-1.2-9.1-3.7c-2.3-2.5-3.5-5.9-3.4-9.3v-1c-0.1-3.5,1-7,3.2-9.7
			c2.2-2.5,5.4-3.9,8.7-3.8c3.1-0.2,6.1,1,8.3,3.2c2,2.1,3,5.1,3,8.7v3.9h-15.8l-0.1,0.1c0.1,1.6,0.7,3.1,1.8,4.3
			c1.1,1.2,2.6,1.8,4.2,1.7c1.3,0,2.6-0.1,3.9-0.5c1.2-0.4,2.3-0.9,3.4-1.5l1.9,4.4c-1.3,1-2.7,1.7-4.2,2.2
			C262.5,287.6,260.6,287.9,258.6,287.9z M258,266c-1.2,0-2.4,0.5-3.1,1.5c-0.8,1.2-1.3,2.6-1.4,4l0.1,0.1h8.7V271
			c0.1-1.3-0.3-2.6-1.1-3.6C260.4,266.4,259.2,265.9,258,266z"/>
	</g>
</g>
</svg>
