<?xml version="1.0" encoding="utf-8"?>
<!-- Generator: Adobe Illustrator 23.1.0, SVG Export Plug-In . SVG Version: 6.00 Build 0)  -->
<svg version="1.1" id="Layer_1" xmlns="http://www.w3.org/2000/svg" xmlns:xlink="http://www.w3.org/1999/xlink" x="0px" y="0px"
	 viewBox="0 0 400 400" style="enable-background:new 0 0 400 400;" xml:space="preserve">
<style type="text/css">
	.st0{fill:#D9EAFF;}
	.st1{fill:#006DCC;}
</style>
<title>btn_Pause_hover</title>
<g id="button">
	<circle class="st0" cx="200" cy="200" r="168.3"/>
	<path class="st1" d="M200,36.3c89.6,0.3,162.1,73.2,161.7,162.9s-73.2,162.1-162.9,161.7C109.2,360.6,36.8,287.7,37.1,198
		c0.1-42.6,17.1-83.5,47.1-113.7C114.9,53.6,156.6,36.3,200,36.3 M200,27.3c-95.4,0-172.8,77.3-172.8,172.8S104.6,372.8,200,372.8
		S372.8,295.4,372.8,200C372.8,104.6,295.4,27.3,200,27.3C200,27.3,200,27.3,200,27.3L200,27.3z"/>
</g>
<g id="icon">
	<g id="Pause">
		<path class="st1" d="M183.6,109.8h-20.4c-4.5,0-8.2,3.7-8.2,8.2v0l0,0v89.8c0,4.5,3.7,8.2,8.2,8.2c0,0,0,0,0,0h20.4
			c4.5,0,8.2-3.6,8.2-8.1c0,0,0,0,0,0v-89.9C191.9,113.4,188.2,109.8,183.6,109.8L183.6,109.8L183.6,109.8z M236.7,109.8h-20.4
			c-4.5,0-8.2,3.7-8.2,8.2v0l0,0v89.8c0,4.5,3.7,8.2,8.2,8.2c0,0,0,0,0,0h20.4c4.5,0,8.2-3.7,8.2-8.2c0,0,0,0,0,0l0,0V118
			C244.9,113.4,241.2,109.8,236.7,109.8C236.7,109.8,236.7,109.8,236.7,109.8z"/>
	</g>
</g>
<g id="label">
	<path class="st1" d="M147,251.9c4.1,0,7.3,1,9.6,3.1c4.5,4.3,4.7,11.5,0.4,16c0,0,0,0,0,0l-0.4,0.4c-2.4,2.1-5.6,3.1-9.6,3.1h-6
		v7.9l3.8,0.7v4.3h-14.7v-4.3l3.8-0.7v-25.5l-3.8-0.7v-4.3L147,251.9z M141,269h6c3,0.3,5.7-1.9,6-4.9c0-0.3,0-0.6,0-0.9
		c0.1-1.6-0.5-3.1-1.5-4.2c-1.2-1.2-2.8-1.8-4.5-1.7h-6L141,269z"/>
	<path class="st1" d="M179.2,287.4c-0.2-0.4-0.4-0.9-0.5-1.4c-0.1-0.5-0.3-0.9-0.3-1.4c-0.9,1-1.9,1.8-3.1,2.4
		c-1.3,0.6-2.7,0.9-4.2,0.9c-2.3,0.1-4.5-0.6-6.2-2.1c-1.6-1.5-2.4-3.6-2.3-5.8c-0.1-2.3,1.1-4.5,3-5.7c2-1.4,4.9-2,8.7-2h3.6v-2.6
		c0.1-1.1-0.4-2.2-1.1-3c-0.9-0.8-2.1-1.1-3.3-1c-0.7,0-1.5,0.1-2.2,0.3c-0.5,0.1-1.1,0.4-1.5,0.7l-0.5,2.8h-5.4v-5.9
		c1.4-0.9,2.9-1.7,4.5-2.2c1.8-0.6,3.6-0.9,5.5-0.9c2.9-0.1,5.7,0.7,8,2.4c2.1,1.7,3.2,4.2,3.1,6.9v12.1c0,0.3,0,0.7,0.1,1l2.2,0.3
		v4.3L179.2,287.4z M173,282.7c1,0,2-0.2,2.9-0.7c0.8-0.4,1.5-1,2.1-1.8v-4h-3.6c-1.2-0.1-2.5,0.3-3.4,1.1c-0.8,0.6-1.2,1.6-1.2,2.5
		c0,0.8,0.3,1.6,0.9,2.1C171.3,282.5,172.1,282.7,173,282.7L173,282.7z"/>
	<path class="st1" d="M207.5,284.1c-1.6,2.5-4.4,3.9-7.4,3.9c-2.5,0.1-4.9-0.9-6.5-2.7c-1.6-1.8-2.4-4.6-2.4-8.3V266l-2.9-0.7V261
		h10v16c-0.1,1.5,0.2,2.9,1,4.1c0.7,0.9,1.8,1.3,2.9,1.3c1,0,2-0.2,2.9-0.5c0.8-0.3,1.5-0.9,2-1.6V266l-3.1-0.7V261h10.3v21.4
		l3.2,0.7v4.3H208L207.5,284.1z"/>
	<path class="st1" d="M241.8,270.1H237l-0.8-3.3c-0.6-0.4-1.2-0.8-1.8-1c-0.8-0.3-1.6-0.4-2.5-0.4c-1.1-0.1-2.1,0.2-3,0.8
		c-0.7,0.5-1.1,1.3-1.1,2.1c0,0.8,0.4,1.6,1.1,2c1.3,0.7,2.7,1.2,4.2,1.4c2.6,0.4,5.1,1.4,7.3,2.9c1.6,1.3,2.5,3.2,2.4,5.2
		c0,2.3-1.1,4.5-3.1,5.8c-2.4,1.6-5.2,2.4-8.1,2.3c-1.9,0-3.8-0.3-5.6-0.9c-1.7-0.6-3.2-1.4-4.5-2.5l-0.1-5.9h5l1,3.4
		c0.5,0.4,1.1,0.7,1.7,0.8c0.8,0.2,1.5,0.3,2.3,0.3c1.2,0.1,2.3-0.2,3.3-0.8c1.1-0.7,1.5-2.3,0.8-3.4c-0.2-0.3-0.5-0.6-0.8-0.8
		c-1.3-0.8-2.7-1.3-4.2-1.5c-2.5-0.4-4.9-1.4-7-2.8c-1.6-1.2-2.5-3.1-2.4-5.1c0-2.2,1-4.3,2.7-5.7c1.8-1.6,4.4-2.4,7.8-2.4
		c2,0,3.9,0.3,5.8,0.8c1.6,0.4,3,1.1,4.3,2.1L241.8,270.1z"/>
	<path class="st1" d="M258.6,288c-3.4,0.2-6.8-1.2-9.1-3.7c-2.3-2.5-3.5-5.9-3.4-9.3v-1c-0.1-3.5,1-7,3.2-9.7
		c2.2-2.5,5.4-3.9,8.7-3.8c3.6,0,6.3,1.1,8.3,3.2c2,2.1,3,5,3,8.7v3.9h-15.8l-0.1,0.1c0.1,1.6,0.7,3.1,1.8,4.3
		c1.1,1.2,2.6,1.8,4.2,1.7c1.3,0,2.7-0.1,3.9-0.5c1.2-0.4,2.3-0.9,3.4-1.5l1.9,4.4c-1.3,1-2.7,1.7-4.2,2.2
		C262.5,287.7,260.6,288,258.6,288z M258,266c-1.2,0-2.4,0.5-3.1,1.5c-0.8,1.2-1.3,2.6-1.4,4l0.1,0.1h8.7V271
		c0.1-1.3-0.3-2.6-1.1-3.6C260.4,266.5,259.2,266,258,266z"/>
</g>
</svg>
