<?xml version="1.0" encoding="utf-8"?>
<!-- Generator: Adobe Illustrator 23.1.0, SVG Export Plug-In . SVG Version: 6.00 Build 0)  -->
<svg version="1.1" id="Layer_1" xmlns="http://www.w3.org/2000/svg" xmlns:xlink="http://www.w3.org/1999/xlink" x="0px" y="0px"
	 viewBox="0 0 400 400" style="enable-background:new 0 0 400 400;" xml:space="preserve">
<style type="text/css">
	.st0{fill:#8295A8;}
	.st1{fill:#006DCC;}
</style>
<circle class="st0" cx="200" cy="200" r="168.3"/>
<title>btn_Record</title>
<g id="button">
	<path class="st1" d="M199.8,35.5c89.6,0.3,162.1,73.2,161.7,162.9s-73.2,162.1-162.9,161.7C109,359.8,36.6,286.9,36.9,197.2
		C37,154.6,53.9,113.8,84,83.5C114.7,52.8,156.3,35.5,199.8,35.5 M199.8,26.5C104.3,26.5,27,103.8,27,199.3S104.3,372,199.8,372
		s172.7-77.3,172.7-172.8C372.5,103.8,295.2,26.5,199.8,26.5C199.8,26.5,199.8,26.5,199.8,26.5L199.8,26.5z"/>
</g>
<g id="icon">
	<path class="st1" d="M199.2,182.8c13.5,0,24.5-11,24.5-24.5V119c0-13.5-10.9-24.5-24.5-24.5c-6.5,0-12.8,2.6-17.4,7.2
		c-4.7,4.5-7.3,10.8-7.2,17.3v39.3C174.7,171.8,185.7,182.7,199.2,182.8L199.2,182.8z"/>
	<path class="st1" d="M241.9,145c-1.9-1.9-5-1.9-6.9,0c-0.9,0.9-1.4,2.1-1.4,3.4v9.8c0,19-15.4,34.3-34.3,34.3
		c-19,0-34.3-15.4-34.3-34.3v-9.8c0-2.7-2.2-4.9-4.9-4.9c-2.7,0-4.9,2.2-4.9,4.9v9.8c0,22.5,16.9,41.3,39.2,43.8v10.2h-19.6
		c-2.7,0.1-4.8,2.4-4.7,5.1c0.1,2.5,2.1,4.6,4.7,4.7h49c2.7-0.1,4.8-2.4,4.7-5.1c-0.1-2.5-2.1-4.6-4.7-4.7h-19.6v-10.2
		c22.3-2.5,39.2-21.4,39.2-43.8v-9.8C243.4,147.1,242.8,145.9,241.9,145z"/>
</g>
<g id="label">
	<path class="st1" d="M134.2,251.1c4,0,7.2,0.9,9.5,2.8c2.3,1.9,3.6,4.7,3.4,7.6c0,1.7-0.5,3.3-1.4,4.7c-1.1,1.4-2.6,2.5-4.2,3.2
		c1.8,0.4,3.5,1.5,4.5,3.1c1,1.6,1.4,3.5,1.4,5.4v1.8c0,0.6,0.1,1.3,0.5,1.8c0.4,0.5,0.9,0.7,1.5,0.8l0.9,0.1v4.3h-3.7
		c-2.3,0-4-0.6-4.9-1.9c-1-1.4-1.5-3.1-1.4-4.9v-2c0.1-1.5-0.4-2.9-1.4-4.1c-1-1-2.4-1.6-3.9-1.5h-5.8v9.4l3.8,0.7v4.3h-14.7v-4.3
		l3.8-0.7v-25.5l-3.8-0.7v-4.3L134.2,251.1L134.2,251.1z M129.2,266.8h4.9c1.6,0.1,3.2-0.3,4.5-1.3c1-0.9,1.6-2.3,1.5-3.7
		c0.1-1.4-0.4-2.8-1.4-3.9c-1.2-1-2.8-1.5-4.4-1.4h-5.1L129.2,266.8z"/>
	<path class="st1" d="M165.4,287.2c-3.4,0.2-6.8-1.2-9.1-3.7c-2.3-2.5-3.5-5.9-3.4-9.3v-1c-0.1-3.5,1-7,3.2-9.7
		c2.2-2.5,5.4-3.9,8.7-3.8c3.6,0,6.3,1.1,8.3,3.2c2,2.1,3,5,3,8.7v3.9h-15.8l-0.1,0.1c0.1,1.6,0.7,3.1,1.8,4.3
		c1.1,1.2,2.6,1.8,4.2,1.7c1.3,0,2.7-0.1,3.9-0.5c1.2-0.4,2.3-0.9,3.4-1.5l1.9,4.4c-1.3,1-2.7,1.7-4.2,2.2
		C169.4,286.9,167.4,287.2,165.4,287.2z M164.8,265.3c-1.2,0-2.4,0.5-3.1,1.5c-0.8,1.2-1.3,2.6-1.4,4l0.1,0.1h8.7v-0.6
		c0.1-1.3-0.3-2.6-1.1-3.6C167.2,265.7,166,265.2,164.8,265.3z"/>
	<path class="st1" d="M191.8,281.7c1.1,0.1,2.2-0.3,3.1-1.1c0.8-0.8,1.2-1.9,1.1-3h6.4l0.1,0.1c0.1,2.6-1,5.1-3,6.7
		c-2.1,1.8-4.9,2.8-7.7,2.7c-3.9,0-7-1.2-9.1-3.7c-2.2-2.7-3.3-6.1-3.2-9.6v-0.7c-0.1-3.5,1-6.9,3.3-9.6c2.2-2.5,5.3-3.8,9.4-3.8
		c2,0,3.9,0.3,5.7,1c1.6,0.6,3,1.5,4.2,2.7l0.1,7h-5.8l-1.2-4.2c-0.4-0.3-0.8-0.6-1.3-0.8c-0.6-0.2-1.2-0.3-1.8-0.3
		c-1.7-0.2-3.4,0.7-4.3,2.2c-0.9,1.7-1.3,3.7-1.2,5.7v0.7c-0.1,2,0.3,3.9,1.1,5.7C188.6,281,190.2,281.8,191.8,281.7z"/>
	<path class="st1" d="M205.8,273.3c-0.1-3.5,1-7,3.3-9.7c2.3-2.6,5.7-3.9,9.1-3.8c3.9,0,7,1.3,9.2,3.8c2.3,2.7,3.5,6.2,3.3,9.7v0.5
		c0.2,3.5-1,7-3.3,9.7c-2.3,2.6-5.7,3.9-9.1,3.8c-3.9,0-7-1.3-9.2-3.8c-2.3-2.7-3.5-6.2-3.3-9.7V273.3z M212.9,273.8
		c-0.1,2,0.3,4,1.3,5.8c1.5,2.3,4.5,2.9,6.8,1.4c0.6-0.4,1-0.8,1.4-1.4c0.9-1.8,1.4-3.8,1.3-5.8v-0.5c0.1-2-0.4-4-1.3-5.7
		c-1.4-2.2-4.4-2.9-6.7-1.5c0,0,0,0,0,0c-0.6,0.4-1.1,0.9-1.5,1.5c-0.9,1.8-1.3,3.7-1.3,5.7L212.9,273.8z"/>
	<path class="st1" d="M234.3,282.4l3.4-0.7v-16.4l-3.8-0.7v-4.3h10.4l0.3,3.9c0.5-1.2,1.3-2.3,2.4-3.2c1-0.8,2.2-1.2,3.4-1.1
		c0.4,0,0.8,0,1.2,0.1c0.3,0,0.7,0.1,1,0.2l-0.8,6.5l-2.9-0.1c-0.9,0-1.8,0.2-2.6,0.6c-0.7,0.4-1.2,1-1.6,1.7v12.8l3.4,0.7v4.3h-14
		L234.3,282.4z"/>
	<path class="st1" d="M271.6,283.4c-0.8,1.1-1.8,2.1-2.9,2.8c-1.2,0.7-2.5,1-3.9,1c-3,0.1-5.8-1.2-7.6-3.6c-1.8-2.4-2.7-5.5-2.7-9.4
		v-0.5c0-4.2,0.9-7.5,2.7-10.1c1.7-2.5,4.6-3.9,7.6-3.8c1.2,0,2.5,0.3,3.6,0.9c1.1,0.6,2.1,1.4,2.8,2.5v-9.5l-3.8-0.7v-4.3h10.9
		v33.1l3.4,0.7v4.3h-9.6L271.6,283.4z M261.6,274.2c-0.1,1.9,0.3,3.8,1.2,5.5c0.8,1.3,2.3,2.1,3.8,2c0.9,0,1.9-0.2,2.7-0.6
		c0.8-0.4,1.4-1.1,1.9-1.8V268c-0.4-0.8-1.1-1.5-1.9-2c-0.8-0.5-1.7-0.7-2.7-0.7c-1.6-0.1-3.1,0.8-3.8,2.3c-0.9,1.9-1.3,4-1.2,6.1
		V274.2z"/>
</g>
</svg>
