<?xml version="1.0" encoding="utf-8"?>
<!-- Generator: Adobe Illustrator 23.1.0, SVG Export Plug-In . SVG Version: 6.00 Build 0)  -->
<svg version="1.1" id="Layer_1" xmlns="http://www.w3.org/2000/svg" xmlns:xlink="http://www.w3.org/1999/xlink" x="0px" y="0px"
	 viewBox="0 0 400 400" style="enable-background:new 0 0 400 400;" xml:space="preserve">
<style type="text/css">
	.st0{fill:#006DCC;}
	.st1{fill:url(#SVGID_1_);}
	.st2{fill:#FFFFFF;}
</style>
<title>btn_Unpause_focus</title>
<g>
	<path class="st0" d="M200,16.3L200,16.3C199.9,16.3,199.9,16.3,200,16.3c-0.1,0-0.1,0-0.1,0l0,0l0,0l0,0l0,0l0,0c0,0,0,0-0.1,0l0,0
		c0,0,0,0-0.1,0l0,0c0,0,0,0-0.1,0l0,0l0,0l0,0l0,0l0,0l0,0l0,0c0,0,0,0-0.1,0l0,0c0,0,0,0-0.1,0l0,0l0,0l0,0l0,0l0,0l0,0l0,0l0,0
		c0,0,0,0-0.1,0l0,0l0,0l0,0l0,0l0,0l0,0l0,0l0,0l0,0l0,0l0,0h-0.1l0,0l0,0l0,0l0,0l0,0l0,0l0,0l0,0l0,0c-0.1,0-0.1,0-0.2,0l0,0
		c0,0,0,0-0.1,0l0,0c0,0,0,0-0.1,0l0,0c-1.9,0-3.8,0.1-5.7,0.2l0.1,1.5c2.6-0.1,5.3-0.2,7.9-0.2v-1.5H200L200,16.3z M185,16.9
		L185,16.9L185,16.9L185,16.9c-0.1,0-0.1,0-0.1,0l0,0l0,0l0,0c-0.1,0-0.1,0-0.2,0l0,0l0,0l0,0l0,0l0,0l0,0l0,0l0,0l0,0
		c-0.1,0-0.1,0-0.2,0l0,0l0,0l0,0l0,0l0,0l0,0l0,0l0,0l0,0c-0.1,0-0.1,0-0.2,0l0,0l0,0l0,0l0,0l0,0l0,0l0,0l0,0l0,0
		c-0.1,0-0.1,0-0.2,0l0,0l0,0l0,0l0,0l0,0l0,0l0,0l0,0l0,0l0,0l0,0c0,0,0,0-0.1,0l0,0l0,0l0,0l0,0l0,0l0,0l0,0l0,0l0,0l0,0
		c0,0,0,0-0.1,0l0,0l0,0l0,0l0,0l0,0l0,0l0,0l0,0l0,0l0,0l0,0l0,0l0,0l0,0l0,0l0,0l0,0l0,0l0,0l0,0l0,0l0,0l0,0l0,0c0,0,0,0-0.1,0
		l0,0l0,0l0,0l0,0l0,0l0,0l0,0l0,0l0,0l0,0l0,0c0,0,0,0-0.1,0l0,0l0,0l0,0l0,0l0,0l0,0l0,0l0,0l0,0l0,0l0,0l0,0l0,0l0,0l0,0l0,0l0,0
		l0,0l0,0l0,0l0,0l0,0l0,0c0,0,0,0-0.1,0l0,0l0,0l0,0l0,0l0,0l0,0l0,0l0,0l0,0l0,0l0,0c0,0,0,0-0.1,0l0,0l0,0l0,0l0,0l0,0l0,0l0,0
		l0,0l0,0l0,0l0,0h-0.1l0,0l0,0l0,0l0,0l0,0l0,0l0,0l0,0l0,0l0,0l0,0c-0.1,0-0.1,0-0.2,0l0,0c0,0,0,0-0.1,0l0,0l0,0l0,0
		c0,0,0,0-0.1,0l0,0c-0.1,0-0.2,0-0.3,0l0,0c0,0,0,0-0.1,0l0,0c0,0,0,0-0.1,0l0,0c-0.4,0-0.8,0.1-1.2,0.1l0.2,1.5
		c2.6-0.3,5.3-0.6,7.9-0.8L185,16.9L185,16.9z M170.1,18.7c-2.6,0.4-5.3,0.9-7.9,1.5l0.3,1.5c2.6-0.5,5.2-1,7.8-1.5L170.1,18.7
		L170.1,18.7z M155.4,21.8c-0.2,0.1-0.5,0.1-0.7,0.2l0,0c0,0,0,0-0.1,0l0,0c0,0,0,0-0.1,0l0,0c0,0,0,0-0.1,0l0,0
		c-0.1,0-0.2,0-0.3,0.1l0,0c0,0,0,0-0.1,0l0,0l0,0l0,0l0,0l0,0l0,0l0,0c0,0,0,0-0.1,0l0,0h-0.1l0,0l0,0l0,0l0,0l0,0l0,0l0,0l0,0l0,0
		c0,0,0,0-0.1,0l0,0h-0.1l0,0c0,0,0,0-0.1,0l0,0l0,0l0,0l0,0l0,0l0,0l0,0l0,0l0,0c-0.1,0-0.1,0-0.2,0.1l0,0c0,0,0,0-0.1,0l0,0
		c0,0,0,0-0.1,0l0,0c0,0,0,0-0.1,0l0,0c0,0,0,0-0.1,0l0,0c-0.1,0-0.2,0.1-0.3,0.1l0,0c0,0,0,0-0.1,0l0,0c-1.5,0.4-2.9,0.8-4.4,1.2
		l0.4,1.4c2.5-0.7,5.1-1.4,7.7-2.1L155.4,21.8L155.4,21.8z M141.1,26c-0.2,0.1-0.5,0.2-0.7,0.2l0,0c0,0,0,0-0.1,0l0,0c0,0,0,0-0.1,0
		l0,0l0,0l0,0l0,0l0,0c-0.1,0-0.2,0.1-0.3,0.1l0,0l0,0l0,0l0,0l0,0l0,0l0,0l0,0l0,0l0,0l0,0c-0.1,0-0.1,0.1-0.2,0.1l0,0l0,0l0,0l0,0
		l0,0l0,0l0,0l0,0l0,0c-0.1,0-0.2,0.1-0.3,0.1l0,0c0,0,0,0-0.1,0l0,0c0,0,0,0-0.1,0l0,0c0,0,0,0-0.1,0l0,0c-1.7,0.6-3.4,1.2-5,1.9
		l0.5,1.4c2.5-1,5-1.9,7.5-2.7L141.1,26L141.1,26z M127.1,31.4c-2.5,1.1-4.9,2.2-7.3,3.3l0.7,1.3c2.4-1.2,4.8-2.3,7.2-3.3
		L127.1,31.4L127.1,31.4z M113.6,37.9c-1.3,0.7-2.7,1.5-4,2.2l0,0l0,0l0,0l0,0l0,0l0,0l0,0l0,0l0,0l0,0l0,0l0,0l0,0l0,0
		c-0.1,0-0.1,0.1-0.2,0.1l0,0c0,0,0,0-0.1,0l0,0l0,0l0,0l0,0l0,0c0,0,0,0-0.1,0l0,0c-0.7,0.4-1.4,0.8-2.2,1.3l0.8,1.3
		c2.3-1.3,4.6-2.6,6.9-3.9L113.6,37.9L113.6,37.9z M100.6,45.5c-1.1,0.7-2.1,1.4-3.2,2.1l0,0c0,0,0,0-0.1,0l0,0c0,0,0,0-0.1,0l0,0
		c0,0,0,0-0.1,0l0,0c-0.1,0.1-0.1,0.1-0.2,0.2l0,0l0,0l0,0l0,0l0,0l0,0l0,0l0,0l0,0l0,0l0,0l0,0l0,0l0,0l0,0c0,0,0,0-0.1,0l0,0l0,0
		l0,0l0,0l0,0l0,0l0,0l0,0l0,0l0,0l0,0l0,0l0,0l0,0l0,0l0,0c-0.1,0-0.1,0.1-0.2,0.1l0,0l0,0l0,0l0,0l0,0l0,0l0,0l0,0l0,0l0,0l0,0
		l0,0l0,0c-1.1,1-1.2,1-1.3,1.1l0,0l0,0l0,0l0,0l0,0l0,0l0,0l0,0l0,0C95.2,49,95.1,49,95,49.2l0,0l0,0l0,0l0,0l0,0l0,0l0,0l0,0l0,0
		l0,0l0,0l0,0l0,0c-0.1,0-0.1,0.1-0.2,0.1l0,0l0,0l0,0l0,0l0,0l0,0l0,0l0,0l0,0l0,0l0,0l0,0l0,0l0,0l0,0l0.9,1.2
		c2.2-1.5,4.4-3,6.6-4.4L100.6,45.5L100.6,45.5z M88.4,54.1L88.4,54.1C88.3,54.1,88.3,54.1,88.4,54.1C88.3,54.1,88.3,54.1,88.4,54.1
		C88.3,54.2,88.3,54.2,88.4,54.1C88.3,54.2,88.3,54.2,88.4,54.1L88.4,54.1L88.4,54.1L88.4,54.1L88.4,54.1L88.4,54.1L88.4,54.1
		L88.4,54.1L88.4,54.1L88.4,54.1L88.4,54.1L88.4,54.1L88.4,54.1L88.4,54.1L88.4,54.1L88.4,54.1L88.4,54.1L88.4,54.1L88.4,54.1
		L88.4,54.1L88.4,54.1L88.4,54.1L88.4,54.1L88.4,54.1c-0.2,0.1-0.2,0.2-0.3,0.2l0,0l0,0l0,0l0,0l0,0l0,0l0,0l0,0l0,0l0,0l0,0l0,0
		l0,0c-0.1,0.1-0.2,0.1-0.3,0.2l0,0c0,0,0,0-0.1,0l0,0c0,0,0,0-0.1,0l0,0c0,0,0,0-0.1,0l0,0c-1,0.8-2,1.6-3,2.4l0,0c0,0,0,0-0.1,0
		l0,0l0,0l0,0l0,0l0,0l0,0l0,0l0,0l0,0l0,0l0,0l0,0l0,0l0,0l0,0l0,0l0,0l0,0l0,0l0,0l0,0l0,0c-0.3,0.3-0.7,0.6-1,0.8l1,1.2
		c2-1.7,4.1-3.4,6.2-5L88.4,54.1L88.4,54.1z M76.8,63.7c-2,1.8-3.9,3.6-5.8,5.5l1.1,1.1c1.9-1.8,3.8-3.7,5.8-5.4L76.8,63.7
		L76.8,63.7z M66.1,74.2c-1.4,1.5-2.7,3-4.1,4.5l0,0l0,0l0,0l0,0l0,0l0,0l0,0l0,0l0,0l0,0l0,0l0,0l0,0l-0.1,0.1l0,0l0,0l0,0l0,0l0,0
		l0,0l0,0l0,0l0,0l0,0l0,0l0,0l0,0l0,0l0,0l0,0l0,0l0,0l-0.1,0.1l0,0l0,0l0,0l0,0l0,0l0,0l0,0l0,0l0,0l0,0l0,0
		c-0.1,0.1-0.1,0.2-0.2,0.3l1.1,1c1.7-2,3.5-4,5.3-5.9L66.1,74.2L66.1,74.2z M56.3,85.5c-1.7,2.1-3.3,4.2-4.9,6.4l1.2,0.9
		c1.6-2.1,3.2-4.2,4.8-6.3L56.3,85.5L56.3,85.5z M47.4,97.6c-0.3,0.4-0.5,0.7-0.7,1.1l0,0c0,0,0,0,0,0.1l0,0
		c-0.1,0.1-0.2,0.2-0.2,0.3l0,0l0,0l0,0l0,0l0,0l0,0l0,0l0,0l0,0l0,0l0,0c-0.1,0.1-0.1,0.1-0.1,0.2l0,0l0,0l0,0l0,0l0,0l0,0l0,0l0,0
		l0,0l0,0l0,0c0,0,0,0,0,0.1l0,0c0,0.1-0.1,0.1-0.1,0.2l0,0c0,0,0,0,0,0.1l0,0l0,0l0,0l0,0l0,0l0,0l0,0l0,0l0,0
		c-0.1,0.1-0.1,0.2-0.2,0.3l0,0c0,0,0,0,0,0.1l0,0c0,0,0,0,0,0.1l0,0c0,0,0,0,0,0.1l0,0c0,0,0,0,0,0.1l0,0c-0.1,0.1-0.1,0.2-0.2,0.3
		l0,0c0,0,0,0,0,0.1l0,0c0,0,0,0,0,0.1l0,0l0,0l0,0c0,0,0,0,0,0.1l0,0c-0.1,0.1-0.1,0.2-0.2,0.3l0,0l0,0l0,0l0,0l0,0l0,0l0,0l0,0
		l0,0l0,0l0,0l0,0l0,0c0,0,0,0,0,0.1l0,0l0,0l0,0l0,0l0,0l0,0l0,0l0,0l0,0l0,0l0,0l0,0l0,0l0,0c-0.4,0.6-0.7,1.1-1.1,1.7l1.3,0.8
		c1.4-2.2,2.8-4.5,4.3-6.7L47.4,97.6L47.4,97.6z M39.6,110.4c-0.2,0.3-0.3,0.5-0.5,0.8l0,0l0,0l0,0l0,0l0,0l0,0l0,0l0,0l0,0l0,0l0,0
		l0,0c0,0,0,0,0,0.1l0,0c0,0,0,0,0,0.1l0,0c0,0,0,0,0,0.1l0,0c0,0,0,0,0,0.1l0,0c0,0,0,0,0,0.1l0,0c0,0,0,0,0,0.1l0,0
		c-0.5,0.9-0.9,1.7-1.4,2.6l0,0c0,0,0,0,0,0.1l0,0c0,0,0,0,0,0.1l0,0c0,0,0,0,0,0.1l0,0c0,0,0,0,0,0.1l0,0c0,0.1-0.1,0.1-0.1,0.2
		l0,0c0,0,0,0,0,0.1l0,0l0,0l0,0l0,0l0,0l0,0l0,0l0,0l0,0l0,0l0,0l0,0l0,0l0,0c0,0,0,0,0,0.1l0,0l0,0l0,0l0,0l0,0l0,0l0,0l0,0l0,0
		l0,0l0,0l0,0l0,0l0,0l0,0c0,0.1-0.1,0.2-0.1,0.3l0,0c0,0,0,0,0,0.1l0,0c0,0,0,0,0,0.1l0,0c0,0,0,0,0,0.1l0,0
		c-0.2,0.4-0.4,0.8-0.6,1.2l1.3,0.7c1.2-2.3,2.4-4.7,3.7-7L39.6,110.4L39.6,110.4z M32.8,123.8c-0.5,1.1-1,2.2-1.5,3.3l0,0
		c0,0,0,0,0,0.1l0,0c0,0,0,0,0,0.1l0,0c0,0,0,0,0,0.1l0,0c0,0,0,0,0,0.1l0,0c0,0.1-0.1,0.1-0.1,0.2l0,0l0,0l0,0l0,0l0,0l0,0l0,0l0,0
		l0,0l0,0l0,0l0,0l0,0l0,0c0,0,0,0.1-0.1,0.1l0,0l0,0l0,0l0,0l0,0l0,0l0,0l0,0l0,0c-0.4,0.9-0.8,1.9-1.2,2.8l1.4,0.6
		c1-2.4,2-4.9,3.1-7.3L32.8,123.8L32.8,123.8z M27.1,137.6c-0.2,0.5-0.4,1.1-0.6,1.6l0,0l0,0l0,0l0,0l0,0l0,0l0,0l0,0l0,0l0,0l0,0
		l0,0v0.1l0,0c0,0,0,0,0,0.1l0,0c0,0,0,0,0,0.1l0,0c0,0,0,0,0,0.1l0,0c0,0,0,0,0,0.1l0,0c-0.4,1.2-0.8,2.3-1.2,3.5l0,0
		c0,0,0,0,0,0.1l0,0l0,0l0,0l0,0l0,0l0,0l0,0l0,0v0.1l0,0l0,0l0,0c0,0,0,0,0,0.1l0,0c0,0,0,0,0,0.1l0,0c0,0,0,0,0,0.1l0,0
		c-0.1,0.3-0.2,0.7-0.3,1l1.4,0.4c0.8-2.5,1.6-5,2.5-7.5L27.1,137.6L27.1,137.6z M22.6,151.9c-0.7,2.6-1.3,5.2-1.9,7.8l1.5,0.3
		c0.6-2.6,1.2-5.2,1.9-7.7L22.6,151.9L22.6,151.9z M19.3,166.6c-0.1,0.7-0.2,1.3-0.4,2l0,0c0,0.1,0,0.3-0.1,0.4l0,0c0,0,0,0,0,0.1
		l0,0c0,0.1,0,0.2-0.1,0.4l0,0c0,0,0,0,0,0.1l0,0c-0.3,1.7-0.5,3.3-0.8,5l1.5,0.2c0.4-2.6,0.8-5.2,1.3-7.8L19.3,166.6L19.3,166.6z
		 M17.2,181.4c0,0.1,0,0.1,0,0.2l0,0l0,0l0,0l0,0l0,0l0,0l0,0l0,0l0,0l0,0v0.1l0,0c0,0,0,0,0,0.1l0,0c0,0,0,0,0,0.1l0,0
		c-0.2,2.4-0.4,4.8-0.6,7.2l1.5,0.1c0.2-2.6,0.4-5.3,0.6-7.9L17.2,181.4L17.2,181.4z M16.3,196.4c0,0.1,0,0.2,0,0.3l0,0
		c0,0,0,0,0,0.1l0,0c0,0,0,0,0,0.1l0,0l0,0c0,0,0,0,0,0.1l0,0c0,0.8,0,1.6,0,2.4l0,0c0,0,0,0,0,0.1l0,0v0.1l0,0c0,0,0,0,0,0.1l0,0
		c0,0,0,0,0,0.1l0,0c0,0,0,0,0,0.1l0,0c0,0,0,0,0,0.1l0,0c0,0,0,0,0,0.1l0,0c0,0,0,0,0,0.1l0,0c0,0,0,0,0,0.1l0,0l0,0l0,0l0,0l0,0
		l0,0l0,0l0,0l0,0l0,0l0,0c0,0,0,0,0,0.1l0,0c0,0,0,0,0,0.1l0,0c0,0.1,0,0.1,0,0.2l0,0c0,0,0,0,0,0.1l0,0c0,0,0,0,0,0.1l0,0
		c0,0,0,0,0,0.1l0,0c0,0.7,0,1.3,0,2l0,0c0,0,0,0,0,0.1l0,0c0,0,0,0,0,0.1l0,0c0,0,0,0,0,0.1l0,0v0.1c0,0,0,0,0,0.1l0,0
		c0,0.3,0,0.5,0,0.8h1.5c0-1.4,0-2.8,0-4.2c0-1.2,0-2.5,0-3.7L16.3,196.4L16.3,196.4z M18.1,211.3l-1.5,0.1c0.2,2.7,0.4,5.3,0.7,8
		l1.5-0.2C18.4,216.6,18.2,213.9,18.1,211.3L18.1,211.3z M19.6,226.1l-1.5,0.2c0.2,1.3,0.4,2.6,0.6,3.8l0,0c0,0,0,0,0,0.1l0,0
		c0,0.1,0,0.2,0.1,0.3l0,0c0,0,0,0,0,0.1l0,0l0,0l0,0l0,0l0,0l0,0l0,0c0,0.1,0,0.1,0,0.2l0,0l0,0l0,0l0,0l0,0l0,0l0,0l0,0l0,0l0,0
		l0,0l0,0c0,0,0,0,0,0.1l0,0l0,0l0,0l0,0l0,0l0,0l0,0l0,0l0,0l0,0l0,0l0,0l0,0l0,0l0,0l0,0l0,0l0,0l0,0l0,0l0,0l0,0l0,0l0,0l0,0l0,0
		c0,0,0,0,0,0.1l0,0l0,0l0,0l0,0l0,0l0,0l0,0l0,0l0,0c0.1,0.5,0.2,1.1,0.3,1.6l1.5-0.3C20.4,231.3,19.9,228.7,19.6,226.1L19.6,226.1
		z M22.3,240.7l-1.5,0.3l0,0l0,0c0,0,0,0,0,0.1l0,0c0,0,0,0,0,0.1l0,0c0,0,0,0,0,0.1l0,0c0.3,1.5,0.7,2.9,1.1,4.4l0,0c0,0,0,0,0,0.1
		l0,0c0,0,0,0,0,0.1l0,0c0,0.1,0,0.2,0.1,0.3l0,0c0,0,0,0,0,0.1l0,0c0,0,0,0,0,0.1l0,0c0,0,0,0,0,0.1l0,0c0,0.1,0.1,0.2,0.1,0.3l0,0
		c0,0,0,0,0,0.1l0,0c0,0,0,0,0,0.1l0,0c0,0.1,0.1,0.3,0.1,0.4l0,0c0.1,0.6,0.3,1.1,0.4,1.7l1.4-0.4
		C23.5,245.9,22.8,243.3,22.3,240.7L22.3,240.7z M26.1,255.1l-1.4,0.5c0.4,1.4,0.9,2.7,1.3,4.1l0,0c0,0.1,0.1,0.3,0.1,0.4l0,0
		c0,0,0,0,0,0.1l0,0l0,0l0,0l0,0l0,0c0,0,0,0,0,0.1l0,0v0.1l0,0c0,0,0,0,0,0.1l0,0l0,0l0,0l0,0l0,0l0,0l0,0l0,0l0,0l0,0l0,0
		c0,0,0,0,0,0.1l0,0c0,0,0,0,0,0.1l0,0l0,0l0,0l0,0l0,0l0,0l0,0l0,0l0,0l0,0l0,0l0,0l0,0l0,0c0,0,0,0,0,0.1l0,0l0,0l0,0l0,0l0,0l0,0
		l0,0l0,0l0,0l0,0l0,0l0,0l0,0l0,0l0,0v0.1l0,0l0,0l0,0l0,0l0,0l0,0l0,0l0,0l0,0l0,0l0,0l0,0l0,0l0,0l0,0v0.1l0,0l0,0l0,0l0,0l0,0
		l0,0l0,0l0,0l0,0l0,0l0,0l0,0l0,0l0,0c0,0,0,0,0,0.1l0,0l0,0l0,0l0,0l1.4-0.5C27.8,260.1,26.9,257.6,26.1,255.1L26.1,255.1z
		 M31.2,269l-1.4,0.6c1,2.5,2.1,4.9,3.2,7.3l1.4-0.6C33.3,273.9,32.2,271.5,31.2,269L31.2,269z M37.4,282.6l-1.3,0.7
		c0.6,1.1,1.1,2.2,1.7,3.2l0,0c0,0,0,0,0,0.1l0,0c0,0,0,0,0,0.1l0,0c0,0,0,0,0,0.1l0,0c0.1,0.1,0.2,0.3,0.2,0.4l0,0c0,0,0,0,0,0.1
		l0,0c0.6,1,1.1,2.1,1.7,3.1l1.3-0.7C39.8,287.3,38.6,284.9,37.4,282.6L37.4,282.6z M44.7,295.5l-1.3,0.8c0.9,1.5,1.8,2.9,2.7,4.3
		l0,0l0,0l0,0l0,0l0,0l0,0l0,0l0,0l0,0l0,0l0,0c0,0.1,0.1,0.1,0.1,0.2l0,0l0,0l0,0l0,0l0,0l0,0l0,0l0,0l0,0l0,0l0,0l0,0l0,0l0,0l0,0
		c0,0,0,0,0,0.1l0,0l0,0l0,0l0,0l0,0l0,0l0,0l0,0l0,0l0,0l0,0l0,0l0,0l0,0l0,0l0,0l0,0c0,0,0,0,0,0.1l0,0l0,0l0,0l0,0l0,0l0,0l0,0
		l0,0l0,0l0,0l0,0l0,0l0,0l0,0l0,0l0,0l0,0l0,0l0,0c0,0,0,0.1,0.1,0.1l0,0l0,0l0,0l0,0l0,0l0,0l0,0l0,0l0,0l0,0l0,0l0,0l0,0l0,0l0,0
		l1.2-0.8C47.5,300,46,297.8,44.7,295.5L44.7,295.5z M53,307.9l-1.2,0.9c0.3,0.5,0.7,0.9,1,1.4l0,0l0,0l0,0l0,0l0,0l0,0l0,0l0,0l0,0
		l0,0l0,0l0,0l0,0l0,0c1.1,1.5,2.3,3,3.5,4.5l0,0l0,0l0,0l0,0l0,0l1.2-0.9C56.2,312.1,54.5,310,53,307.9L53,307.9z M62.3,319.5
		l-1.1,1c1.2,1.4,2.5,2.8,3.8,4.2l0,0l0,0l0,0l0,0l0,0l0,0l0,0l0,0l0,0l0.1,0.1l0,0l0,0l0,0l0,0l0,0l0,0l0,0l0,0l0,0l0,0l0,0l0,0
		l0,0l0,0c0.3,0.4,0.7,0.7,1,1.1l1.1-1C65.8,323.5,64,321.5,62.3,319.5L62.3,319.5z M72.4,330.3l-1,1.1c0.5,0.5,1,0.9,1.4,1.4l0,0
		l0,0l0,0l0,0l0,0l0,0l0,0l0,0l0,0c0.1,0.1,0.2,0.2,0.3,0.3l0,0l0,0l0,0l0,0l0,0l0,0l0,0l0,0l0,0l0,0l0,0l0,0l0,0
		c0.1,0.1,0.1,0.1,0.2,0.2l0,0l0,0l0,0l0,0l0,0l0,0l0,0l0,0l0,0l0,0l0,0c0.1,0.1,0.2,0.2,0.3,0.3l0,0l0,0l0,0l0,0l0,0
		c0.9,0.9,1.9,1.8,2.9,2.6l1-1.1C76.3,334,74.3,332.1,72.4,330.3L72.4,330.3z M83.5,340.3l-1,1.2c0.6,0.5,1.3,1.1,1.9,1.6l0,0l0,0
		l0,0l0,0l0,0l0,0l0,0l0,0l0,0l0,0l0,0l0,0l0,0l0,0l0,0l0,0l0,0l0,0l0,0l0,0l0,0l0,0c0.8,0.6,1.6,1.3,2.4,1.9l0,0l0,0l0,0l0,0l0,0
		l0,0l0,0l0,0l0,0l0,0l0,0l0,0c0.4,0.3,0.7,0.6,1.1,0.8l0.9-1.2C87.6,343.6,85.5,342,83.5,340.3L83.5,340.3z M95.3,349.3l-0.9,1.2
		l0,0l0,0l0,0l0,0l0,0l0,0l0,0l0,0l0,0l0,0l0,0l0.1,0.1l0,0l0,0l0,0l0,0l0,0l0,0l0,0l0,0l0,0l0,0l0,0l0,0l0,0
		c0.3,0.2,0.6,0.4,0.9,0.6l0,0c0.3,0.2,0.7,0.5,1,0.7l0,0c0,0,0,0,0.1,0l0,0c0,0,0,0,0.1,0l0,0c0.1,0.1,0.2,0.2,0.4,0.2l0,0l0,0l0,0
		l0,0l0,0l0,0l0,0l0,0l0,0l0,0l0,0l0,0l0,0l0.1,0.1l0,0l0,0l0,0l0,0l0,0l0,0l0,0l0,0l0,0l0,0l0,0l0,0l0,0l0,0l0,0l0,0
		c0.1,0,0.1,0.1,0.2,0.1l0,0l0,0l0,0l0,0l0,0l0,0l0,0l0,0l0,0l0,0l0,0c0.1,0.1,0.3,0.2,0.4,0.3l0,0c0.6,0.4,1.2,0.8,1.8,1.1l0.8-1.3
		C99.7,352.3,97.5,350.9,95.3,349.3L95.3,349.3z M107.8,357.4l-0.8,1.3c1.2,0.7,2.5,1.4,3.7,2.1l0,0c0,0,0,0,0.1,0l0,0l0,0l0,0l0,0
		l0,0c0,0,0,0,0.1,0l0,0c0,0,0.1,0,0.1,0.1l0,0l0,0l0,0l0,0l0,0l0,0l0,0l0,0l0,0l0,0l0,0l0,0c0.9,0.5,1.7,0.9,2.6,1.4l0.7-1.3
		C112.4,360,110.1,358.6,107.8,357.4L107.8,357.4z M120.9,364.4l-0.7,1.4c0.5,0.2,0.9,0.4,1.4,0.7l0,0c0,0,0,0,0.1,0l0,0
		c0,0,0,0,0.1,0l0,0c0,0,0,0,0.1,0l0,0c0,0,0,0,0.1,0l0,0c0.1,0,0.2,0.1,0.3,0.1l0,0c0,0,0,0,0.1,0l0,0c0,0,0,0,0.1,0l0,0l0,0l0,0
		l0,0l0,0c0,0,0,0,0.1,0l0,0c0.1,0,0.1,0.1,0.2,0.1l0,0c0,0,0,0,0.1,0l0,0c0,0,0,0,0.1,0l0,0c0,0,0,0,0.1,0l0,0c0,0,0,0,0.1,0l0,0
		c0.1,0.1,0.3,0.1,0.4,0.2l0,0c0,0,0,0,0.1,0l0,0c0.7,0.3,1.5,0.7,2.2,1l0,0c0,0,0,0,0.1,0l0,0c0.1,0,0.2,0.1,0.3,0.1l0,0
		c0,0,0,0,0.1,0l0,0l0,0l0,0l0,0l0,0l0,0l0,0l0,0l0,0l0,0l0,0l0,0c0.4,0.2,0.8,0.4,1.3,0.5l0.6-1.4
		C125.7,366.6,123.3,365.5,120.9,364.4L120.9,364.4z M134.6,370.3l-0.5,1.4c0.9,0.4,1.9,0.7,2.8,1.1l0,0c0,0,0,0,0.1,0l0,0
		c0.1,0,0.2,0.1,0.3,0.1l0,0l0,0l0,0l0,0l0,0l0,0l0,0l0,0l0,0l0,0l0,0l0,0l0,0l0,0l0,0l0,0l0,0l0,0l0,0l0,0l0,0l0,0l0,0l0,0l0,0l0,0
		c0,0,0,0,0.1,0l0,0c0.1,0,0.1,0,0.2,0.1l0,0c0,0,0,0,0.1,0l0,0c0,0,0,0,0.1,0l0,0c0,0,0,0,0.1,0l0,0c0,0,0,0,0.1,0l0,0
		c0.1,0,0.2,0.1,0.3,0.1l0,0c0,0,0,0,0.1,0l0,0c0,0,0,0,0.1,0l0,0c0,0,0,0,0.1,0l0,0c0.1,0,0.3,0.1,0.4,0.1l0,0c0,0,0,0,0.1,0l0,0
		c0,0,0,0,0.1,0l0,0c0.1,0,0.2,0.1,0.3,0.1l0,0c0,0,0,0,0.1,0l0,0c0,0,0,0,0.1,0l0,0c0,0,0,0,0.1,0l0,0c0,0,0,0,0.1,0l0,0
		c0.1,0,0.1,0,0.2,0.1l0,0c0,0,0,0,0.1,0l0,0l0,0l0,0l0,0l0,0l0,0l0,0l0,0l0,0l0,0l0,0l0,0l0,0l0,0l0,0l0,0l0,0l0,0l0,0l0,0l0,0l0,0
		l0,0l0,0c0.1,0,0.2,0.1,0.4,0.1l0.5-1.4C139.5,372.1,137,371.1,134.6,370.3L134.6,370.3z M148.7,375.1l-0.4,1.4
		c0.3,0.1,0.6,0.2,1,0.3l0,0l0,0l0,0l0,0l0,0l0,0l0,0l0,0l0,0l0,0l0,0l0,0c0.1,0,0.2,0.1,0.3,0.1l0,0c0.8,0.2,1.7,0.5,2.5,0.7l0,0
		c0,0,0,0,0.1,0l0,0c0,0,0,0,0.1,0l0,0c0,0,0,0,0.1,0l0,0h0.1l0,0c0,0,0,0,0.1,0l0,0l0,0l0,0l0,0l0,0l0,0l0,0l0,0l0,0l0,0
		c0.1,0,0.2,0,0.2,0.1l0,0c0.9,0.2,1.8,0.5,2.7,0.7l0.4-1.5C153.8,376.5,151.2,375.8,148.7,375.1L148.7,375.1z M163.1,378.6
		l-0.3,1.5c0.8,0.2,1.5,0.3,2.3,0.5l0,0c0,0,0,0,0.1,0l0,0c0,0,0,0,0.1,0l0,0l0,0l0,0l0,0l0,0h0.1l0,0l0,0l0,0l0,0l0,0l0,0l0,0l0,0
		l0,0l0,0c0,0,0,0,0.1,0l0,0h0.1l0,0c0,0,0,0,0.1,0l0,0c0,0,0,0,0.1,0l0,0c0,0,0,0,0.1,0l0,0c0,0,0,0,0.1,0l0,0c0.1,0,0.2,0,0.4,0.1
		l0,0c0.5,0.1,0.9,0.2,1.4,0.3l0,0c0.1,0,0.3,0,0.4,0.1l0,0c0,0,0,0,0.1,0l0,0c0,0,0,0,0.1,0l0,0c0.1,0,0.2,0,0.3,0l0,0
		c0,0,0,0,0.1,0l0,0l0,0l0,0l0,0l0,0l0,0l0,0c0,0,0,0,0.1,0l0,0c0,0,0,0,0.1,0l0,0l0,0l0,0l0,0l0,0l0,0l0,0l0,0l0,0l0,0
		c0.3,0.1,0.7,0.1,1,0.2l0.2-1.5C168.3,379.6,165.7,379.1,163.1,378.6L163.1,378.6z M177.8,381.1l-0.2,1.5c1.1,0.1,2.1,0.2,3.2,0.4
		l0,0c0,0,0,0,0.1,0l0,0c0,0,0,0,0.1,0l0,0c0,0,0,0,0.1,0l0,0h0.1l0,0l0,0l0,0l0,0l0,0l0,0l0,0l0,0l0,0l0,0l0,0l0,0l0,0l0,0l0,0l0,0
		l0,0l0,0l0,0l0,0c0.1,0,0.2,0,0.2,0l0,0c0,0,0,0,0.1,0l0,0c0,0,0,0,0.1,0l0,0c1.1,0.1,2.2,0.2,3.4,0.3l0.1-1.5
		C183,381.6,180.4,381.4,177.8,381.1L177.8,381.1z M192.6,382.1l-0.1,1.5c0.4,0,0.8,0,1.2,0l0,0c0,0,0,0,0.1,0l0,0c0,0,0,0,0.1,0
		l0,0c0,0,0,0,0.1,0l0,0l0,0l0,0l0,0l0,0l0,0c0,0,0,0,0.1,0l0,0l0,0l0,0l0,0l0,0h0.1l0,0l0,0l0,0c0.1,0,0.2,0,0.2,0l0,0
		c0.7,0,1.5,0,2.2,0l0,0c0,0,0,0,0.1,0l0,0c0.1,0,0.2,0,0.2,0l0,0c0,0,0,0,0.1,0l0,0c0.1,0,0.1,0,0.2,0l0,0c0,0,0,0,0.1,0l0,0
		c0,0,0,0,0.1,0l0,0c0.1,0,0.1,0,0.2,0l0,0l0,0l0,0l0,0l0,0h0.1l0,0l0,0l0,0l0,0l0,0l0,0l0,0c0,0,0,0,0.1,0l0,0l0,0l0,0l0,0l0,0l0,0
		c0,0,0,0,0.1,0l0,0l0,0l0,0l0,0l0,0l0,0l0,0c0,0,0,0,0.1,0l0,0l0,0l0,0l0,0l0,0c0,0,0,0,0.1,0l0,0c0,0,0,0,0.1,0l0,0l0,0l0,0l0,0
		l0,0c0,0,0,0,0.1,0l0,0c0,0,0,0,0.1,0l0,0l0,0l0,0c0,0,0,0,0.1,0l0,0c0,0,0,0,0.1,0l0,0l0,0l0,0l0,0l0,0c0,0,0,0,0.1,0l0,0l0,0
		c0,0,0,0,0.1,0l0,0c0,0,0,0,0.1,0l0,0c0,0,0,0,0.1,0l0,0c0,0,0,0,0.1,0l0,0l0,0c0.1,0,0.1,0,0.2,0v-1.5h-0.5
		C197.5,382.4,195.1,382.3,192.6,382.1L192.6,382.1z M215.4,381.8c-2.6,0.2-5.3,0.4-7.9,0.5l0.1,1.5c2.5-0.1,4.9-0.2,7.3-0.4l0,0
		c0,0,0,0,0.1,0l0,0c0.1,0,0.2,0,0.3,0l0,0c0,0,0,0,0.1,0l0,0c0,0,0,0,0.1,0l0,0c0,0,0,0,0.1,0l0,0c0,0,0,0,0.1,0L215.4,381.8
		L215.4,381.8z M230.2,379.9c-2.6,0.4-5.2,0.8-7.9,1.1l0.2,1.5c0.4,0,0.7-0.1,1.1-0.1l0,0l0,0l0,0l0,0l0,0l0,0l0,0l0,0
		c2.2-0.3,4.4-0.6,6.6-1L230.2,379.9L230.2,379.9z M244.7,376.9c-2.6,0.6-5.2,1.2-7.7,1.8l0.3,1.5c1.2-0.2,2.4-0.5,3.5-0.8l0,0
		c0.1,0,0.2-0.1,0.3-0.1l0,0c0,0,0,0,0.1,0l0,0c0,0,0,0,0.1,0l0,0c0,0,0,0,0.1,0l0,0c0,0,0,0,0.1,0l0,0c0,0,0,0,0.1,0l0,0
		c0,0,0,0,0.1,0l0,0l0,0l0,0l0,0l0,0l0,0l0,0l0,0l0,0l0,0l0,0c0,0,0,0,0.1,0l0,0l0,0l0,0l0,0l0,0l0,0l0,0l0,0l0,0l0,0l0,0l0,0l0,0
		l0,0h0.1l0,0l0,0l0,0l0,0l0,0l0,0l0,0l0,0l0,0l0,0l0,0l0,0l0,0h0.1l0,0l0,0l0,0l0,0l0,0l0,0l0,0l0,0l0,0l0,0l0,0l0,0l0,0h0.1l0,0
		l0,0l0,0l0,0l0,0l0,0l0,0l0,0l0,0l0,0l0,0l0,0c0,0,0,0,0.1,0l0,0c0,0,0,0,0.1,0l0,0c0,0,0,0,0.1,0l0,0c0,0,0,0,0.1,0l0,0
		c0,0,0,0,0.1,0l0,0c0,0,0,0,0.1,0l0,0c0.3-0.1,0.5-0.1,0.8-0.2L244.7,376.9L244.7,376.9z M259,372.6c-2.5,0.9-5,1.7-7.6,2.4
		l0.4,1.4c0.3-0.1,0.6-0.2,1-0.3l0,0c0.2,0,0.3-0.1,0.5-0.1l0,0c0,0,0,0,0.1,0l0,0c0,0,0,0,0.1,0l0,0c0.1,0,0.2-0.1,0.4-0.1l0,0
		c0,0,0,0,0.1,0l0,0c0,0,0,0,0.1,0l0,0c0,0,0,0,0.1,0l0,0c0,0,0,0,0.1,0l0,0c0.1,0,0.2-0.1,0.3-0.1l0,0c0,0,0,0,0.1,0l0,0
		c0,0,0,0,0.1,0l0,0c0,0,0,0,0.1,0l0,0c0.1,0,0.2-0.1,0.3-0.1l0,0c0,0,0,0,0.1,0l0,0l0,0l0,0l0,0l0,0l0,0l0,0c0,0,0,0,0.1,0l0,0
		c0.1,0,0.2,0,0.2-0.1l0,0l0,0l0,0l0,0l0,0l0,0l0,0l0,0l0,0l0,0l0,0h0.1l0,0l0,0l0,0l0,0l0,0l0,0l0,0l0,0l0,0l0,0l0,0l0,0l0,0
		c0,0,0,0,0.1,0l0,0l0,0l0,0l0,0l0,0l0,0l0,0l0,0l0,0l0,0l0,0l0,0l0,0l0,0c0,0,0,0,0.1,0l0,0c0,0,0,0,0.1,0l0,0l0,0l0,0l0,0l0,0l0,0
		l0,0l0,0l0,0l0,0l0,0c0.1,0,0.1,0,0.2-0.1l0,0c0,0,0,0,0.1,0l0,0l0,0l0,0c0,0,0,0,0.1,0l0,0c0,0,0,0,0.1,0l0,0c0,0,0,0,0.1,0l0,0
		c0.1,0,0.1,0,0.2-0.1l0,0c0,0,0,0,0.1,0l0,0c0,0,0,0,0.1,0l0,0c0,0,0,0,0.1,0l0,0c0,0,0,0,0.1,0l0,0c0.1,0,0.2-0.1,0.3-0.1l0,0
		c0,0,0,0,0.1,0l0,0c0,0,0,0,0.1,0l0,0c0,0,0,0,0.1,0l0,0c0,0,0,0,0.1,0l0,0c0.1,0,0.2-0.1,0.3-0.1l0,0c0,0,0,0,0.1,0l0,0
		c0,0,0,0,0.1,0l0,0c0.1,0,0.3-0.1,0.4-0.1L259,372.6L259,372.6z M272.8,367.3c-2.4,1.1-4.9,2.1-7.3,3l0.5,1.4
		c0.2-0.1,0.3-0.1,0.5-0.2l0,0c0.1-0.1,0.3-0.1,0.4-0.2l0,0l0,0l0,0l0,0l0,0l0,0l0,0l0,0l0,0l0,0l0,0c0,0,0.1,0,0.1-0.1l0,0l0,0l0,0
		l0,0l0,0l0,0l0,0l0,0l0,0l0,0l0,0l0,0c0,0,0,0,0.1,0l0,0c0,0,0.1,0,0.1-0.1l0,0c0,0,0,0,0.1,0l0,0c0,0,0,0,0.1,0l0,0c0,0,0,0,0.1,0
		l0,0c0,0,0,0,0.1,0l0,0c0,0,0,0,0.1,0l0,0c1.7-0.7,3.5-1.4,5.2-2.2L272.8,367.3L272.8,367.3z M286.2,360.8
		c-2.3,1.2-4.7,2.5-7.1,3.6l0.7,1.4c1-0.5,2-1,3-1.5l0,0c0.1-0.1,0.3-0.1,0.4-0.2l0,0c0,0,0,0,0.1,0l0,0c0,0,0,0,0.1,0l0,0
		c0,0,0,0,0.1,0l0,0c0.1-0.1,0.2-0.1,0.4-0.2l0,0c0,0,0,0,0.1,0l0,0c0,0,0,0,0.1,0l0,0c1-0.5,2-1,3-1.6L286.2,360.8L286.2,360.8z
		 M299,353.1c-2.2,1.4-4.5,2.8-6.8,4.2l0.8,1.3c0.7-0.4,1.5-0.9,2.2-1.3l0,0l0,0l0,0l0,0l0,0l0,0l0,0l0,0l0,0l0,0l0,0l0,0l0,0l0,0
		c0,0,0,0,0.1,0l0,0c0,0,0,0,0.1,0l0,0l0,0l0,0l0,0l0,0l0,0l0,0l0,0l0,0l0,0l0,0c0,0,0,0,0.1,0l0,0c1.3-0.8,2.5-1.6,3.8-2.4
		L299,353.1L299,353.1z M311.2,344.6c-2.1,1.6-4.2,3.2-6.4,4.7l0.9,1.2c1.1-0.8,2.2-1.5,3.2-2.3l0,0c0,0,0,0,0.1,0l0,0
		c0,0,0,0,0.1,0l0,0c0,0,0,0,0.1,0l0,0c0.1,0,0.1-0.1,0.2-0.1l0,0l0,0l0,0l0,0l0,0l0,0l0,0l0,0l0,0l0,0l0,0l0,0l0,0l0,0
		c0.1-0.1,0.2-0.2,0.3-0.3l0,0c0.7-0.5,1.5-1.1,2.2-1.7L311.2,344.6L311.2,344.6z M322.6,335c-1.9,1.8-4,3.5-6,5.2l1,1.2
		c0.9-0.8,1.8-1.6,2.8-2.3l0,0c0.1-0.1,0.2-0.2,0.3-0.3l0,0l0,0l0,0l0,0l0,0l0,0l0,0l0,0l0,0l0,0l0,0l0,0l0,0l0,0
		c0.1,0,0.1-0.1,0.2-0.1l0,0l0,0l0,0l0,0l0,0l0,0l0,0l0,0l0,0c0.8-0.7,1.5-1.3,2.3-2L322.6,335L322.6,335z M333.2,324.6
		c-1.8,1.9-3.7,3.8-5.5,5.7l1.1,1.1c1.4-1.4,2.8-2.8,4.1-4.2l0,0l0,0l0,0l0,0l0,0l0,0l0,0l0,0l0,0l0,0l0,0l0,0l0,0l0,0l0.1-0.1l0,0
		l0,0l0,0l0,0l0,0c0.3-0.3,0.6-0.7,0.9-1L333.2,324.6L333.2,324.6z M342.9,313.3c-1.6,2.1-3.3,4.1-5.1,6.1l1.1,1
		c0.5-0.6,1-1.2,1.5-1.8l0,0l0,0l0,0l0,0l0,0l0,0l0,0l0,0l0,0l0,0l0,0l0,0l0,0l0,0c0,0,0,0,0-0.1l0,0l0,0l0,0l0,0l0,0l0,0l0,0l0,0
		l0,0l0,0l0,0c1-1.2,2-2.5,3-3.7L342.9,313.3L342.9,313.3z M351.6,301.3c-1.5,2.2-3,4.4-4.6,6.5l1.2,0.9l0,0l0,0l0,0l0,0l0,0l0,0
		l0,0l0,0l0,0l0,0l0,0c0-0.1,0.1-0.1,0.1-0.2l0,0l0,0l0,0l0,0l0,0l0,0l0,0l0,0l0,0l0,0l0,0c0.1-0.1,0.1-0.2,0.2-0.3l0,0l0,0l0,0l0,0
		l0,0l0,0l0,0l0,0l0,0c0.1-0.1,0.2-0.2,0.3-0.3l0,0l0,0l0,0l0,0l0,0l0,0l0,0l0,0l0,0l0,0l0,0c0-0.1,0.1-0.1,0.1-0.2l0,0l0,0l0,0l0,0
		l0,0l0,0l0,0l0,0l0,0l0,0l0,0l0,0l0,0l0,0l0,0l0,0c0,0,0,0,0-0.1l0,0l0,0l0,0l0,0l0,0l0,0l0,0l0,0l0,0l0,0l0,0c0,0,0,0,0-0.1l0,0
		c0.9-1.2,1.7-2.5,2.6-3.7L351.6,301.3L351.6,301.3z M359.4,288.6c-1.3,2.3-2.6,4.6-4,6.8l1.3,0.8c0.1-0.1,0.2-0.3,0.3-0.4l0,0l0,0
		l0,0l0,0l0,0l0,0l0,0l0,0l0,0l0,0l0,0l0,0l0,0l0,0c0,0,0,0,0-0.1l0,0c0,0,0,0,0-0.1l0,0l0,0l0,0l0,0l0,0l0,0l0,0l0,0l0,0
		c0,0,0,0,0-0.1l0,0c1.1-1.9,2.2-3.8,3.3-5.7L359.4,288.6L359.4,288.6z M366.1,275.3c-1.1,2.4-2.2,4.8-3.4,7.2l1.3,0.7
		c0.5-1.1,1.1-2.2,1.6-3.3l0,0c0,0,0,0,0-0.1l0,0c0,0,0,0,0-0.1l0,0c0.6-1.3,1.2-2.5,1.8-3.8L366.1,275.3L366.1,275.3z M371.7,261.6
		c-0.9,2.5-1.8,5-2.8,7.4l1.4,0.6c0.3-0.7,0.6-1.4,0.9-2.1l0,0c0,0,0,0,0-0.1l0,0c0,0,0,0,0-0.1l0,0c0,0,0,0,0-0.1l0,0
		c0-0.1,0.1-0.1,0.1-0.2l0,0l0,0l0,0l0,0l0,0l0,0l0,0l0,0l0,0l0,0l0,0l0,0c0-0.1,0-0.1,0.1-0.2l0,0c0,0,0,0,0-0.1l0,0c0,0,0,0,0-0.1
		l0,0c0,0,0,0,0-0.1l0,0c0.5-1.4,1.1-2.8,1.6-4.2L371.7,261.6L371.7,261.6z M376.1,247.4c-0.7,2.5-1.4,5.1-2.2,7.6l1.4,0.5
		c0.8-2.5,1.5-5.1,2.2-7.7L376.1,247.4L376.1,247.4z M379.4,232.9c-0.5,2.6-1,5.2-1.6,7.8l1.5,0.3c0-0.1,0-0.2,0.1-0.3l0,0l0,0l0,0
		l0,0l0,0l0,0l0,0l0,0c0-0.1,0-0.2,0.1-0.3l0,0c0.4-1.8,0.8-3.5,1.1-5.3l0,0c0,0,0,0,0-0.1l0,0c0,0,0,0,0-0.1l0,0c0,0,0,0,0-0.1l0,0
		v-0.1l0,0l0,0l0,0l0,0l0,0l0,0l0,0l0,0c0,0,0,0,0-0.1l0,0c0.1-0.3,0.1-0.7,0.2-1L379.4,232.9L379.4,232.9z M381.4,218.1
		c-0.3,2.6-0.6,5.3-0.9,7.9l1.5,0.2c0.1-0.4,0.1-0.8,0.2-1.2l0,0c0,0,0,0,0-0.1l0,0c0,0,0,0,0-0.1l0,0c0-0.1,0-0.2,0-0.3l0,0
		c0,0,0,0,0-0.1l0,0c0,0,0,0,0-0.1l0,0c0,0,0,0,0-0.1l0,0c0-0.1,0-0.2,0-0.3l0,0c0,0,0,0,0-0.1l0,0c0,0,0,0,0-0.1l0,0
		c0-0.1,0-0.2,0-0.3l0,0c0,0,0,0,0-0.1l0,0c0,0,0,0,0-0.1l0,0c0.1-1,0.2-2,0.4-3l0,0c0,0,0,0,0-0.1l0,0c0,0,0,0,0-0.1l0,0
		c0-0.1,0-0.1,0-0.2l0,0l0,0l0,0l0,0l0,0l0,0l0,0l0,0c0.1-0.5,0.1-1.1,0.2-1.6L381.4,218.1L381.4,218.1z M382.3,203.3
		c0,2.6-0.1,5.3-0.3,7.9l1.5,0.1c0-0.5,0.1-1.1,0.1-1.6l0,0c0,0,0,0,0-0.1l0,0c0,0,0,0,0-0.1l0,0v-0.1l0,0c0,0,0,0,0-0.1l0,0
		c0,0,0,0,0-0.1l0,0c0,0,0,0,0-0.1l0,0c0,0,0,0,0-0.1l0,0c0,0,0,0,0-0.1l0,0c0,0,0,0,0-0.1l0,0l0,0l0,0l0,0l0,0l0,0l0,0l0,0v-0.1
		l0,0l0,0l0,0l0,0l0,0l0,0l0,0c0,0,0,0,0-0.1l0,0c0-0.1,0-0.2,0-0.2l0,0c0,0,0,0,0-0.1l0,0c0,0,0,0,0-0.1l0,0
		c0.1-1.6,0.1-3.1,0.1-4.7L382.3,203.3L382.3,203.3z M383.4,188.3l-1.5,0.1c0.2,2.6,0.3,5.3,0.3,7.9h1.5
		C383.7,193.6,383.6,190.9,383.4,188.3L383.4,188.3z M381.9,173.4l-1.5,0.2c0.4,2.6,0.7,5.3,1,7.9l1.5-0.2c-0.2-1.9-0.4-3.7-0.6-5.5
		l0,0c0,0,0,0,0-0.1l0,0c0,0,0,0,0-0.1l0,0c0-0.1,0-0.2,0-0.2l0,0l0,0l0,0l0,0l0,0l0,0l0,0l0,0l0,0l0,0c0,0,0,0,0-0.1l0,0l0,0l0,0
		l0,0l0,0c0,0,0,0,0-0.1l0,0c0,0,0,0,0-0.1l0,0C382,174.3,381.9,173.8,381.9,173.4L381.9,173.4z M379.1,158.6l-1.5,0.3
		c0.6,2.6,1.1,5.2,1.6,7.8l1.5-0.3c-0.5-2.6-1-5.1-1.6-7.7l0,0C379.1,158.8,379.1,158.8,379.1,158.6
		C379.1,158.7,379.1,158.7,379.1,158.6C379.1,158.7,379.1,158.7,379.1,158.6C379.1,158.7,379.1,158.7,379.1,158.6
		C379.1,158.7,379.1,158.7,379.1,158.6L379.1,158.6z M375.1,144.2l-1.4,0.5c0.8,2.5,1.6,5.1,2.2,7.6l1.4-0.4
		c-0.2-0.6-0.3-1.1-0.5-1.7l0,0c0,0,0,0,0-0.1l0,0c0,0,0,0,0-0.1l0,0c0,0,0,0,0-0.1l0,0c0,0,0,0,0-0.1l0,0c0,0,0,0,0-0.1l0,0l0,0
		l0,0l0,0l0,0l0,0l0,0l0,0c0,0,0,0,0-0.1l0,0c-0.4-1.5-0.9-3-1.3-4.4l0,0l0,0l0,0l0,0l0,0l0,0l0,0l0,0l0,0c0-0.1,0-0.1,0-0.2l0,0
		l0,0l0,0l0,0l0,0l0,0l0,0l0,0l0,0l0,0l0,0l0,0l0,0l0,0C375.2,144.3,375.2,144.3,375.1,144.2L375.1,144.2L375.1,144.2L375.1,144.2z
		 M370,130.1l-1.4,0.6c1,2.4,2,4.9,2.9,7.4l1.4-0.5c-0.6-1.7-1.3-3.4-1.9-5.1l0,0c0,0,0,0,0-0.1l0,0c0,0,0,0,0-0.1l0,0
		c0,0,0,0,0-0.1l0,0c0-0.1-0.1-0.2-0.1-0.2l0,0l0,0l0,0l0,0l0,0l0,0l0,0l0,0l0,0l0,0l0,0l0,0l0,0c0-0.1,0-0.1-0.1-0.2l0,0l0,0l0,0
		l0,0l0,0l0,0l0,0l0,0l0,0l0,0l0,0l0,0l0,0c0-0.1,0-0.1-0.1-0.2l0,0l0,0l0,0l0,0l0,0l0,0l0,0l0,0l0,0l0,0l0,0c0-0.1-0.1-0.2-0.1-0.3
		l0,0v-0.1l0,0C370,130.2,370,130.1,370,130.1L370,130.1z M363.7,116.5l-1.3,0.7c1.2,2.3,2.4,4.7,3.5,7.1l1.4-0.6
		C366.1,121.3,364.9,118.9,363.7,116.5L363.7,116.5z M356.3,103.4l-1.3,0.8c1.4,2.2,2.7,4.5,4,6.8l1.3-0.7c-0.4-0.8-0.9-1.6-1.3-2.3
		l0,0c0,0,0,0,0-0.1l0,0l0,0l0,0l0,0l0,0l0,0l0,0l0,0l0,0c0,0,0-0.1-0.1-0.1l0,0c0,0,0,0,0-0.1l0,0l0,0l0,0l0,0l0,0l0,0l0,0l0,0l0,0
		l0,0l0,0l0,0l0,0l0,0l0,0c0,0,0,0,0-0.1l0,0l0,0l0,0l0,0l0,0l0,0l0,0l0,0l0,0l0,0l0,0l0,0l0,0l0,0l0,0l0,0l-0.1-0.1l0,0l0,0l0,0
		l0,0l0,0l0,0l0,0l0,0l0,0l0,0l0,0l0,0l0,0l0,0l0,0c-0.1-0.1-0.1-0.2-0.2-0.3l0,0c0,0,0,0,0-0.1l0,0l0,0l0,0l0,0l0,0l0,0l0,0
		c-0.1-0.1-0.1-0.2-0.2-0.4l0,0l0,0l0,0l0,0l0,0C357,104.5,356.7,104,356.3,103.4L356.3,103.4z M347.9,91l-1.2,0.9
		c1.6,2.1,3.1,4.3,4.6,6.5l1.2-0.8c-1-1.5-2-3-3.1-4.4l0,0c-0.1-0.1-0.1-0.2-0.2-0.2l0,0l0,0l0,0l0,0l0,0l0,0l0,0l0,0l0,0l0,0l0,0
		l0,0C348.7,92.1,348.3,91.5,347.9,91L347.9,91z M338.5,79.3l-1.1,1c1.7,2,3.4,4,5.1,6.1l1.2-0.9C342,83.4,340.3,81.3,338.5,79.3
		L338.5,79.3z M328.2,68.4l-1,1.1c1.9,1.8,3.8,3.7,5.6,5.7l1.1-1c-0.9-0.9-1.8-1.9-2.7-2.8l0,0l0,0l0,0l0,0l0,0l0,0l0,0l0,0l0,0l0,0
		l0,0l-0.1-0.1l0,0l0,0l0,0l0,0l0,0l0,0l0,0l0,0l0,0l0,0l0,0l0,0l0,0l0,0C329.7,69.9,329,69.2,328.2,68.4L328.2,68.4z M317.1,58.4
		l-1,1.2c2,1.7,4,3.4,6,5.2l1-1.1C321.1,61.9,319.1,60.1,317.1,58.4L317.1,58.4z M305.1,49.3l-0.9,1.2c2.2,1.5,4.3,3.1,6.4,4.7
		l0.9-1.2c-0.7-0.6-1.5-1.1-2.2-1.7l0,0c0,0,0,0-0.1,0l0,0c-0.1-0.1-0.1-0.1-0.2-0.2l0,0l0,0l0,0l0,0l0,0l0,0l0,0l0,0l0,0l0,0l0,0
		l0,0l0,0l0,0C307.5,51,306.3,50.2,305.1,49.3L305.1,49.3z M292.5,41.3l-0.8,1.3c2.3,1.3,4.5,2.7,6.8,4.1l0.8-1.3
		c-2.2-1.4-4.3-2.7-6.5-4l0,0l0,0l0,0l0,0l0,0l0,0C292.6,41.3,292.6,41.3,292.5,41.3C292.6,41.3,292.6,41.3,292.5,41.3L292.5,41.3
		L292.5,41.3L292.5,41.3L292.5,41.3z M279.2,34.2l-0.6,1.4c2.4,1.1,4.8,2.3,7.1,3.6l0.7-1.3c-0.2-0.1-0.5-0.3-0.7-0.4l0,0
		c0,0,0,0-0.1,0l0,0c0,0,0,0-0.1,0l0,0c-0.1-0.1-0.2-0.1-0.4-0.2l0,0c0,0,0,0-0.1,0l0,0c0,0,0,0-0.1,0l0,0c0,0,0,0-0.1,0l0,0
		c0,0,0,0-0.1,0l0,0c-0.1,0-0.2-0.1-0.2-0.1l0,0c0,0,0,0-0.1,0l0,0c0,0,0,0-0.1,0l0,0l0,0l0,0l0,0l0,0c0,0,0,0-0.1,0l0,0
		c0,0,0,0-0.1,0l0,0c-0.1,0-0.1-0.1-0.2-0.1l0,0c0,0,0,0-0.1,0l0,0l0,0l0,0l0,0l0,0l0,0l0,0c0,0,0,0-0.1,0l0,0
		c-0.1-0.1-0.2-0.1-0.3-0.2l0,0c0,0,0,0-0.1,0l0,0C282,35.6,280.7,34.9,279.2,34.2L279.2,34.2z M265.5,28.3l-0.5,1.4
		c2.5,0.9,4.9,1.9,7.4,3l0.6-1.4c-0.3-0.1-0.6-0.3-0.9-0.4l0,0c0,0,0,0-0.1,0l0,0c0,0,0,0-0.1,0l0,0c-0.1,0-0.2-0.1-0.3-0.1l0,0l0,0
		l0,0l0,0l0,0l0,0l0,0l0,0l0,0l0,0l0,0c0,0,0,0-0.1,0l0,0l0,0l0,0l0,0l0,0l0,0l0,0l0,0l0,0l0,0l0,0l0,0l0,0l0,0l0,0l0,0
		c0,0,0,0-0.1,0l0,0l0,0l0,0l0,0l0,0l0,0l0,0l0,0l0,0l0,0l0,0l0,0l0,0l0,0l0,0l0,0c0,0,0,0-0.1,0l0,0l0,0l0,0l0,0l0,0l0,0l0,0l0,0
		l0,0l0,0l0,0l0,0l0,0c-0.1,0-0.1-0.1-0.2-0.1l0,0l0,0l0,0l0,0l0,0l0,0l0,0l0,0l0,0l0,0l0,0C267.9,29.3,266.7,28.8,265.5,28.3
		L265.5,28.3z M251.2,23.6l-0.4,1.4c2.5,0.7,5.1,1.5,7.6,2.4l0.5-1.4c-0.2-0.1-0.5-0.2-0.7-0.2l0,0c0,0,0,0-0.1,0l0,0c0,0,0,0-0.1,0
		l0,0c0,0,0,0-0.1,0l0,0c0,0,0,0-0.1,0l0,0h-0.1l0,0l0,0l0,0l0,0l0,0l0,0l0,0l0,0l0,0l0,0l0,0l0,0c-0.1,0-0.1,0-0.2-0.1l0,0l0,0l0,0
		l0,0l0,0l0,0l0,0C255.1,24.7,253.2,24.1,251.2,23.6L251.2,23.6z M236.7,20l-0.3,1.5c2.6,0.5,5.2,1.1,7.7,1.7l0.4-1.5c0,0,0,0-0.1,0
		l0,0l0,0l0,0l0,0l0,0l0,0l0,0l0,0c0,0,0,0-0.1,0l0,0C241.7,21,239.2,20.5,236.7,20L236.7,20z M221.9,17.6l-0.2,1.5
		c2.6,0.3,5.3,0.7,7.9,1.1l0.2-1.5C227.2,18.3,224.5,17.9,221.9,17.6L221.9,17.6z M206.9,16.4l-0.1,1.5c2.6,0.1,5.3,0.3,7.9,0.5
		l0.1-1.5c-0.5,0-1-0.1-1.5-0.1l0,0l0,0l0,0l0,0l0,0l0,0l0,0l0,0l0,0l0,0c0,0,0,0-0.1,0l0,0l0,0l0,0l0,0l0,0c0,0,0,0-0.1,0l0,0
		c0,0,0,0-0.1,0l0,0c-0.1,0-0.1,0-0.2,0l0,0c0,0,0,0-0.1,0l0,0c-0.5,0-1.1-0.1-1.6-0.1l0,0c0,0,0,0-0.1,0l0,0c0,0,0,0-0.1,0l0,0
		c-0.1,0-0.1,0-0.2,0l0,0c0,0,0,0-0.1,0l0,0l0,0l0,0l0,0l0,0c0,0,0,0-0.1,0l0,0c0,0,0,0-0.1,0l0,0l0,0l0,0l0,0l0,0l0,0l0,0l0,0
		c-0.1,0-0.2,0-0.2,0l0,0c0,0,0,0-0.1,0l0,0c0,0,0,0-0.1,0l0,0C208.6,16.5,207.8,16.5,206.9,16.4L206.9,16.4z"/>
</g>
<g id="button">
	
		<linearGradient id="SVGID_1_" gradientUnits="userSpaceOnUse" x1="372.8" y1="590" x2="27.2" y2="590" gradientTransform="matrix(1 0 0 1 0 -389.5)">
		<stop  offset="0" style="stop-color:#006DCC"/>
		<stop  offset="1" style="stop-color:#007BE6"/>
	</linearGradient>
	<circle class="st1" cx="200" cy="200.5" r="172.8"/>
</g>
<g id="icon">
	<g id="Pause">
		<path class="st0" d="M183.6,110.3h-20.4c-4.5,0-8.2,3.7-8.2,8.2l0,0v89.8c0,4.5,3.7,8.2,8.2,8.2l0,0h20.4c4.5,0,8.2-3.6,8.2-8.1
			c0,0,0,0,0-0.1v-89.8C191.9,113.9,188.2,110.2,183.6,110.3C183.7,110.2,183.7,110.2,183.6,110.3z M236.7,110.3h-20.4
			c-4.5,0-8.2,3.7-8.2,8.2l0,0v89.8c0,4.5,3.7,8.2,8.2,8.2l0,0h20.4c4.5,0,8.2-3.7,8.2-8.2l0,0v-89.8
			C244.9,113.9,241.2,110.3,236.7,110.3L236.7,110.3z"/>
	</g>
	<g id="Pause-2">
		<path class="st2" d="M183.6,110.3h-20.4c-4.5,0-8.2,3.7-8.2,8.2l0,0v89.8c0,4.5,3.7,8.2,8.2,8.2l0,0h20.4c4.5,0,8.2-3.6,8.2-8.1
			c0,0,0,0,0-0.1v-89.8C191.9,113.9,188.2,110.2,183.6,110.3C183.7,110.2,183.7,110.2,183.6,110.3z M236.7,110.3h-20.4
			c-4.5,0-8.2,3.7-8.2,8.2l0,0v89.8c0,4.5,3.7,8.2,8.2,8.2l0,0h20.4c4.5,0,8.2-3.7,8.2-8.2l0,0v-89.8
			C244.9,113.9,241.2,110.3,236.7,110.3L236.7,110.3z"/>
	</g>
</g>
<g id="label">
	<g>
		<path class="st2" d="M147,252.4c4.1,0,7.3,1,9.6,3.1c4.5,4.3,4.7,11.5,0.4,16c-0.1,0.1-0.3,0.3-0.4,0.4c-2.4,2.1-5.6,3.1-9.6,3.1
			h-6v7.9l3.8,0.7v4.3h-14.7v-4.3l3.8-0.7v-25.5l-3.8-0.7v-4.3H147L147,252.4z M141,269.5h6c1.7,0.1,3.3-0.5,4.5-1.6
			c1-1.1,1.6-2.6,1.5-4.1c0.1-1.6-0.5-3.1-1.5-4.2c-1.2-1.2-2.8-1.8-4.5-1.7h-6V269.5z"/>
		<path class="st2" d="M179.2,287.9c-0.2-0.4-0.4-0.9-0.5-1.4s-0.3-0.9-0.3-1.4c-0.9,1-1.9,1.8-3.1,2.4c-1.3,0.6-2.7,0.9-4.2,0.9
			c-2.3,0.1-4.5-0.6-6.2-2.1c-1.6-1.5-2.4-3.6-2.3-5.8c-0.1-2.3,1.1-4.5,3-5.7c2-1.4,4.9-2,8.7-2h3.6v-2.6c0.1-1.1-0.4-2.2-1.2-3
			c-0.9-0.8-2.1-1.1-3.3-1c-0.7,0-1.5,0.1-2.2,0.3c-0.5,0.1-1.1,0.4-1.5,0.7l-0.5,2.8h-5.4v-5.9c1.4-0.9,2.9-1.7,4.5-2.2
			c1.8-0.6,3.6-0.9,5.5-0.9c2.9-0.1,5.7,0.7,8,2.4c2.1,1.7,3.2,4.2,3.1,6.9v10.9c0,0.4,0,0.8,0,1.1c0,0.3,0,0.7,0.1,1l2.2,0.3v4.3
			L179.2,287.9z M173,283.1c1,0,2-0.2,2.9-0.7c0.8-0.4,1.5-1,2.1-1.8v-4h-3.6c-1.2-0.1-2.5,0.3-3.4,1.1c-0.7,0.6-1.2,1.6-1.2,2.6
			c0,0.8,0.3,1.6,0.9,2.1C171.3,282.9,172.1,283.2,173,283.1L173,283.1z"/>
		<path class="st2" d="M207.5,284.6c-1.6,2.5-4.4,3.9-7.4,3.9c-2.5,0.1-4.9-0.9-6.5-2.7c-1.6-1.8-2.4-4.5-2.4-8.3v-11l-2.9-0.7v-4.3
			h10v16c-0.1,1.5,0.2,2.9,1,4.1c0.7,0.9,1.8,1.3,2.9,1.3c1,0,2-0.2,2.9-0.5c0.8-0.4,1.5-0.9,2-1.6v-14.3l-3.1-0.7v-4.3h10.3v21.4
			l3.2,0.7v4.3H208L207.5,284.6z"/>
		<path class="st2" d="M241.8,270.6H237l-0.8-3.3c-0.6-0.4-1.2-0.8-1.8-1c-0.8-0.3-1.6-0.4-2.5-0.4c-1.1-0.1-2.1,0.2-3,0.8
			c-0.7,0.5-1.1,1.3-1.1,2.1c0,0.8,0.4,1.5,1.1,2c1.3,0.7,2.7,1.2,4.2,1.4c2.6,0.4,5.1,1.4,7.3,2.9c1.6,1.3,2.5,3.2,2.4,5.2
			c0,2.3-1.1,4.5-3.1,5.8c-2.4,1.6-5.2,2.4-8.1,2.3c-1.9,0-3.8-0.3-5.6-0.9c-1.7-0.6-3.2-1.4-4.5-2.5l-0.1-5.9h5l1,3.4
			c0.5,0.4,1.1,0.7,1.7,0.8c0.8,0.2,1.5,0.3,2.3,0.3c1.2,0.1,2.3-0.2,3.3-0.8c1.1-0.7,1.5-2.3,0.8-3.4c-0.2-0.3-0.5-0.6-0.8-0.8
			c-1.3-0.8-2.7-1.3-4.2-1.5c-2.5-0.4-4.9-1.4-7-2.8c-1.6-1.2-2.5-3.1-2.4-5.1c0-2.2,1-4.3,2.7-5.7c1.8-1.6,4.4-2.4,7.8-2.4
			c2,0,3.9,0.3,5.8,0.8c1.6,0.4,3,1.1,4.3,2.1L241.8,270.6z"/>
		<path class="st2" d="M258.6,288.4c-3.4,0.2-6.8-1.2-9.1-3.7c-2.3-2.5-3.5-5.9-3.4-9.3v-1c-0.1-3.5,1-7,3.2-9.7
			c2.2-2.5,5.4-3.9,8.7-3.8c3.6,0,6.3,1.1,8.3,3.2s3,5.1,3,8.7v3.9h-15.8l-0.1,0.1c0.1,1.6,0.7,3.1,1.8,4.3c1.1,1.2,2.6,1.8,4.2,1.7
			c1.3,0,2.7-0.1,3.9-0.5c1.2-0.4,2.3-0.9,3.4-1.5l1.9,4.4c-1.3,1-2.7,1.7-4.2,2.2C262.5,288.1,260.6,288.4,258.6,288.4z M258,266.5
			c-1.2,0-2.4,0.5-3.1,1.5c-0.8,1.2-1.3,2.6-1.4,4l0.1,0.1h8.7v-0.6c0.1-1.3-0.3-2.6-1.1-3.6S259.2,266.4,258,266.5L258,266.5z"/>
	</g>
</g>
</svg>
