<?xml version="1.0" encoding="utf-8"?>
<!-- Generator: Adobe Illustrator 23.1.0, SVG Export Plug-In . SVG Version: 6.00 Build 0)  -->
<svg version="1.1" id="Layer_1" xmlns="http://www.w3.org/2000/svg" xmlns:xlink="http://www.w3.org/1999/xlink" x="0px" y="0px"
	 viewBox="0 0 400 400" style="enable-background:new 0 0 400 400;" xml:space="preserve">
<style type="text/css">
	.st0{fill:#FFFFFF;}
	.st1{fill:#006DCC;}
</style>
<title>btn_Pause_focus</title>
<g id="button">
	<circle class="st0" cx="200" cy="200" r="168.2"/>
	<path class="st1" d="M200,36.2c89.6,0.3,162.1,73.2,161.7,162.9s-73.2,162.1-162.9,161.7c-89.6-0.2-162-73.2-161.7-162.8
		c0.1-42.6,17.1-83.5,47.1-113.7C114.9,53.5,156.6,36.3,200,36.2 M200,27.2c-95.4,0-172.8,77.3-172.8,172.8S104.6,372.7,200,372.7
		S372.7,295.4,372.7,200C372.8,104.6,295.4,27.2,200,27.2L200,27.2L200,27.2z"/>
</g>
<g id="icon">
	<g id="Pause">
		<path class="st1" d="M183.6,109.7h-20.4c-4.5,0-8.2,3.7-8.2,8.2l0,0l0,0v89.8c0,4.5,3.7,8.2,8.2,8.2l0,0h20.4
			c4.5,0,8.2-3.6,8.2-8.1l0,0v-89.9C191.8,113.4,188.2,109.7,183.6,109.7L183.6,109.7L183.6,109.7z M236.7,109.7h-20.4
			c-4.5,0-8.2,3.7-8.2,8.2l0,0l0,0v89.8c0,4.5,3.7,8.2,8.2,8.2l0,0h20.4c4.5,0,8.2-3.7,8.2-8.2l0,0l0,0v-89.8
			C244.8,113.4,241.2,109.7,236.7,109.7L236.7,109.7z"/>
	</g>
</g>
<g id="label">
	<path class="st1" d="M147,251.9c4.1,0,7.3,1,9.6,3.1c4.5,4.3,4.7,11.5,0.4,16l0,0l-0.4,0.4c-2.4,2.1-5.6,3.1-9.6,3.1h-6v7.9
		l3.8,0.7v4.3h-14.7v-4.3l3.8-0.7v-25.5l-3.8-0.7v-4.3L147,251.9z M141,269h6c3,0.3,5.7-1.9,6-4.9c0-0.3,0-0.6,0-0.9
		c0.1-1.6-0.5-3.1-1.5-4.2c-1.2-1.2-2.8-1.8-4.5-1.7h-6V269z"/>
	<path class="st1" d="M179.2,287.4c-0.2-0.4-0.4-0.9-0.5-1.4s-0.3-0.9-0.3-1.4c-0.9,1-1.9,1.8-3.1,2.4c-1.3,0.6-2.7,0.9-4.2,0.9
		c-2.3,0.1-4.5-0.6-6.2-2.1c-1.6-1.5-2.4-3.6-2.3-5.8c-0.1-2.3,1.1-4.5,3-5.7c2-1.4,4.9-2,8.7-2h3.6v-2.6c0.1-1.1-0.4-2.2-1.1-3
		c-0.9-0.8-2.1-1.1-3.3-1c-0.7,0-1.5,0.1-2.2,0.3c-0.5,0.1-1.1,0.4-1.5,0.7l-0.5,2.8H164v-5.9c1.4-0.9,2.9-1.7,4.5-2.2
		c1.8-0.6,3.6-0.9,5.5-0.9c2.9-0.1,5.7,0.7,8,2.4c2.1,1.7,3.2,4.2,3.1,6.9v12.1c0,0.3,0,0.7,0.1,1l2.2,0.3v4.3L179.2,287.4z
		 M173,282.6c1,0,2-0.2,2.9-0.7c0.8-0.4,1.5-1,2.1-1.8v-4h-3.6c-1.2-0.1-2.5,0.3-3.4,1.1c-0.8,0.6-1.2,1.6-1.2,2.5
		c0,0.8,0.3,1.6,0.9,2.1C171.3,282.4,172.1,282.7,173,282.6L173,282.6z"/>
	<path class="st1" d="M207.5,284.1c-1.6,2.5-4.4,3.9-7.4,3.9c-2.5,0.1-4.9-0.9-6.5-2.7c-1.6-1.8-2.4-4.6-2.4-8.3v-11l-2.9-0.7V261
		h10v16c-0.1,1.5,0.2,2.9,1,4.1c0.7,0.9,1.8,1.3,2.9,1.3c1,0,2-0.2,2.9-0.5c0.8-0.3,1.5-0.9,2-1.6V266l-3.1-0.7V261h10.3v21.4
		l3.2,0.7v4.3H208L207.5,284.1z"/>
	<path class="st1" d="M241.8,270.1H237l-0.8-3.3c-0.6-0.4-1.2-0.8-1.8-1c-0.8-0.3-1.6-0.4-2.5-0.4c-1.1-0.1-2.1,0.2-3,0.8
		c-0.7,0.5-1.1,1.3-1.1,2.1c0,0.8,0.4,1.6,1.1,2c1.3,0.7,2.7,1.2,4.2,1.4c2.6,0.4,5.1,1.4,7.3,2.9c1.6,1.3,2.5,3.2,2.4,5.2
		c0,2.3-1.1,4.5-3.1,5.8c-2.4,1.6-5.2,2.4-8.1,2.3c-1.9,0-3.8-0.3-5.6-0.9c-1.7-0.6-3.2-1.4-4.5-2.5l-0.1-5.9h5l1,3.4
		c0.5,0.4,1.1,0.7,1.7,0.8c0.8,0.2,1.5,0.3,2.3,0.3c1.2,0.1,2.3-0.2,3.3-0.8c1.1-0.7,1.5-2.3,0.8-3.4c-0.2-0.3-0.5-0.6-0.8-0.8
		c-1.3-0.8-2.7-1.3-4.2-1.5c-2.5-0.4-4.9-1.4-7-2.8c-1.6-1.2-2.5-3.1-2.4-5.1c0-2.2,1-4.3,2.7-5.7c1.8-1.6,4.4-2.4,7.8-2.4
		c2,0,3.9,0.3,5.8,0.8c1.6,0.4,3,1.1,4.3,2.1L241.8,270.1z"/>
	<path class="st1" d="M258.6,287.9c-3.4,0.2-6.8-1.2-9.1-3.7s-3.5-5.9-3.4-9.3v-1c-0.1-3.5,1-7,3.2-9.7c2.2-2.5,5.4-3.9,8.7-3.8
		c3.6,0,6.3,1.1,8.3,3.2s3,5,3,8.7v3.9h-15.8l-0.1,0.1c0.1,1.6,0.7,3.1,1.8,4.3c1.1,1.2,2.6,1.8,4.2,1.7c1.3,0,2.7-0.1,3.9-0.5
		c1.2-0.4,2.3-0.9,3.4-1.5l1.9,4.4c-1.3,1-2.7,1.7-4.2,2.2C262.5,287.6,260.6,287.9,258.6,287.9z M258,266c-1.2,0-2.4,0.5-3.1,1.5
		c-0.8,1.2-1.3,2.6-1.4,4l0.1,0.1h8.7V271c0.1-1.3-0.3-2.6-1.1-3.6S259.2,265.9,258,266z"/>
</g>
<g>
	<path class="st1" d="M199.7,16.4L199.7,16.4C199.6,16.4,199.6,16.4,199.7,16.4c-0.1,0-0.1,0-0.1,0l0,0l0,0l0,0l0,0l0,0
		c0,0,0,0-0.1,0l0,0c0,0,0,0-0.1,0l0,0c0,0,0,0-0.1,0l0,0l0,0l0,0l0,0l0,0l0,0l0,0c0,0,0,0-0.1,0l0,0c0,0,0,0-0.1,0l0,0l0,0l0,0l0,0
		l0,0l0,0l0,0l0,0c0,0,0,0-0.1,0l0,0l0,0l0,0l0,0l0,0l0,0l0,0l0,0l0,0l0,0l0,0h-0.1l0,0l0,0l0,0l0,0l0,0l0,0l0,0l0,0l0,0
		c-0.1,0-0.1,0-0.2,0l0,0c0,0,0,0-0.1,0l0,0c0,0,0,0-0.1,0l0,0c-1.9,0-3.8,0.1-5.7,0.2l0.1,1.5c2.6-0.1,5.3-0.2,7.9-0.2v-1.5H199.7
		L199.7,16.4z M184.7,17L184.7,17L184.7,17L184.7,17c-0.1,0-0.1,0-0.1,0l0,0l0,0l0,0c-0.1,0-0.1,0-0.2,0l0,0l0,0l0,0l0,0l0,0l0,0
		l0,0l0,0l0,0c-0.1,0-0.1,0-0.2,0l0,0l0,0l0,0l0,0l0,0l0,0l0,0l0,0l0,0c-0.1,0-0.1,0-0.2,0l0,0l0,0l0,0l0,0l0,0l0,0l0,0l0,0l0,0
		c-0.1,0-0.1,0-0.2,0l0,0l0,0l0,0l0,0l0,0l0,0l0,0l0,0l0,0l0,0l0,0c0,0,0,0-0.1,0l0,0l0,0l0,0l0,0l0,0l0,0l0,0l0,0l0,0l0,0
		c0,0,0,0-0.1,0l0,0l0,0l0,0l0,0l0,0l0,0l0,0l0,0l0,0l0,0l0,0l0,0l0,0l0,0l0,0l0,0l0,0l0,0l0,0l0,0l0,0l0,0l0,0l0,0c0,0,0,0-0.1,0
		l0,0l0,0l0,0l0,0l0,0l0,0l0,0l0,0l0,0l0,0l0,0c0,0,0,0-0.1,0l0,0l0,0l0,0l0,0l0,0l0,0l0,0l0,0l0,0l0,0l0,0l0,0l0,0l0,0l0,0l0,0l0,0
		l0,0l0,0l0,0l0,0l0,0l0,0c0,0,0,0-0.1,0l0,0l0,0l0,0l0,0l0,0l0,0l0,0l0,0l0,0l0,0l0,0c0,0,0,0-0.1,0l0,0l0,0l0,0l0,0l0,0l0,0l0,0
		l0,0l0,0l0,0l0,0h-0.1l0,0l0,0l0,0l0,0l0,0l0,0l0,0l0,0l0,0l0,0l0,0c-0.1,0-0.1,0-0.2,0l0,0c0,0,0,0-0.1,0l0,0l0,0l0,0
		c0,0,0,0-0.1,0l0,0c-0.1,0-0.2,0-0.3,0l0,0c0,0,0,0-0.1,0l0,0c0,0,0,0-0.1,0l0,0c-0.4,0-0.8,0.1-1.2,0.1l0.2,1.5
		c2.6-0.3,5.3-0.6,7.9-0.8L184.7,17L184.7,17z M169.8,18.8c-2.6,0.4-5.3,0.9-7.9,1.5l0.3,1.5c2.6-0.5,5.2-1,7.8-1.5L169.8,18.8
		L169.8,18.8z M155.1,21.9c-0.2,0.1-0.5,0.1-0.7,0.2l0,0c0,0,0,0-0.1,0l0,0c0,0,0,0-0.1,0l0,0c0,0,0,0-0.1,0l0,0
		c-0.1,0-0.2,0-0.3,0.1l0,0c0,0,0,0-0.1,0l0,0l0,0l0,0l0,0l0,0l0,0l0,0c0,0,0,0-0.1,0l0,0h-0.1l0,0l0,0l0,0l0,0l0,0l0,0l0,0l0,0l0,0
		c0,0,0,0-0.1,0l0,0h-0.1l0,0c0,0,0,0-0.1,0l0,0l0,0l0,0l0,0l0,0l0,0l0,0l0,0l0,0c-0.1,0-0.1,0-0.2,0.1l0,0c0,0,0,0-0.1,0l0,0
		c0,0,0,0-0.1,0l0,0c0,0,0,0-0.1,0l0,0c0,0,0,0-0.1,0l0,0c-0.1,0-0.2,0.1-0.3,0.1l0,0c0,0,0,0-0.1,0l0,0c-1.5,0.4-2.9,0.8-4.4,1.2
		l0.4,1.4c2.5-0.7,5.1-1.4,7.7-2.1L155.1,21.9L155.1,21.9z M140.8,26.1c-0.2,0.1-0.5,0.2-0.7,0.2l0,0c0,0,0,0-0.1,0l0,0
		c0,0,0,0-0.1,0l0,0l0,0l0,0l0,0l0,0c-0.1,0-0.2,0.1-0.3,0.1l0,0l0,0l0,0l0,0l0,0l0,0l0,0l0,0l0,0l0,0l0,0c-0.1,0-0.1,0.1-0.2,0.1
		l0,0l0,0l0,0l0,0l0,0l0,0l0,0l0,0l0,0c-0.1,0-0.2,0.1-0.3,0.1l0,0c0,0,0,0-0.1,0l0,0c0,0,0,0-0.1,0l0,0c0,0,0,0-0.1,0l0,0
		c-1.7,0.6-3.4,1.2-5,1.9l0.5,1.4c2.5-1,5-1.9,7.5-2.7L140.8,26.1L140.8,26.1z M126.8,31.5c-2.5,1.1-4.9,2.2-7.3,3.3l0.7,1.3
		c2.4-1.2,4.8-2.3,7.2-3.3L126.8,31.5L126.8,31.5z M113.3,38c-1.3,0.7-2.7,1.5-4,2.2l0,0l0,0l0,0l0,0l0,0l0,0l0,0l0,0l0,0l0,0l0,0
		l0,0l0,0l0,0c-0.1,0-0.1,0.1-0.2,0.1l0,0c0,0,0,0-0.1,0l0,0l0,0l0,0l0,0l0,0c0,0,0,0-0.1,0l0,0c-0.7,0.4-1.4,0.8-2.2,1.3l0.8,1.3
		c2.3-1.3,4.6-2.6,6.9-3.9L113.3,38L113.3,38z M100.3,45.6c-1.1,0.7-2.1,1.4-3.2,2.1l0,0c0,0,0,0-0.1,0l0,0c0,0,0,0-0.1,0l0,0
		c0,0,0,0-0.1,0l0,0c-0.1,0.1-0.1,0.1-0.2,0.2l0,0l0,0l0,0l0,0l0,0l0,0l0,0l0,0l0,0l0,0l0,0l0,0l0,0l0,0l0,0c0,0,0,0-0.1,0l0,0l0,0
		l0,0l0,0l0,0l0,0l0,0l0,0l0,0l0,0l0,0l0,0l0,0l0,0l0,0l0,0c-0.1,0-0.1,0.1-0.2,0.1l0,0l0,0l0,0l0,0l0,0l0,0l0,0l0,0l0,0l0,0l0,0
		l0,0l0,0c-1.1,1-1.2,1-1.3,1.1l0,0l0,0l0,0l0,0l0,0l0,0l0,0l0,0l0,0c-0.1,0.1-0.2,0.1-0.3,0.2l0,0l0,0l0,0l0,0l0,0l0,0l0,0l0,0l0,0
		l0,0l0,0l0,0l0,0c-0.1,0-0.1,0.1-0.2,0.1l0,0l0,0l0,0l0,0l0,0l0,0l0,0l0,0l0,0l0,0l0,0l0,0l0,0l0,0l0,0l0.9,1.2
		c2.2-1.5,4.4-3,6.6-4.4L100.3,45.6L100.3,45.6z M88.1,54.2L88.1,54.2C88,54.2,88,54.2,88.1,54.2C88,54.2,88,54.2,88.1,54.2
		C88,54.3,88,54.3,88.1,54.2C88,54.3,88,54.3,88.1,54.2L88.1,54.2L88.1,54.2L88.1,54.2L88.1,54.2L88.1,54.2L88.1,54.2L88.1,54.2
		L88.1,54.2L88.1,54.2L88.1,54.2L88.1,54.2L88.1,54.2L88.1,54.2L88.1,54.2L88.1,54.2L88.1,54.2L88.1,54.2L88.1,54.2L88.1,54.2
		L88.1,54.2L88.1,54.2L88.1,54.2L88.1,54.2c-0.2,0.1-0.2,0.2-0.3,0.2l0,0l0,0l0,0l0,0l0,0l0,0l0,0l0,0l0,0l0,0l0,0l0,0l0,0
		c-0.1,0.1-0.2,0.1-0.3,0.2l0,0c0,0,0,0-0.1,0l0,0c0,0,0,0-0.1,0l0,0c0,0,0,0-0.1,0l0,0c-1,0.8-2,1.6-3,2.4l0,0c0,0,0,0-0.1,0l0,0
		l0,0l0,0l0,0l0,0l0,0l0,0l0,0l0,0l0,0l0,0l0,0l0,0l0,0l0,0l0,0l0,0l0,0l0,0l0,0l0,0l0,0c-0.3,0.3-0.7,0.6-1,0.8l1,1.2
		c2-1.7,4.1-3.4,6.2-5L88.1,54.2L88.1,54.2z M76.5,63.8c-2,1.8-3.9,3.6-5.8,5.5l1.1,1.1c1.9-1.8,3.8-3.7,5.8-5.4L76.5,63.8
		L76.5,63.8z M65.8,74.3c-1.4,1.5-2.7,3-4.1,4.5l0,0l0,0l0,0l0,0l0,0l0,0l0,0l0,0l0,0l0,0l0,0l0,0l0,0l-0.1,0.1l0,0l0,0l0,0l0,0l0,0
		l0,0l0,0l0,0l0,0l0,0l0,0l0,0l0,0l0,0l0,0l0,0l0,0l0,0L61.5,79l0,0l0,0l0,0l0,0l0,0l0,0l0,0l0,0l0,0l0,0l0,0
		c-0.1,0.1-0.1,0.2-0.2,0.3l1.1,1c1.7-2,3.5-4,5.3-5.9L65.8,74.3L65.8,74.3z M56,85.6c-1.7,2.1-3.3,4.2-4.9,6.4l1.2,0.9
		c1.6-2.1,3.2-4.2,4.8-6.3L56,85.6L56,85.6z M47.1,97.7c-0.3,0.4-0.5,0.7-0.7,1.1l0,0c0,0,0,0,0,0.1l0,0c-0.1,0.1-0.2,0.2-0.2,0.3
		l0,0l0,0l0,0l0,0l0,0l0,0l0,0l0,0l0,0l0,0l0,0c-0.1,0.1-0.1,0.1-0.1,0.2l0,0l0,0l0,0l0,0l0,0l0,0l0,0l0,0l0,0l0,0l0,0
		c0,0,0,0,0,0.1l0,0c0,0.1-0.1,0.1-0.1,0.2l0,0c0,0,0,0,0,0.1l0,0l0,0l0,0l0,0l0,0l0,0l0,0l0,0l0,0c-0.1,0.1-0.1,0.2-0.2,0.3l0,0
		c0,0,0,0,0,0.1l0,0c0,0,0,0,0,0.1l0,0c0,0,0,0,0,0.1l0,0c0,0,0,0,0,0.1l0,0c-0.1,0.1-0.1,0.2-0.2,0.3l0,0c0,0,0,0,0,0.1l0,0
		c0,0,0,0,0,0.1l0,0l0,0l0,0c0,0,0,0,0,0.1l0,0c-0.1,0.1-0.1,0.2-0.2,0.3l0,0l0,0l0,0l0,0l0,0l0,0l0,0l0,0l0,0l0,0l0,0l0,0l0,0
		c0,0,0,0,0,0.1l0,0l0,0l0,0l0,0l0,0l0,0l0,0l0,0l0,0l0,0l0,0l0,0l0,0l0,0c-0.4,0.6-0.7,1.1-1.1,1.7l1.3,0.8
		c1.4-2.2,2.8-4.5,4.3-6.7L47.1,97.7L47.1,97.7z M39.3,110.5c-0.2,0.3-0.3,0.5-0.5,0.8l0,0l0,0l0,0l0,0l0,0l0,0l0,0l0,0l0,0l0,0l0,0
		l0,0c0,0,0,0,0,0.1l0,0c0,0,0,0,0,0.1l0,0c0,0,0,0,0,0.1l0,0c0,0,0,0,0,0.1l0,0c0,0,0,0,0,0.1l0,0c0,0,0,0,0,0.1l0,0
		c-0.5,0.9-0.9,1.7-1.4,2.6l0,0c0,0,0,0,0,0.1l0,0c0,0,0,0,0,0.1l0,0c0,0,0,0,0,0.1l0,0c0,0,0,0,0,0.1l0,0c0,0.1-0.1,0.1-0.1,0.2
		l0,0c0,0,0,0,0,0.1l0,0l0,0l0,0l0,0l0,0l0,0l0,0l0,0l0,0l0,0l0,0l0,0l0,0l0,0c0,0,0,0,0,0.1l0,0l0,0l0,0l0,0l0,0l0,0l0,0l0,0l0,0
		l0,0l0,0l0,0l0,0l0,0l0,0c0,0.1-0.1,0.2-0.1,0.3l0,0c0,0,0,0,0,0.1l0,0c0,0,0,0,0,0.1l0,0c0,0,0,0,0,0.1l0,0
		c-0.2,0.4-0.4,0.8-0.6,1.2l1.3,0.7c1.2-2.3,2.4-4.7,3.7-7L39.3,110.5L39.3,110.5z M32.5,123.9c-0.5,1.1-1,2.2-1.5,3.3l0,0
		c0,0,0,0,0,0.1l0,0c0,0,0,0,0,0.1l0,0c0,0,0,0,0,0.1l0,0c0,0,0,0,0,0.1l0,0c0,0.1-0.1,0.1-0.1,0.2l0,0l0,0l0,0l0,0l0,0l0,0l0,0l0,0
		l0,0l0,0l0,0l0,0l0,0l0,0c0,0,0,0.1-0.1,0.1l0,0l0,0l0,0l0,0l0,0l0,0l0,0l0,0l0,0c-0.4,0.9-0.8,1.9-1.2,2.8l1.4,0.6
		c1-2.4,2-4.9,3.1-7.3L32.5,123.9L32.5,123.9z M26.8,137.7c-0.2,0.5-0.4,1.1-0.6,1.6l0,0l0,0l0,0l0,0l0,0l0,0l0,0l0,0l0,0l0,0l0,0
		l0,0v0.1l0,0c0,0,0,0,0,0.1l0,0c0,0,0,0,0,0.1l0,0c0,0,0,0,0,0.1l0,0c0,0,0,0,0,0.1l0,0c-0.4,1.2-0.8,2.3-1.2,3.5l0,0
		c0,0,0,0,0,0.1l0,0l0,0l0,0l0,0l0,0l0,0l0,0l0,0v0.1l0,0l0,0l0,0c0,0,0,0,0,0.1l0,0c0,0,0,0,0,0.1l0,0c0,0,0,0,0,0.1l0,0
		c-0.1,0.3-0.2,0.7-0.3,1l1.4,0.4c0.8-2.5,1.6-5,2.5-7.5L26.8,137.7L26.8,137.7z M22.3,152c-0.7,2.6-1.3,5.2-1.9,7.8l1.5,0.3
		c0.6-2.6,1.2-5.2,1.9-7.7L22.3,152L22.3,152z M19,166.7c-0.1,0.7-0.2,1.3-0.4,2l0,0c0,0.1,0,0.3-0.1,0.4l0,0c0,0,0,0,0,0.1l0,0
		c0,0.1,0,0.2-0.1,0.4l0,0c0,0,0,0,0,0.1l0,0c-0.3,1.7-0.5,3.3-0.8,5l1.5,0.2c0.4-2.6,0.8-5.2,1.3-7.8L19,166.7L19,166.7z
		 M16.9,181.5c0,0.1,0,0.1,0,0.2l0,0l0,0l0,0l0,0l0,0l0,0l0,0l0,0l0,0l0,0v0.1l0,0c0,0,0,0,0,0.1l0,0c0,0,0,0,0,0.1l0,0
		c-0.2,2.4-0.4,4.8-0.6,7.2l1.5,0.1c0.2-2.6,0.4-5.3,0.6-7.9L16.9,181.5L16.9,181.5z M16,196.5c0,0.1,0,0.2,0,0.3l0,0c0,0,0,0,0,0.1
		l0,0c0,0,0,0,0,0.1l0,0l0,0c0,0,0,0,0,0.1l0,0c0,0.8,0,1.6,0,2.4l0,0c0,0,0,0,0,0.1l0,0v0.1l0,0c0,0,0,0,0,0.1l0,0c0,0,0,0,0,0.1
		l0,0c0,0,0,0,0,0.1l0,0c0,0,0,0,0,0.1l0,0c0,0,0,0,0,0.1l0,0c0,0,0,0,0,0.1l0,0c0,0,0,0,0,0.1l0,0l0,0l0,0l0,0l0,0l0,0l0,0l0,0l0,0
		l0,0l0,0c0,0,0,0,0,0.1l0,0c0,0,0,0,0,0.1l0,0c0,0.1,0,0.1,0,0.2l0,0c0,0,0,0,0,0.1l0,0c0,0,0,0,0,0.1l0,0c0,0,0,0,0,0.1l0,0
		c0,0.7,0,1.3,0,2l0,0c0,0,0,0,0,0.1l0,0c0,0,0,0,0,0.1l0,0c0,0,0,0,0,0.1l0,0v0.1c0,0,0,0,0,0.1l0,0c0,0.3,0,0.5,0,0.8h1.5
		c0-1.4,0-2.8,0-4.2c0-1.2,0-2.5,0-3.7L16,196.5L16,196.5z M17.8,211.4l-1.5,0.1c0.2,2.7,0.4,5.3,0.7,8l1.5-0.2
		C18.1,216.7,17.9,214,17.8,211.4L17.8,211.4z M19.3,226.2l-1.5,0.2c0.2,1.3,0.4,2.6,0.6,3.8l0,0c0,0,0,0,0,0.1l0,0
		c0,0.1,0,0.2,0.1,0.3l0,0c0,0,0,0,0,0.1l0,0l0,0l0,0l0,0l0,0l0,0l0,0c0,0.1,0,0.1,0,0.2l0,0l0,0l0,0l0,0l0,0l0,0l0,0l0,0l0,0l0,0
		l0,0l0,0c0,0,0,0,0,0.1l0,0l0,0l0,0l0,0l0,0l0,0l0,0l0,0l0,0l0,0l0,0l0,0l0,0l0,0l0,0l0,0l0,0l0,0l0,0l0,0l0,0l0,0l0,0l0,0l0,0l0,0
		c0,0,0,0,0,0.1l0,0l0,0l0,0l0,0l0,0l0,0l0,0l0,0l0,0c0.1,0.5,0.2,1.1,0.3,1.6l1.5-0.3C20.1,231.4,19.6,228.8,19.3,226.2L19.3,226.2
		z M22,240.8l-1.5,0.3l0,0l0,0c0,0,0,0,0,0.1l0,0c0,0,0,0,0,0.1l0,0c0,0,0,0,0,0.1l0,0c0.3,1.5,0.7,2.9,1.1,4.4l0,0c0,0,0,0,0,0.1
		l0,0c0,0,0,0,0,0.1l0,0c0,0.1,0,0.2,0.1,0.3l0,0c0,0,0,0,0,0.1l0,0c0,0,0,0,0,0.1l0,0c0,0,0,0,0,0.1l0,0c0,0.1,0.1,0.2,0.1,0.3l0,0
		c0,0,0,0,0,0.1l0,0c0,0,0,0,0,0.1l0,0c0,0.1,0.1,0.3,0.1,0.4l0,0c0.1,0.6,0.3,1.1,0.4,1.7l1.4-0.4C23.2,246,22.5,243.4,22,240.8
		L22,240.8z M25.8,255.2l-1.4,0.5c0.4,1.4,0.9,2.7,1.3,4.1l0,0c0,0.1,0.1,0.3,0.1,0.4l0,0c0,0,0,0,0,0.1l0,0l0,0l0,0l0,0l0,0
		c0,0,0,0,0,0.1l0,0v0.1l0,0c0,0,0,0,0,0.1l0,0l0,0l0,0l0,0l0,0l0,0l0,0l0,0l0,0l0,0l0,0c0,0,0,0,0,0.1l0,0c0,0,0,0,0,0.1l0,0l0,0
		l0,0l0,0l0,0l0,0l0,0l0,0l0,0l0,0l0,0l0,0l0,0l0,0c0,0,0,0,0,0.1l0,0l0,0l0,0l0,0l0,0l0,0l0,0l0,0l0,0l0,0l0,0l0,0l0,0l0,0l0,0v0.1
		l0,0l0,0l0,0l0,0l0,0l0,0l0,0l0,0l0,0l0,0l0,0l0,0l0,0l0,0l0,0v0.1l0,0l0,0l0,0l0,0l0,0l0,0l0,0l0,0l0,0l0,0l0,0l0,0l0,0l0,0
		c0,0,0,0,0,0.1l0,0l0,0l0,0l0,0l1.4-0.5C27.5,260.2,26.6,257.7,25.8,255.2L25.8,255.2z M30.9,269.1l-1.4,0.6c1,2.5,2.1,4.9,3.2,7.3
		l1.4-0.6C33,274,31.9,271.6,30.9,269.1L30.9,269.1z M37.1,282.7l-1.3,0.7c0.6,1.1,1.1,2.2,1.7,3.2l0,0c0,0,0,0,0,0.1l0,0
		c0,0,0,0,0,0.1l0,0c0,0,0,0,0,0.1l0,0c0.1,0.1,0.2,0.3,0.2,0.4l0,0c0,0,0,0,0,0.1l0,0c0.6,1,1.1,2.1,1.7,3.1l1.3-0.7
		C39.5,287.4,38.3,285,37.1,282.7L37.1,282.7z M44.4,295.6l-1.3,0.8c0.9,1.5,1.8,2.9,2.7,4.3l0,0l0,0l0,0l0,0l0,0l0,0l0,0l0,0l0,0
		l0,0l0,0c0,0.1,0.1,0.1,0.1,0.2l0,0l0,0l0,0l0,0l0,0l0,0l0,0l0,0l0,0l0,0l0,0l0,0l0,0l0,0l0,0c0,0,0,0,0,0.1l0,0l0,0l0,0l0,0l0,0
		l0,0l0,0l0,0l0,0l0,0l0,0l0,0l0,0l0,0l0,0l0,0l0,0c0,0,0,0,0,0.1l0,0l0,0l0,0l0,0l0,0l0,0l0,0l0,0l0,0l0,0l0,0l0,0l0,0l0,0l0,0l0,0
		l0,0l0,0l0,0c0,0,0,0.1,0.1,0.1l0,0l0,0l0,0l0,0l0,0l0,0l0,0l0,0l0,0l0,0l0,0l0,0l0,0l0,0l0,0l1.2-0.8
		C47.2,300.1,45.7,297.9,44.4,295.6L44.4,295.6z M52.7,308l-1.2,0.9c0.3,0.5,0.7,0.9,1,1.4l0,0l0,0l0,0l0,0l0,0l0,0l0,0l0,0l0,0l0,0
		l0,0l0,0l0,0l0,0c1.1,1.5,2.3,3,3.5,4.5l0,0l0,0l0,0l0,0l0,0l1.2-0.9C55.9,312.2,54.2,310.1,52.7,308L52.7,308z M62,319.6l-1.1,1
		c1.2,1.4,2.5,2.8,3.8,4.2l0,0l0,0l0,0l0,0l0,0l0,0l0,0l0,0l0,0l0.1,0.1l0,0l0,0l0,0l0,0l0,0l0,0l0,0l0,0l0,0l0,0l0,0l0,0l0,0l0,0
		c0.3,0.4,0.7,0.7,1,1.1l1.1-1C65.5,323.6,63.7,321.6,62,319.6L62,319.6z M72.1,330.4l-1,1.1c0.5,0.5,1,0.9,1.4,1.4l0,0l0,0l0,0l0,0
		l0,0l0,0l0,0l0,0l0,0c0.1,0.1,0.2,0.2,0.3,0.3l0,0l0,0l0,0l0,0l0,0l0,0l0,0l0,0l0,0l0,0l0,0l0,0l0,0c0.1,0.1,0.1,0.1,0.2,0.2l0,0
		l0,0l0,0l0,0l0,0l0,0l0,0l0,0l0,0l0,0l0,0c0.1,0.1,0.2,0.2,0.3,0.3l0,0l0,0l0,0l0,0l0,0c0.9,0.9,1.9,1.8,2.9,2.6l1-1.1
		C76,334.1,74,332.3,72.1,330.4L72.1,330.4z M83.2,340.4l-1,1.2c0.6,0.5,1.3,1.1,1.9,1.6l0,0l0,0l0,0l0,0l0,0l0,0l0,0l0,0l0,0l0,0
		l0,0l0,0l0,0l0,0l0,0l0,0l0,0l0,0l0,0l0,0l0,0l0,0c0.8,0.6,1.6,1.3,2.4,1.9l0,0l0,0l0,0l0,0l0,0l0,0l0,0l0,0l0,0l0,0l0,0l0,0
		c0.4,0.3,0.7,0.6,1.1,0.8l0.9-1.2C87.3,343.7,85.2,342.1,83.2,340.4L83.2,340.4z M95,349.4l-0.9,1.2l0,0l0,0l0,0l0,0l0,0l0,0l0,0
		l0,0l0,0l0,0l0,0l0.1,0.1l0,0l0,0l0,0l0,0l0,0l0,0l0,0l0,0l0,0l0,0l0,0l0,0l0,0c0.3,0.2,0.6,0.4,0.9,0.6l0,0c0.3,0.2,0.7,0.5,1,0.7
		l0,0c0,0,0,0,0.1,0l0,0c0,0,0,0,0.1,0l0,0c0.1,0.1,0.2,0.2,0.4,0.2l0,0l0,0l0,0l0,0l0,0l0,0l0,0l0,0l0,0l0,0l0,0l0,0l0,0l0.1,0.1
		l0,0l0,0l0,0l0,0l0,0l0,0l0,0l0,0l0,0l0,0l0,0l0,0l0,0l0,0l0,0l0,0c0.1,0,0.1,0.1,0.2,0.1l0,0l0,0l0,0l0,0l0,0l0,0l0,0l0,0l0,0l0,0
		l0,0c0.1,0.1,0.3,0.2,0.4,0.3l0,0c0.6,0.4,1.2,0.8,1.8,1.1l0.8-1.3C99.4,352.4,97.2,351,95,349.4L95,349.4z M107.5,357.5l-0.8,1.3
		c1.2,0.7,2.5,1.4,3.7,2.1l0,0c0,0,0,0,0.1,0l0,0l0,0l0,0l0,0l0,0c0,0,0,0,0.1,0l0,0c0,0,0.1,0,0.1,0.1l0,0l0,0l0,0l0,0l0,0l0,0l0,0
		l0,0l0,0l0,0l0,0l0,0c0.9,0.5,1.7,0.9,2.6,1.4l0.7-1.3C112.1,360.1,109.8,358.8,107.5,357.5L107.5,357.5z M120.6,364.5l-0.7,1.4
		c0.5,0.2,0.9,0.4,1.4,0.7l0,0c0,0,0,0,0.1,0l0,0c0,0,0,0,0.1,0l0,0c0,0,0,0,0.1,0l0,0c0,0,0,0,0.1,0l0,0c0.1,0,0.2,0.1,0.3,0.1l0,0
		c0,0,0,0,0.1,0l0,0c0,0,0,0,0.1,0l0,0l0,0l0,0l0,0l0,0c0,0,0,0,0.1,0l0,0c0.1,0,0.1,0.1,0.2,0.1l0,0c0,0,0,0,0.1,0l0,0
		c0,0,0,0,0.1,0l0,0c0,0,0,0,0.1,0l0,0c0,0,0,0,0.1,0l0,0c0.1,0.1,0.3,0.1,0.4,0.2l0,0c0,0,0,0,0.1,0l0,0c0.7,0.3,1.5,0.7,2.2,1l0,0
		c0,0,0,0,0.1,0l0,0c0.1,0,0.2,0.1,0.3,0.1l0,0c0,0,0,0,0.1,0l0,0l0,0l0,0l0,0l0,0l0,0l0,0l0,0l0,0l0,0l0,0l0,0
		c0.4,0.2,0.8,0.4,1.3,0.5l0.6-1.4C125.4,366.7,123,365.6,120.6,364.5L120.6,364.5z M134.3,370.4l-0.5,1.4c0.9,0.4,1.9,0.7,2.8,1.1
		l0,0c0,0,0,0,0.1,0l0,0c0.1,0,0.2,0.1,0.3,0.1l0,0l0,0l0,0l0,0l0,0l0,0l0,0l0,0l0,0l0,0l0,0l0,0l0,0l0,0l0,0l0,0l0,0l0,0l0,0l0,0
		l0,0l0,0l0,0l0,0l0,0l0,0c0,0,0,0,0.1,0l0,0c0.1,0,0.1,0,0.2,0.1l0,0c0,0,0,0,0.1,0l0,0c0,0,0,0,0.1,0l0,0c0,0,0,0,0.1,0l0,0
		c0,0,0,0,0.1,0l0,0c0.1,0,0.2,0.1,0.3,0.1l0,0c0,0,0,0,0.1,0l0,0c0,0,0,0,0.1,0l0,0c0,0,0,0,0.1,0l0,0c0.1,0,0.3,0.1,0.4,0.1l0,0
		c0,0,0,0,0.1,0l0,0c0,0,0,0,0.1,0l0,0c0.1,0,0.2,0.1,0.3,0.1l0,0c0,0,0,0,0.1,0l0,0c0,0,0,0,0.1,0l0,0c0,0,0,0,0.1,0l0,0
		c0,0,0,0,0.1,0l0,0c0.1,0,0.1,0,0.2,0.1l0,0c0,0,0,0,0.1,0l0,0l0,0l0,0l0,0l0,0l0,0l0,0l0,0l0,0l0,0l0,0l0,0l0,0l0,0l0,0l0,0l0,0
		l0,0l0,0l0,0l0,0l0,0l0,0l0,0c0.1,0,0.2,0.1,0.4,0.1l0.5-1.4C139.2,372.3,136.7,371.3,134.3,370.4L134.3,370.4z M148.4,375.2
		l-0.4,1.4c0.3,0.1,0.6,0.2,1,0.3l0,0l0,0l0,0l0,0l0,0l0,0l0,0l0,0l0,0l0,0l0,0l0,0c0.1,0,0.2,0.1,0.3,0.1l0,0
		c0.8,0.2,1.7,0.5,2.5,0.7l0,0c0,0,0,0,0.1,0l0,0c0,0,0,0,0.1,0l0,0c0,0,0,0,0.1,0l0,0h0.1l0,0c0,0,0,0,0.1,0l0,0l0,0l0,0l0,0l0,0
		l0,0l0,0l0,0l0,0l0,0c0.1,0,0.2,0,0.2,0.1l0,0c0.9,0.2,1.8,0.5,2.7,0.7l0.4-1.5C153.5,376.6,150.9,375.9,148.4,375.2L148.4,375.2z
		 M162.8,378.8l-0.3,1.5c0.8,0.2,1.5,0.3,2.3,0.5l0,0c0,0,0,0,0.1,0l0,0c0,0,0,0,0.1,0l0,0l0,0l0,0l0,0l0,0h0.1l0,0l0,0l0,0l0,0l0,0
		l0,0l0,0l0,0l0,0l0,0c0,0,0,0,0.1,0l0,0h0.1l0,0c0,0,0,0,0.1,0l0,0c0,0,0,0,0.1,0l0,0c0,0,0,0,0.1,0l0,0c0,0,0,0,0.1,0l0,0
		c0.1,0,0.2,0,0.4,0.1l0,0c0.5,0.1,0.9,0.2,1.4,0.3l0,0c0.1,0,0.3,0,0.4,0.1l0,0c0,0,0,0,0.1,0l0,0c0,0,0,0,0.1,0l0,0
		c0.1,0,0.2,0,0.3,0l0,0c0,0,0,0,0.1,0l0,0l0,0l0,0l0,0l0,0l0,0l0,0c0,0,0,0,0.1,0l0,0c0,0,0,0,0.1,0l0,0l0,0l0,0l0,0l0,0l0,0l0,0
		l0,0l0,0l0,0c0.3,0.1,0.7,0.1,1,0.2l0.2-1.5C168,379.8,165.4,379.3,162.8,378.8L162.8,378.8z M177.5,381.2l-0.2,1.5
		c1.1,0.1,2.1,0.2,3.2,0.4l0,0c0,0,0,0,0.1,0l0,0c0,0,0,0,0.1,0l0,0c0,0,0,0,0.1,0l0,0h0.1l0,0l0,0l0,0l0,0l0,0l0,0l0,0l0,0l0,0l0,0
		l0,0l0,0l0,0l0,0l0,0l0,0l0,0l0,0l0,0l0,0c0.1,0,0.2,0,0.2,0l0,0c0,0,0,0,0.1,0l0,0c0,0,0,0,0.1,0l0,0c1.1,0.1,2.2,0.2,3.4,0.3
		l0.1-1.5C182.7,381.7,180.1,381.5,177.5,381.2L177.5,381.2z M192.3,382.3l-0.1,1.5c0.4,0,0.8,0,1.2,0l0,0c0,0,0,0,0.1,0l0,0
		c0,0,0,0,0.1,0l0,0c0,0,0,0,0.1,0l0,0l0,0l0,0l0,0l0,0l0,0c0,0,0,0,0.1,0l0,0l0,0l0,0l0,0l0,0h0.1l0,0l0,0l0,0c0.1,0,0.2,0,0.2,0
		l0,0c0.7,0,1.5,0,2.2,0l0,0c0,0,0,0,0.1,0l0,0c0.1,0,0.2,0,0.2,0l0,0c0,0,0,0,0.1,0l0,0c0.1,0,0.1,0,0.2,0l0,0c0,0,0,0,0.1,0l0,0
		c0,0,0,0,0.1,0l0,0c0.1,0,0.1,0,0.2,0l0,0l0,0l0,0l0,0l0,0h0.1l0,0l0,0l0,0l0,0l0,0l0,0l0,0c0,0,0,0,0.1,0l0,0l0,0l0,0l0,0l0,0l0,0
		c0,0,0,0,0.1,0l0,0l0,0l0,0l0,0l0,0l0,0l0,0c0,0,0,0,0.1,0l0,0l0,0l0,0l0,0l0,0c0,0,0,0,0.1,0l0,0c0,0,0,0,0.1,0l0,0l0,0l0,0l0,0
		l0,0c0,0,0,0,0.1,0l0,0c0,0,0,0,0.1,0l0,0l0,0l0,0c0,0,0,0,0.1,0l0,0c0,0,0,0,0.1,0l0,0l0,0l0,0l0,0l0,0c0,0,0,0,0.1,0l0,0l0,0
		c0,0,0,0,0.1,0l0,0c0,0,0,0,0.1,0l0,0c0,0,0,0,0.1,0l0,0c0,0,0,0,0.1,0l0,0l0,0c0.1,0,0.1,0,0.2,0v-1.5h-0.5
		C197.2,382.5,194.8,382.4,192.3,382.3L192.3,382.3z M215.1,381.9c-2.6,0.2-5.3,0.4-7.9,0.5l0.1,1.5c2.5-0.1,4.9-0.2,7.3-0.4l0,0
		c0,0,0,0,0.1,0l0,0c0.1,0,0.2,0,0.3,0l0,0c0,0,0,0,0.1,0l0,0c0,0,0,0,0.1,0l0,0c0,0,0,0,0.1,0l0,0c0,0,0,0,0.1,0L215.1,381.9
		L215.1,381.9z M229.9,380c-2.6,0.4-5.2,0.8-7.9,1.1l0.2,1.5c0.4,0,0.7-0.1,1.1-0.1l0,0l0,0l0,0l0,0l0,0l0,0l0,0l0,0
		c2.2-0.3,4.4-0.6,6.6-1L229.9,380L229.9,380z M244.4,377c-2.6,0.6-5.2,1.2-7.7,1.8l0.3,1.5c1.2-0.2,2.4-0.5,3.5-0.8l0,0
		c0.1,0,0.2-0.1,0.3-0.1l0,0c0,0,0,0,0.1,0l0,0c0,0,0,0,0.1,0l0,0c0,0,0,0,0.1,0l0,0c0,0,0,0,0.1,0l0,0c0,0,0,0,0.1,0l0,0
		c0,0,0,0,0.1,0l0,0l0,0l0,0l0,0l0,0l0,0l0,0l0,0l0,0l0,0l0,0c0,0,0,0,0.1,0l0,0l0,0l0,0l0,0l0,0l0,0l0,0l0,0l0,0l0,0l0,0l0,0l0,0
		l0,0h0.1l0,0l0,0l0,0l0,0l0,0l0,0l0,0l0,0l0,0l0,0l0,0l0,0l0,0h0.1l0,0l0,0l0,0l0,0l0,0l0,0l0,0l0,0l0,0l0,0l0,0l0,0l0,0h0.1l0,0
		l0,0l0,0l0,0l0,0l0,0l0,0l0,0l0,0l0,0l0,0l0,0c0,0,0,0,0.1,0l0,0c0,0,0,0,0.1,0l0,0c0,0,0,0,0.1,0l0,0c0,0,0,0,0.1,0l0,0
		c0,0,0,0,0.1,0l0,0c0,0,0,0,0.1,0l0,0c0.3-0.1,0.5-0.1,0.8-0.2L244.4,377L244.4,377z M258.7,372.7c-2.5,0.9-5,1.7-7.6,2.4l0.4,1.4
		c0.3-0.1,0.6-0.2,1-0.3l0,0c0.2,0,0.3-0.1,0.5-0.1l0,0c0,0,0,0,0.1,0l0,0c0,0,0,0,0.1,0l0,0c0.1,0,0.2-0.1,0.4-0.1l0,0
		c0,0,0,0,0.1,0l0,0c0,0,0,0,0.1,0l0,0c0,0,0,0,0.1,0l0,0c0,0,0,0,0.1,0l0,0c0.1,0,0.2-0.1,0.3-0.1l0,0c0,0,0,0,0.1,0l0,0
		c0,0,0,0,0.1,0l0,0c0,0,0,0,0.1,0l0,0c0.1,0,0.2-0.1,0.3-0.1l0,0c0,0,0,0,0.1,0l0,0l0,0l0,0l0,0l0,0l0,0l0,0c0,0,0,0,0.1,0l0,0
		c0.1,0,0.2,0,0.2-0.1l0,0l0,0l0,0l0,0l0,0l0,0l0,0l0,0l0,0l0,0l0,0h0.1l0,0l0,0l0,0l0,0l0,0l0,0l0,0l0,0l0,0l0,0l0,0l0,0l0,0
		c0,0,0,0,0.1,0l0,0l0,0l0,0l0,0l0,0l0,0l0,0l0,0l0,0l0,0l0,0l0,0l0,0l0,0c0,0,0,0,0.1,0l0,0c0,0,0,0,0.1,0l0,0l0,0l0,0l0,0l0,0l0,0
		l0,0l0,0l0,0l0,0l0,0c0.1,0,0.1,0,0.2-0.1l0,0c0,0,0,0,0.1,0l0,0l0,0l0,0c0,0,0,0,0.1,0l0,0c0,0,0,0,0.1,0l0,0c0,0,0,0,0.1,0l0,0
		c0.1,0,0.1,0,0.2-0.1l0,0c0,0,0,0,0.1,0l0,0c0,0,0,0,0.1,0l0,0c0,0,0,0,0.1,0l0,0c0,0,0,0,0.1,0l0,0c0.1,0,0.2-0.1,0.3-0.1l0,0
		c0,0,0,0,0.1,0l0,0c0,0,0,0,0.1,0l0,0c0,0,0,0,0.1,0l0,0c0,0,0,0,0.1,0l0,0c0.1,0,0.2-0.1,0.3-0.1l0,0c0,0,0,0,0.1,0l0,0
		c0,0,0,0,0.1,0l0,0c0.1,0,0.3-0.1,0.4-0.1L258.7,372.7L258.7,372.7z M272.5,367.4c-2.4,1.1-4.9,2.1-7.3,3l0.5,1.4
		c0.2-0.1,0.3-0.1,0.5-0.2l0,0c0.1-0.1,0.3-0.1,0.4-0.2l0,0l0,0l0,0l0,0l0,0l0,0l0,0l0,0l0,0l0,0l0,0c0,0,0.1,0,0.1-0.1l0,0l0,0l0,0
		l0,0l0,0l0,0l0,0l0,0l0,0l0,0l0,0l0,0c0,0,0,0,0.1,0l0,0c0,0,0.1,0,0.1-0.1l0,0c0,0,0,0,0.1,0l0,0c0,0,0,0,0.1,0l0,0c0,0,0,0,0.1,0
		l0,0c0,0,0,0,0.1,0l0,0c0,0,0,0,0.1,0l0,0c1.7-0.7,3.5-1.4,5.2-2.2L272.5,367.4L272.5,367.4z M285.9,360.9
		c-2.3,1.2-4.7,2.5-7.1,3.6l0.7,1.4c1-0.5,2-1,3-1.5l0,0c0.1-0.1,0.3-0.1,0.4-0.2l0,0c0,0,0,0,0.1,0l0,0c0,0,0,0,0.1,0l0,0
		c0,0,0,0,0.1,0l0,0c0.1-0.1,0.2-0.1,0.4-0.2l0,0c0,0,0,0,0.1,0l0,0c0,0,0,0,0.1,0l0,0c1-0.5,2-1,3-1.6L285.9,360.9L285.9,360.9z
		 M298.7,353.3c-2.2,1.4-4.5,2.8-6.8,4.2l0.8,1.3c0.7-0.4,1.5-0.9,2.2-1.3l0,0l0,0l0,0l0,0l0,0l0,0l0,0l0,0l0,0l0,0l0,0l0,0l0,0l0,0
		c0,0,0,0,0.1,0l0,0c0,0,0,0,0.1,0l0,0l0,0l0,0l0,0l0,0l0,0l0,0l0,0l0,0l0,0l0,0c0,0,0,0,0.1,0l0,0c1.3-0.8,2.5-1.6,3.8-2.4
		L298.7,353.3L298.7,353.3z M310.9,344.7c-2.1,1.6-4.2,3.2-6.4,4.7l0.9,1.2c1.1-0.8,2.2-1.5,3.2-2.3l0,0c0,0,0,0,0.1,0l0,0
		c0,0,0,0,0.1,0l0,0c0,0,0,0,0.1,0l0,0c0.1,0,0.1-0.1,0.2-0.1l0,0l0,0l0,0l0,0l0,0l0,0l0,0l0,0l0,0l0,0l0,0l0,0l0,0l0,0
		c0.1-0.1,0.2-0.2,0.3-0.3l0,0c0.7-0.5,1.5-1.1,2.2-1.7L310.9,344.7L310.9,344.7z M322.3,335.1c-1.9,1.8-4,3.5-6,5.2l1,1.2
		c0.9-0.8,1.8-1.6,2.8-2.3l0,0c0.1-0.1,0.2-0.2,0.3-0.3l0,0l0,0l0,0l0,0l0,0l0,0l0,0l0,0l0,0l0,0l0,0l0,0l0,0l0,0
		c0.1,0,0.1-0.1,0.2-0.1l0,0l0,0l0,0l0,0l0,0l0,0l0,0l0,0l0,0c0.8-0.7,1.5-1.3,2.3-2L322.3,335.1L322.3,335.1z M332.9,324.7
		c-1.8,1.9-3.7,3.8-5.5,5.7l1.1,1.1c1.4-1.4,2.8-2.8,4.1-4.2l0,0l0,0l0,0l0,0l0,0l0,0l0,0l0,0l0,0l0,0l0,0l0,0l0,0l0,0l0.1-0.1l0,0
		l0,0l0,0l0,0l0,0c0.3-0.3,0.6-0.7,0.9-1L332.9,324.7L332.9,324.7z M342.6,313.4c-1.6,2.1-3.3,4.1-5.1,6.1l1.1,1
		c0.5-0.6,1-1.2,1.5-1.8l0,0l0,0l0,0l0,0l0,0l0,0l0,0l0,0l0,0l0,0l0,0l0,0l0,0l0,0c0,0,0,0,0-0.1l0,0l0,0l0,0l0,0l0,0l0,0l0,0l0,0
		l0,0l0,0l0,0c1-1.2,2-2.5,3-3.7L342.6,313.4L342.6,313.4z M351.3,301.4c-1.5,2.2-3,4.4-4.6,6.5l1.2,0.9l0,0l0,0l0,0l0,0l0,0l0,0
		l0,0l0,0l0,0l0,0l0,0c0-0.1,0.1-0.1,0.1-0.2l0,0l0,0l0,0l0,0l0,0l0,0l0,0l0,0l0,0l0,0l0,0c0.1-0.1,0.1-0.2,0.2-0.3l0,0l0,0l0,0l0,0
		l0,0l0,0l0,0l0,0l0,0c0.1-0.1,0.2-0.2,0.3-0.3l0,0l0,0l0,0l0,0l0,0l0,0l0,0l0,0l0,0l0,0l0,0c0-0.1,0.1-0.1,0.1-0.2l0,0l0,0l0,0l0,0
		l0,0l0,0l0,0l0,0l0,0l0,0l0,0l0,0l0,0l0,0l0,0l0,0c0,0,0,0,0-0.1l0,0l0,0l0,0l0,0l0,0l0,0l0,0l0,0l0,0l0,0l0,0c0,0,0,0,0-0.1l0,0
		c0.9-1.2,1.7-2.5,2.6-3.7L351.3,301.4L351.3,301.4z M359.1,288.7c-1.3,2.3-2.6,4.6-4,6.8l1.3,0.8c0.1-0.1,0.2-0.3,0.3-0.4l0,0l0,0
		l0,0l0,0l0,0l0,0l0,0l0,0l0,0l0,0l0,0l0,0l0,0l0,0c0,0,0,0,0-0.1l0,0c0,0,0,0,0-0.1l0,0l0,0l0,0l0,0l0,0l0,0l0,0l0,0l0,0
		c0,0,0,0,0-0.1l0,0c1.1-1.9,2.2-3.8,3.3-5.7L359.1,288.7L359.1,288.7z M365.8,275.4c-1.1,2.4-2.2,4.8-3.4,7.2l1.3,0.7
		c0.5-1.1,1.1-2.2,1.6-3.3l0,0c0,0,0,0,0-0.1l0,0c0,0,0,0,0-0.1l0,0c0.6-1.3,1.2-2.5,1.8-3.8L365.8,275.4L365.8,275.4z M371.4,261.7
		c-0.9,2.5-1.8,5-2.8,7.4l1.4,0.6c0.3-0.7,0.6-1.4,0.9-2.1l0,0c0,0,0,0,0-0.1l0,0c0,0,0,0,0-0.1l0,0c0,0,0,0,0-0.1l0,0
		c0-0.1,0.1-0.1,0.1-0.2l0,0l0,0l0,0l0,0l0,0l0,0l0,0l0,0l0,0l0,0l0,0l0,0c0-0.1,0-0.1,0.1-0.2l0,0c0,0,0,0,0-0.1l0,0c0,0,0,0,0-0.1
		l0,0c0,0,0,0,0-0.1l0,0c0.5-1.4,1.1-2.8,1.6-4.2L371.4,261.7L371.4,261.7z M375.8,247.5c-0.7,2.5-1.4,5.1-2.2,7.6l1.4,0.5
		c0.8-2.5,1.5-5.1,2.2-7.7L375.8,247.5L375.8,247.5z M379.1,233c-0.5,2.6-1,5.2-1.6,7.8l1.5,0.3c0-0.1,0-0.2,0.1-0.3l0,0l0,0l0,0
		l0,0l0,0l0,0l0,0l0,0c0-0.1,0-0.2,0.1-0.3l0,0c0.4-1.8,0.8-3.5,1.1-5.3l0,0c0,0,0,0,0-0.1l0,0c0,0,0,0,0-0.1l0,0c0,0,0,0,0-0.1l0,0
		v-0.1l0,0l0,0l0,0l0,0l0,0l0,0l0,0l0,0c0,0,0,0,0-0.1l0,0c0.1-0.3,0.1-0.7,0.2-1L379.1,233L379.1,233z M381.1,218.2
		c-0.3,2.6-0.6,5.3-0.9,7.9l1.5,0.2c0.1-0.4,0.1-0.8,0.2-1.2l0,0c0,0,0,0,0-0.1l0,0c0,0,0,0,0-0.1l0,0c0-0.1,0-0.2,0-0.3l0,0
		c0,0,0,0,0-0.1l0,0c0,0,0,0,0-0.1l0,0c0,0,0,0,0-0.1l0,0c0-0.1,0-0.2,0-0.3l0,0c0,0,0,0,0-0.1l0,0c0,0,0,0,0-0.1l0,0
		c0-0.1,0-0.2,0-0.3l0,0c0,0,0,0,0-0.1l0,0c0,0,0,0,0-0.1l0,0c0.1-1,0.2-2,0.4-3l0,0c0,0,0,0,0-0.1l0,0c0,0,0,0,0-0.1l0,0
		c0-0.1,0-0.1,0-0.2l0,0l0,0l0,0l0,0l0,0l0,0l0,0l0,0c0.1-0.5,0.1-1.1,0.2-1.6L381.1,218.2L381.1,218.2z M382,203.4
		c0,2.6-0.1,5.3-0.3,7.9l1.5,0.1c0-0.5,0.1-1.1,0.1-1.6l0,0c0,0,0,0,0-0.1l0,0c0,0,0,0,0-0.1l0,0v-0.1l0,0c0,0,0,0,0-0.1l0,0
		c0,0,0,0,0-0.1l0,0c0,0,0,0,0-0.1l0,0c0,0,0,0,0-0.1l0,0c0,0,0,0,0-0.1l0,0c0,0,0,0,0-0.1l0,0l0,0l0,0l0,0l0,0l0,0l0,0l0,0v-0.1
		l0,0l0,0l0,0l0,0l0,0l0,0l0,0c0,0,0,0,0-0.1l0,0c0-0.1,0-0.2,0-0.2l0,0c0,0,0,0,0-0.1l0,0c0,0,0,0,0-0.1l0,0
		c0.1-1.6,0.1-3.1,0.1-4.7L382,203.4L382,203.4z M383.1,188.4l-1.5,0.1c0.2,2.6,0.3,5.3,0.3,7.9h1.5
		C383.4,193.7,383.3,191,383.1,188.4L383.1,188.4z M381.6,173.5l-1.5,0.2c0.4,2.6,0.7,5.3,1,7.9l1.5-0.2c-0.2-1.9-0.4-3.7-0.6-5.5
		l0,0c0,0,0,0,0-0.1l0,0c0,0,0,0,0-0.1l0,0c0-0.1,0-0.2,0-0.2l0,0l0,0l0,0l0,0l0,0l0,0l0,0l0,0l0,0l0,0c0,0,0,0,0-0.1l0,0l0,0l0,0
		l0,0l0,0c0,0,0,0,0-0.1l0,0c0,0,0,0,0-0.1l0,0C381.7,174.4,381.6,173.9,381.6,173.5L381.6,173.5z M378.8,158.7l-1.5,0.3
		c0.6,2.6,1.1,5.2,1.6,7.8l1.5-0.3c-0.5-2.6-1-5.1-1.6-7.7l0,0C378.8,158.9,378.8,158.9,378.8,158.7
		C378.8,158.8,378.8,158.8,378.8,158.7C378.8,158.8,378.8,158.8,378.8,158.7C378.8,158.8,378.8,158.8,378.8,158.7
		C378.8,158.8,378.8,158.8,378.8,158.7L378.8,158.7z M374.8,144.3l-1.4,0.5c0.8,2.5,1.6,5.1,2.2,7.6l1.4-0.4
		c-0.2-0.6-0.3-1.1-0.5-1.7l0,0c0,0,0,0,0-0.1l0,0c0,0,0,0,0-0.1l0,0c0,0,0,0,0-0.1l0,0c0,0,0,0,0-0.1l0,0c0,0,0,0,0-0.1l0,0l0,0
		l0,0l0,0l0,0l0,0l0,0l0,0c0,0,0,0,0-0.1l0,0c-0.4-1.5-0.9-3-1.3-4.4l0,0l0,0l0,0l0,0l0,0l0,0l0,0l0,0l0,0c0-0.1,0-0.1,0-0.2l0,0
		l0,0l0,0l0,0l0,0l0,0l0,0l0,0l0,0l0,0l0,0l0,0l0,0l0,0C374.9,144.4,374.9,144.4,374.8,144.3L374.8,144.3L374.8,144.3L374.8,144.3z
		 M369.7,130.2l-1.4,0.6c1,2.4,2,4.9,2.9,7.4l1.4-0.5c-0.6-1.7-1.3-3.4-1.9-5.1l0,0c0,0,0,0,0-0.1l0,0c0,0,0,0,0-0.1l0,0
		c0,0,0,0,0-0.1l0,0c0-0.1-0.1-0.2-0.1-0.2l0,0l0,0l0,0l0,0l0,0l0,0l0,0l0,0l0,0l0,0l0,0l0,0l0,0c0-0.1,0-0.1-0.1-0.2l0,0l0,0l0,0
		l0,0l0,0l0,0l0,0l0,0l0,0l0,0l0,0l0,0l0,0c0-0.1,0-0.1-0.1-0.2l0,0l0,0l0,0l0,0l0,0l0,0l0,0l0,0l0,0l0,0l0,0c0-0.1-0.1-0.2-0.1-0.3
		l0,0v-0.1l0,0C369.7,130.3,369.7,130.2,369.7,130.2L369.7,130.2z M363.4,116.6l-1.3,0.7c1.2,2.3,2.4,4.7,3.5,7.1l1.4-0.6
		C365.8,121.4,364.6,119,363.4,116.6L363.4,116.6z M356,103.5l-1.3,0.8c1.4,2.2,2.7,4.5,4,6.8l1.3-0.7c-0.4-0.8-0.9-1.6-1.3-2.3l0,0
		c0,0,0,0,0-0.1l0,0l0,0l0,0l0,0l0,0l0,0l0,0l0,0l0,0c0,0,0-0.1-0.1-0.1l0,0c0,0,0,0,0-0.1l0,0l0,0l0,0l0,0l0,0l0,0l0,0l0,0l0,0l0,0
		l0,0l0,0l0,0l0,0l0,0c0,0,0,0,0-0.1l0,0l0,0l0,0l0,0l0,0l0,0l0,0l0,0l0,0l0,0l0,0l0,0l0,0l0,0l0,0l0,0l-0.1-0.1l0,0l0,0l0,0l0,0
		l0,0l0,0l0,0l0,0l0,0l0,0l0,0l0,0l0,0l0,0l0,0c-0.1-0.1-0.1-0.2-0.2-0.3l0,0c0,0,0,0,0-0.1l0,0l0,0l0,0l0,0l0,0l0,0l0,0
		c-0.1-0.1-0.1-0.2-0.2-0.4l0,0l0,0l0,0l0,0l0,0C356.7,104.6,356.4,104.1,356,103.5L356,103.5z M347.6,91.1l-1.2,0.9
		c1.6,2.1,3.1,4.3,4.6,6.5l1.2-0.8c-1-1.5-2-3-3.1-4.4l0,0c-0.1-0.1-0.1-0.2-0.2-0.2l0,0l0,0l0,0l0,0l0,0l0,0l0,0l0,0l0,0l0,0l0,0
		l0,0C348.4,92.2,348,91.6,347.6,91.1L347.6,91.1z M338.2,79.4l-1.1,1c1.7,2,3.4,4,5.1,6.1l1.2-0.9C341.7,83.5,340,81.4,338.2,79.4
		L338.2,79.4z M327.9,68.5l-1,1.1c1.9,1.8,3.8,3.7,5.6,5.7l1.1-1c-0.9-0.9-1.8-1.9-2.7-2.8l0,0l0,0l0,0l0,0l0,0l0,0l0,0l0,0l0,0l0,0
		l0,0l-0.1-0.1l0,0l0,0l0,0l0,0l0,0l0,0l0,0l0,0l0,0l0,0l0,0l0,0l0,0l0,0C329.4,70,328.7,69.3,327.9,68.5L327.9,68.5z M316.8,58.5
		l-1,1.2c2,1.7,4,3.4,6,5.2l1-1.1C320.8,62,318.8,60.2,316.8,58.5L316.8,58.5z M304.8,49.4l-0.9,1.2c2.2,1.5,4.3,3.1,6.4,4.7
		l0.9-1.2c-0.7-0.6-1.5-1.1-2.2-1.7l0,0c0,0,0,0-0.1,0l0,0c-0.1-0.1-0.1-0.1-0.2-0.2l0,0l0,0l0,0l0,0l0,0l0,0l0,0l0,0l0,0l0,0l0,0
		l0,0l0,0l0,0C307.2,51.1,306,50.3,304.8,49.4L304.8,49.4z M292.2,41.4l-0.8,1.3c2.3,1.3,4.5,2.7,6.8,4.1l0.8-1.3
		c-2.2-1.4-4.3-2.7-6.5-4l0,0l0,0l0,0l0,0l0,0l0,0C292.3,41.4,292.3,41.4,292.2,41.4C292.3,41.4,292.3,41.4,292.2,41.4L292.2,41.4
		L292.2,41.4L292.2,41.4L292.2,41.4z M278.9,34.3l-0.6,1.4c2.4,1.1,4.8,2.3,7.1,3.6l0.7-1.3c-0.2-0.1-0.5-0.3-0.7-0.4l0,0
		c0,0,0,0-0.1,0l0,0c0,0,0,0-0.1,0l0,0c-0.1-0.1-0.2-0.1-0.4-0.2l0,0c0,0,0,0-0.1,0l0,0c0,0,0,0-0.1,0l0,0c0,0,0,0-0.1,0l0,0
		c0,0,0,0-0.1,0l0,0c-0.1,0-0.2-0.1-0.2-0.1l0,0c0,0,0,0-0.1,0l0,0c0,0,0,0-0.1,0l0,0l0,0l0,0l0,0l0,0c0,0,0,0-0.1,0l0,0
		c0,0,0,0-0.1,0l0,0c-0.1,0-0.1-0.1-0.2-0.1l0,0c0,0,0,0-0.1,0l0,0l0,0l0,0l0,0l0,0l0,0l0,0c0,0,0,0-0.1,0l0,0
		c-0.1-0.1-0.2-0.1-0.3-0.2l0,0c0,0,0,0-0.1,0l0,0C281.7,35.7,280.4,35,278.9,34.3L278.9,34.3z M265.2,28.4l-0.5,1.4
		c2.5,0.9,4.9,1.9,7.4,3l0.6-1.4c-0.3-0.1-0.6-0.3-0.9-0.4l0,0c0,0,0,0-0.1,0l0,0c0,0,0,0-0.1,0l0,0c-0.1,0-0.2-0.1-0.3-0.1l0,0l0,0
		l0,0l0,0l0,0l0,0l0,0l0,0l0,0l0,0l0,0c0,0,0,0-0.1,0l0,0l0,0l0,0l0,0l0,0l0,0l0,0l0,0l0,0l0,0l0,0l0,0l0,0l0,0l0,0l0,0
		c0,0,0,0-0.1,0l0,0l0,0l0,0l0,0l0,0l0,0l0,0l0,0l0,0l0,0l0,0l0,0l0,0l0,0l0,0l0,0c0,0,0,0-0.1,0l0,0l0,0l0,0l0,0l0,0l0,0l0,0l0,0
		l0,0l0,0l0,0l0,0l0,0c-0.1,0-0.1-0.1-0.2-0.1l0,0l0,0l0,0l0,0l0,0l0,0l0,0l0,0l0,0l0,0l0,0C267.6,29.4,266.4,28.9,265.2,28.4
		L265.2,28.4z M250.9,23.7l-0.4,1.4c2.5,0.7,5.1,1.5,7.6,2.4l0.5-1.4c-0.2-0.1-0.5-0.2-0.7-0.2l0,0c0,0,0,0-0.1,0l0,0c0,0,0,0-0.1,0
		l0,0c0,0,0,0-0.1,0l0,0c0,0,0,0-0.1,0l0,0h-0.1l0,0l0,0l0,0l0,0l0,0l0,0l0,0l0,0l0,0l0,0l0,0l0,0c-0.1,0-0.1,0-0.2-0.1l0,0l0,0l0,0
		l0,0l0,0l0,0l0,0C254.8,24.8,252.9,24.2,250.9,23.7L250.9,23.7z M236.4,20.1l-0.3,1.5c2.6,0.5,5.2,1.1,7.7,1.7l0.4-1.5
		c0,0,0,0-0.1,0l0,0l0,0l0,0l0,0l0,0l0,0l0,0l0,0c0,0,0,0-0.1,0l0,0C241.4,21.1,238.9,20.6,236.4,20.1L236.4,20.1z M221.6,17.7
		l-0.2,1.5c2.6,0.3,5.3,0.7,7.9,1.1l0.2-1.5C226.9,18.4,224.2,18,221.6,17.7L221.6,17.7z M206.6,16.5l-0.1,1.5
		c2.6,0.1,5.3,0.3,7.9,0.5l0.1-1.5c-0.5,0-1-0.1-1.5-0.1l0,0l0,0l0,0l0,0l0,0l0,0l0,0l0,0l0,0l0,0c0,0,0,0-0.1,0l0,0l0,0l0,0l0,0
		l0,0c0,0,0,0-0.1,0l0,0c0,0,0,0-0.1,0l0,0c-0.1,0-0.1,0-0.2,0l0,0c0,0,0,0-0.1,0l0,0c-0.5,0-1.1-0.1-1.6-0.1l0,0c0,0,0,0-0.1,0l0,0
		c0,0,0,0-0.1,0l0,0c-0.1,0-0.1,0-0.2,0l0,0c0,0,0,0-0.1,0l0,0l0,0l0,0l0,0l0,0c0,0,0,0-0.1,0l0,0c0,0,0,0-0.1,0l0,0l0,0l0,0l0,0
		l0,0l0,0l0,0l0,0c-0.1,0-0.2,0-0.2,0l0,0c0,0,0,0-0.1,0l0,0c0,0,0,0-0.1,0l0,0C208.3,16.6,207.5,16.6,206.6,16.5L206.6,16.5z"/>
</g>
</svg>
