<?xml version="1.0" encoding="utf-8"?>
<!-- Generator: Adobe Illustrator 23.1.0, SVG Export Plug-In . SVG Version: 6.00 Build 0)  -->
<svg version="1.1" id="Layer_1" xmlns="http://www.w3.org/2000/svg" xmlns:xlink="http://www.w3.org/1999/xlink" x="0px" y="0px"
	 viewBox="0 0 200 200" style="enable-background:new 0 0 200 200;" xml:space="preserve">
<style type="text/css">
	.st0{fill:url(#SVGID_1_);}
	.st1{fill:#FFFFFF;}
	.st2{fill:#006DCC;}
</style>
<title>btn_playback_widget_pause_focus</title>
<g id="pause_button">
	
		<linearGradient id="SVGID_1_" gradientUnits="userSpaceOnUse" x1="193.525" y1="698.15" x2="20.825" y2="698.15" gradientTransform="matrix(1 0 0 1 -7.18 -598.15)">
		<stop  offset="0" style="stop-color:#006DCC"/>
		<stop  offset="1" style="stop-color:#007BE6"/>
	</linearGradient>
	<circle class="st0" cx="100" cy="100" r="86.3"/>
	<path id="pause" class="st1" d="M87.1,58.1H71c-3.6,0.1-6.4,3-6.4,6.6v70.7c0,3.6,2.8,6.5,6.4,6.6h16.1c3.6-0.1,6.4-3,6.4-6.6V64.6
		C93.5,61.1,90.6,58.2,87.1,58.1z M129,58.1h-16.1c-3.6,0-6.6,2.9-6.6,6.5c0,0,0,0,0,0v70.7c0,3.6,2.9,6.6,6.5,6.6c0,0,0,0,0,0H129
		c3.6,0,6.6-2.9,6.6-6.6l0,0V64.6C135.5,61,132.6,58.1,129,58.1L129,58.1z"/>
</g>
<path class="st2" d="M100,192.9h0.6c1,0,1.9,0,2.9-0.1V192c-1.3,0-2.7,0.1-4,0.1v0.8H100z M107.6,192.6h1.3c0.2,0,0.4-0.1,0.6-0.1
	l-0.1-0.8c-1.3,0.1-2.7,0.3-4,0.4L107.6,192.6L107.6,192.6z M115.1,191.6c1.3-0.2,2.7-0.5,4-0.8l-0.2-0.8l-3.9,0.8L115.1,191.6
	L115.1,191.6z M122.5,190.1c0.1,0,0.3,0,0.3-0.1h0.1c0.1,0,0.1,0,0.2-0.1h0.3c0,0,0,0,0.1,0h0.2c0,0,0.1-0.1,0.2-0.1l0,0l2.2-0.6
	l-0.2-0.7c-1.3,0.4-2.6,0.7-3.9,1.1L122.5,190.1L122.5,190.1z M129.8,187.9c0.1-0.1,0.2-0.1,0.4-0.1h0.1c0.1,0,0.1,0,0.1,0l0,0
	c0,0,0-0.1,0.1-0.1l0,0c0.1,0,0.1-0.1,0.1-0.1h0.1c0.9-0.3,1.7-0.6,2.5-1L133,186c-1.3,0.5-2.5,1-3.8,1.4L129.8,187.9L129.8,187.9z
	 M136.8,185.2c1.3-0.6,2.5-1.1,3.7-1.7l-0.4-0.6c-1.2,0.6-2.4,1.2-3.6,1.7L136.8,185.2L136.8,185.2z M143.7,181.9l2-1.1l0,0
	c0,0,0,0,0.1,0h0.1c0.4-0.2,0.7-0.4,1.1-0.6l-0.4-0.7l-3.5,2L143.7,181.9L143.7,181.9z M150.2,178.1l1.6-1.1h0.2l0.1-0.1h0.1
	c0,0,0-0.1,0.1-0.1l0,0c0.2-0.2,0.4-0.4,0.7-0.6l0,0c0.1-0.1,0.1-0.1,0.1-0.1l0,0c0.1,0,0.1-0.1,0.1-0.1l0,0l-0.5-0.6
	c-1.1,0.8-2.2,1.5-3.3,2.2L150.2,178.1L150.2,178.1z M156.4,173.8L156.4,173.8c0.1-0.1,0.1-0.1,0.1-0.1l0,0c0.1-0.1,0.1-0.1,0.2-0.1
	h0.1l1.5-1.2l0,0c0.2-0.1,0.3-0.3,0.5-0.4l-0.5-0.6c-1,0.9-2.1,1.7-3.1,2.5L156.4,173.8L156.4,173.8z M162.2,168.9
	c1-0.9,2-1.8,2.9-2.8l-0.6-0.6c-1,0.9-1.9,1.9-2.9,2.7L162.2,168.9z M167.7,163.6c0.7-0.8,1.4-1.5,2.1-2.3l0,0h0.1l0,0l0.1-0.1l0,0
	c0-0.1,0-0.1,0.1-0.1l-0.6-0.5c-0.9,1-1.8,2-2.7,3L167.7,163.6L167.7,163.6z M172.7,157.9c0.9-1.1,1.7-2.1,2.5-3.2l-0.6-0.5
	l-2.4,3.2L172.7,157.9z M177.2,151.8c0.1-0.2,0.3-0.4,0.4-0.6l0,0v-0.1l0,0c0,0,0.1-0.1,0.1-0.1l0,0c0.1,0,0.1,0,0.1-0.1l0,0l0,0
	l0,0c0-0.1,0-0.1,0-0.1l0,0l0,0l0,0c0.1-0.1,0.1-0.1,0.1-0.1l0,0v-0.1l0,0v-0.1l0,0l0,0l0,0v-0.1l0,0c0,0,0-0.1,0.1-0.1l0,0l0,0l0,0
	v-0.1l0,0l0,0l0,0c0-0.1,0-0.1,0.1-0.1l0,0v-0.1l0,0c0.2-0.3,0.4-0.6,0.6-0.9l-0.6-0.4c-0.7,1.1-1.4,2.3-2.2,3.4l1.4-0.2
	L177.2,151.8z M181.1,145.3c0.1-0.1,0.1-0.3,0.3-0.4l0,0v-0.1l0,0l0,0l0,0v-0.1l0,0v-0.1l0,0v-0.1l0,0l0,0l0,0
	c0.3-0.4,0.5-0.9,0.7-1.3l0,0v-0.1l0,0l0,0l0,0v-0.1l0,0l0,0l0,0c0-0.1,0.1-0.1,0.1-0.1l0,0l0,0l0,0v-0.1l0,0c0-0.1,0.1-0.1,0.1-0.2
	l0,0v-0.1l0,0l0,0l0,0v-0.1l0,0l0.3-0.6l-0.7-0.4c-0.6,1.2-1.2,2.4-1.9,3.5l1.2,0.1L181.1,145.3z M184.5,138.5l0.8-1.7l0,0v-0.1l0,0
	v-0.1l0,0l0,0l0,0v-0.1l0,0c0,0,0.1,0,0.1-0.1l0,0 M185.3,136.6L185.3,136.6c0.2-0.5,0.4-1,0.6-1.4l-0.7-0.3c-0.5,1.2-1,2.5-1.6,3.7
	l0.8,0.1L185.3,136.6z M187.4,131.5c0.1-0.3,0.2-0.6,0.3-0.8l0,0v-0.1l0,0l0,0l0,0v-0.1l0,0l0,0l0,0v-0.1l0,0
	c0.2-0.6,0.4-1.2,0.6-1.8l0,0l0,0l0,0v-0.1l0,0l0,0l0,0v-0.1l0,0v-0.1l0,0c0.1-0.1,0.1-0.4,0.1-0.5l-0.7-0.2
	c-0.4,1.3-0.8,2.5-1.3,3.8L187.4,131.5z M189.7,124.3c0.4-1.3,0.7-2.6,1-3.9l-0.8-0.2c-0.3,1.3-0.6,2.6-1,3.9
	C188.9,124.1,189.7,124.3,189.7,124.3z M191.4,116.9c0-0.3,0.1-0.7,0.2-1l0,0c0-0.1,0-0.1,0.1-0.2l0,0l0,0l0,0c0-0.1,0-0.1,0.1-0.2
	l0,0l0,0l0,0c0.1-0.9,0.3-1.7,0.4-2.5l-0.8-0.1c-0.2,1.3-0.4,2.6-0.7,3.9l0.7,0.2L191.4,116.9z M192.4,109.4L192.4,109.4
	L192.4,109.4L192.4,109.4L192.4,109.4L192.4,109.4L192.4,109.4L192.4,109.4L192.4,109.4l0.3-3.7H192c-0.1,1.3-0.2,2.7-0.3,4h0.8
	V109.4z M192.9,101.8v-0.2l0,0l0,0l0,0l0,0l0,0l0,0l0,0v-1.2l0,0l0,0l0,0l0,0l0,0l0,0l0,0v-0.1l0,0l0,0l0,0l0,0l0,0V100l0,0l0,0l0,0
	l0,0l0,0v-0.1l0,0l0,0l0,0v-0.1l0,0l0,0l0,0v-0.1l0,0l0,0l0,0v-1l0,0v-0.1l0,0l0,0l0,0l0,0l0,0v-0.1l0,0v-0.4h-0.8v4L192.9,101.8z
	 M192,94.3l0.8-0.1c-0.1-1.4-0.2-2.7-0.4-4l-0.8,0.1C191.8,91.7,191.9,93,192,94.3L192,94.3z M191.2,86.8l0.8-0.1
	c-0.1-0.7-0.2-1.3-0.3-1.9l0,0l0,0l0,0c0-0.1,0-0.1-0.1-0.2l0,0l0,0l0,0v-0.1l0,0l0,0l0,0l0,0l0,0c-0.1-0.3-0.1-0.6-0.1-0.8
	l-0.8,0.2c0.1,0.5,0.4,1.8,0.5,3.1V86.8z M189.8,79.4l0.8-0.2l0,0l0,0l0,0v-0.1l0,0l0,0l0,0c-0.1-0.8-0.4-1.5-0.6-2.2l0,0v-0.1l0,0
	l0,0l0,0c0-0.1,0-0.1-0.1-0.2l0,0v-0.1l0,0l0,0l0,0l0,0l0,0c0,0-0.1-0.1-0.1-0.2l0,0l0,0l0,0l0,0l0,0c0,0,0-0.2,0-0.2l0,0
	c-0.1-0.3-0.1-0.6-0.2-0.9l-0.7,0.2c0.3,1.4,0.6,2.7,0.9,4L189.8,79.4z M187.9,72.1l0.7-0.3c-0.2-0.7-0.4-1.4-0.7-2.1l0,0
	c0,0,0-0.2,0-0.2l0,0l0,0l0,0l0,0l0,0v-0.1l0,0l0,0l0,0l0,0l0,0v-0.1l0,0l0,0l0,0l0,0l0,0l0,0l0,0l0,0l0,0l-0.7,0.3
	c-0.2,0.3,0.3,1.5,0.7,2.8L187.9,72.1z M185.3,65.1l0.7-0.3c-0.5-1.3-1.1-2.5-1.6-3.7l-0.7,0.3C184.3,62.7,184.8,63.9,185.3,65.1
	L185.3,65.1z M182.2,58.3l0.7-0.4c-0.3-0.5-0.6-1.1-0.9-1.6l0,0l0,0l0,0v0l0,0v-0.1l0,0c-0.1-0.1-0.1-0.1-0.1-0.2l0,0v0l0,0
	c-0.3-0.5-0.6-1.1-0.9-1.6l-0.7,0.3C181,55.9,181.6,57.2,182.2,58.3L182.2,58.3z M178.5,51.8l0.7-0.4c-0.4-0.8-0.9-1.5-1.4-2.2l0,0
	c0,0-0.1,0-0.1-0.1l0,0V49l0,0l0,0l0,0 M177.7,49L177.7,49l-0.6,0.4c0,0.2,0.8,1.3,1.4,2.4L177.7,49z M174.3,45.5l0.6-0.5
	c-0.2-0.3-0.4-0.5-0.5-0.7l0,0c-0.6-0.8-1.2-1.5-1.8-2.3l0,0l-0.6,0.5C172.7,43.4,173.6,44.4,174.3,45.5L174.3,45.5z M169.6,39.6
	l0.6-0.5c-0.6-0.7-1.3-1.4-1.9-2.1l0,0h-0.1l0,0c-0.2-0.2-0.4-0.3-0.5-0.5l-0.6,0.5C167.9,37.7,168.8,38.7,169.6,39.6L169.6,39.6z
	 M164.5,34.2l0.5-0.5c-0.3-0.3-0.5-0.5-0.7-0.7l0,0l-0.1-0.2l0,0l-0.1-0.1l0,0l-0.1-0.2l0,0c-0.5-0.5-1-0.9-1.5-1.3l-0.5,0.6
	C162.6,32.3,163.6,33.2,164.5,34.2z M158.9,29.1l0.5-0.6l-1-0.8l0,0c-0.4-0.3-0.8-0.7-1.2-1l0,0c-0.2-0.2-0.4-0.3-0.6-0.4l-0.4,0.6
	C156.8,27.4,157.9,28.2,158.9,29.1L158.9,29.1z M152.9,24.6l0.4-0.6l0,0l-0.1,0l0,0l-0.4-0.3l0,0l-0.5-0.4h-0.1
	c0-0.1-0.1-0.1-0.2-0.1l0,0l-0.1,0l0,0c-0.1,0-0.1,0-0.1,0l0,0c0,0-0.1-0.1-0.2-0.1l0,0c-0.3-0.2-0.6-0.4-0.9-0.6l-0.4,0.7
	C151.3,23.4,152.1,24,152.9,24.6z M146.6,20.5l0.4-0.7c-0.6-0.4-1.3-0.7-1.9-1.1H145 M144.9,18.7L144.9,18.7
	c-0.4-0.3-0.9-0.5-1.3-0.7l-0.4,0.7c1,0.5,2.1,1.2,3.3,1.8L144.9,18.7z M140,17l0.4-0.7c-0.2-0.1-0.5-0.2-0.7-0.4h-0.2
	c0,0-0.1,0-0.1,0h-0.1c-0.1,0-0.1-0.1-0.1-0.1h-0.2c-0.1,0-0.1,0-0.2-0.1h-0.1c-0.4-0.1-0.8-0.4-1.1-0.5h-0.1c0,0-0.1,0-0.1,0h-0.1
	c-0.2-0.1-0.4-0.2-0.7-0.3l-0.3,0.7C137.5,16,138.8,16.4,140,17z M133.1,14l0.3-0.7c-0.5-0.2-1-0.4-1.4-0.5l0,0
	c-0.1,0-0.1-0.1-0.1-0.1h-0.1c0,0,0,0-0.1,0h-0.2c-0.1,0-0.1,0-0.1,0H131c-0.1,0-0.2-0.1-0.2-0.1h-0.1c-0.1,0-0.1,0-0.1,0h-0.2
	c-0.1,0-0.1,0-0.1,0h-0.1c-0.1,0-0.1-0.1-0.2-0.1l-0.3,0.7C130.9,13.3,132,13.6,133.1,14L133.1,14z M125.9,11.6l0.2-0.7l-0.5-0.1
	l0,0c-0.1,0-0.1,0-0.2,0l0,0c-0.4-0.1-0.9-0.3-1.3-0.4H124h-0.1l0,0c-0.4-0.1-0.9-0.3-1.4-0.4l-0.2,0.8c1.1,0.2,2.4,0.5,3.6,0.9
	L125.9,11.6z M118.7,9.8l0.1-0.8c-0.4-0.1-0.8-0.1-1.2-0.3h-0.5c-0.1,0-0.1,0-0.2-0.1l0,0l-0.7-0.2l0,0c-0.1,0-0.1,0-0.2,0h-0.4
	c-0.2,0-0.3,0-0.5-0.1l-0.1,0.8C116.1,9.3,117.3,9.6,118.7,9.8L118.7,9.8z M111.2,8.5l0.1-0.7c-0.5,0-1.1-0.1-1.6-0.2h-0.4l-1.7-0.2
	v0.8C108.7,8.3,110,8.4,111.2,8.5L111.2,8.5z M103.7,8l0.1-0.8h-3.4V8h0.3C101.6,7.9,102.7,7.9,103.7,8z M92.2,8.2
	c1.3-0.1,2.7-0.2,4-0.2V7.2c-1.3,0-2.5,0.1-3.7,0.2h-0.4L92.2,8.2L92.2,8.2z M84.7,9.2c1.3-0.2,2.6-0.4,4-0.6l-0.1-0.8
	c-0.2,0-0.3,0.1-0.6,0.1l0,0c-1.1,0.1-2.2,0.3-3.3,0.5L84.7,9.2L84.7,9.2z M77.4,10.7l3.9-0.9L81.1,9c-0.6,0.1-1.2,0.3-1.8,0.4l0,0
	c0,0-0.1,0-0.2,0h-0.8c-0.2,0.1-0.3,0.1-0.4,0.1L77.4,10.7L77.4,10.7z M70.2,12.9c1.3-0.5,2.5-0.9,3.8-1.2L73.8,11l-0.5,0.1l0,0
	c-0.1,0-0.2,0-0.3,0H73c0,0-0.1,0.1-0.2,0.1h-0.2c0,0-0.1,0-0.2,0h-0.2c-0.1,0-0.1,0-0.2,0H72c-0.1,0-0.1,0-0.1,0h-0.2
	c0,0,0,0-0.1,0.1h-0.2c-0.1,0-0.1,0-0.1,0h-0.2c0,0-0.1,0.1-0.2,0.1h-0.2c0,0-0.1,0-0.2,0h-0.1c0,0-0.2,0.1-0.2,0.1L70.2,12.9
	L70.2,12.9z M63.2,15.6c1.2-0.6,2.5-1.1,3.7-1.5l-0.3-0.7c-0.1,0-0.2,0.1-0.3,0.1l0,0c-0.1,0-0.2,0-0.2,0.1l0,0h-0.1l0,0 M66.1,13.6
	h-0.3c-0.9,0.4-1.8,0.7-2.6,1.1l0,0.8L66.1,13.6z M56.4,18.9c1.2-0.6,2.4-1.3,3.6-1.8l-0.3-0.7L58.2,17l0,0c0,0-0.2,0-0.2,0.1h-0.2
	c0,0.1-0.1,0.1-0.2,0.1h-0.1c-0.5,0.3-1,0.5-1.5,0.8L56.4,18.9L56.4,18.9z M50,22.6c1.1-0.7,2.3-1.4,3.4-2.1L53,19.8
	c-0.4,0.2-0.8,0.5-1.1,0.7h-0.2c-0.7,0.4-1.3,0.8-1.9,1.2L50,22.6z M43.8,27c1.1-0.8,2.1-1.6,3.2-2.4L46.6,24
	c-0.6,0.4-1.1,0.8-1.6,1.2h-0.2c0,0,0,0-0.1,0l0,0l-0.2,0.1l0,0c-0.4,0.3-0.8,0.6-1.1,0.9C43.5,26.2,43.8,27,43.8,27z M38,31.9
	c1-0.9,2-1.8,3-2.6l-0.5-0.6c-0.5,0.4-0.9,0.8-1.4,1.2l0,0L39,29.9l0,0c0,0,0,0-0.1,0l0,0l-1.2,1L38,31.9L38,31.9z M32.7,37.1
	c0.9-1,1.9-1.9,2.8-2.9l-0.5-0.5c-0.7,0.7-1.4,1.4-2.1,2.1l0,0h0l0,0c-0.2,0.2-0.3,0.3-0.5,0.5L32.7,37.1L32.7,37.1z M27.8,42.8
	c0.8-1.1,1.7-2.1,2.6-3.1l-0.6-0.5l-0.8,0.9l0,0l0,0l0,0c-0.5,0.6-1,1.3-1.5,1.9L27.8,42.8L27.8,42.8z M23.4,48.8
	c0.8-1.1,1.5-2.2,2.3-3.3l-0.6-0.5l0,0c0,0,0,0,0,0.1l0,0c0,0,0,0.1-0.1,0.2l0,0l-0.1,0.2l0,0c0,0,0,0,0,0.1l0,0l0,0l0,0v0l0,0
	c-0.5,0.6-0.9,1.3-1.3,1.9L23.4,48.8L23.4,48.8z M19.4,55.3c0.7-1.2,1.3-2.3,2-3.4l-0.7-0.4c0,0.1-0.1,0.2-0.1,0.2l0,0v0l0,0l0,0
	l0,0v0l0,0L19,54.7C19,54.7,19.4,55.3,19.4,55.3z M16.1,62c0.5-1.2,1.1-2.4,1.7-3.6L17.1,58c-0.3,0.6-0.6,1.1-0.8,1.7l0,0v0l0,0l0,0
	l0,0c-0.3,0.7-0.6,1.3-0.9,1.9L16.1,62L16.1,62z M13.2,68.9c0.5-1.3,0.9-2.5,1.4-3.7l-0.7-0.3l-0.5,1.1l0,0l0,0l0,0l0,0l0,0l0,0l0,0
	c0,0.1,0,0.1,0,0.1l0,0c0,0,0,0,0,0.1l0,0l0,0l0,0v0.1l0,0l0,0l0,0c-0.3,0.7-0.6,1.4-0.8,2.1l0.7,0.4L13.2,68.9z M11,76.1
	c0.4-1.3,0.7-2.6,1.1-3.8L11.4,72c-0.4,1.3-0.8,2.6-1.1,3.9L11,76.1L11,76.1z M9.3,83.4c0.3-1.3,0.5-2.6,0.8-3.9l-0.8-0.2
	c0,0.1,0,0.1-0.1,0.2l0,0c0,0,0,0.1,0,0.2l0,0c-0.2,0.9-0.4,1.8-0.6,2.7l0,0l0,0l0,0l0,0l0,0l0,0l0,0l0,0l0,0v0.1l0,0
	c-0.1,0.2-0.1,0.4-0.1,0.5l0.7,0.3L9.3,83.4z M8.3,90.9c0.1-1.3,0.3-2.7,0.5-4L8,86.8c0,0.2,0,0.4-0.1,0.6l0,0l0,0l0,0l0,0l0,0v0.2
	l0,0l0,0l0,0l0,0l0,0l0,0l0,0V88l0,0l0,0l0,0l0,0l0,0v0.2l0,0l0,0l0,0l0,0l0,0c0,0.5-0.1,1-0.2,1.5l0,0v0.1l0,0l0,0l0,0V90l0,0
	c-0.1,0.3-0.1,0.6-0.1,0.8L8.3,90.9L8.3,90.9z M7.9,98.4c0-1.3,0-2.7,0.2-4l-0.8-0.1c0,0.3,0,0.6,0,0.8l0,0l0,0l0,0l0,0l0,0v0.1l0,0
	l0,0l0,0l0,0l0,0v0.1l0,0l0,0l0,0l0,0l0,0l0,0l0,0l0,0l0,0v0.1l0,0v0.1l0,0l0,0l0,0l0,0l0,0c-0.1,0.8-0.1,1.6-0.1,2.4l0.7,0.1
	L7.9,98.4z M7.3,105.9h0.7c-0.1-1.3-0.1-2.7-0.1-4H7.2C7.2,103.3,7.2,104.7,7.3,105.9L7.3,105.9z M8.1,113.5l0.8-0.1
	c-0.2-1.3-0.4-2.7-0.5-4l-0.8,0.1c0.1,1,0.2,1.9,0.3,2.8l0,0l0,0l0,0l0,0l0,0v0.1l0,0v0.1l0,0l0,0l0,0l0,0l0,0
	c0.1,0.3,0.2,0.6,0.2,0.9V113.5z M9.5,120.9l0.8-0.2c-0.3-1.3-0.6-2.6-0.8-3.9L8.7,117C8.9,118.3,9.2,119.6,9.5,120.9L9.5,120.9
	L9.5,120.9L9.5,120.9z M11.5,128.2l0.7-0.3c-0.4-1.3-0.8-2.6-1.1-3.8l-0.7,0.2c0.1,0.3,0.1,0.6,0.3,0.9l0,0l0,0l0,0v0.1l0,0l0,0l0,0
	l0,0l0,0l0,0l0,0l0,0l0,0c0.2,0.8,0.5,1.5,0.7,2.2l0,0v0.1l0,0c0.1,0.3,0.1,0.3,0.2,0.4V128.2z M14.1,135.4l0.7-0.3
	c-0.5-1.2-1-2.5-1.5-3.7l-0.7,0.3c0.3,0.9,0.7,1.7,1,2.6l0,0v0.1l0,0l0,0l0,0v0.1l0,0c0,0,0,0.1,0,0.1l0,0c0,0.1,0,0.1,0,0.1l0,0
	c0,0,0,0,0.1,0.1l0,0c0,0,0,0.1,0,0.1l0,0l0,0l0,0C13.8,134.9,13.9,135.1,14.1,135.4L14.1,135.4z M17.3,142.2l0.7-0.4
	c-0.6-1.2-1.2-2.4-1.8-3.6l-0.7,0.3C16.1,139.8,16.7,141,17.3,142.2z M21,148.8l0.7-0.4c-0.7-1.1-1.4-2.3-2-3.4l-0.7,0.4
	c0.2,0.4,0.5,0.8,0.7,1.2l0,0v0.1l0,0 M19.7,146.6L19.7,146.6L19.7,146.6L19.7,146.6v0.1l0,0l0,0.1l0,0c0,0,0,0.1,0.1,0.1l0,0v0.1
	l0,0c0,0.1,0,0.1,0.1,0.2l0,0l1,1.6L19.7,146.6z M25.2,155.1l0.6-0.4c-0.8-1.1-1.6-2.2-2.3-3.3l-0.6,0.4c0.5,0.8,1,1.5,1.6,2.2l0,0
	c0,0,0,0.1,0.1,0.1l0,0C24.8,154.4,25,154.8,25.2,155.1L25.2,155.1z M30,161l0.5-0.5c-0.9-1-1.7-2-2.6-3.1l-0.6,0.4
	C28.2,158.9,29.1,160,30,161z M35.2,166.5l0.5-0.6c-1-0.9-1.9-1.9-2.8-2.9l-0.6,0.5l1.4,1.4l0,0v0.1l0,0L35.2,166.5L35.2,166.5z
	 M40.8,171.6l0.5-0.6c-1-0.9-2-1.7-3-2.6l-0.5,0.6C38.8,169.8,39.8,170.7,40.8,171.6L40.8,171.6z M46.9,176.1l0.5-0.6
	c-1.1-0.8-2.2-1.6-3.2-2.4l-0.5,0.6c0.3,0.3,0.8,0.6,1.1,0.9l0,0l0.1,0.1l0,0C45.6,175.3,46.2,175.7,46.9,176.1L46.9,176.1z
	 M53.2,180.2l0.4-0.7c-1.2-0.7-2.3-1.4-3.4-2.1l-0.4,0.7c1.1,0.7,2.2,1.4,3.3,2l0,0C53.2,180.2,53.2,180.2,53.2,180.2L53.2,180.2z
	 M60,183.8l0.3-0.7c-1.2-0.6-2.4-1.2-3.6-1.8l-0.4,0.7c0.1,0.1,0.3,0.1,0.4,0.2h0.1c0,0.1,0.1,0.1,0.2,0.1h0.2c0,0,0.1,0,0.1,0h0.2
	c0,0,0,0.1,0.1,0.1h0.1c0,0,0.1,0,0.2,0.1l0,0C58.5,183,59.2,183.5,60,183.8z M66.9,186.8l0.3-0.7c-1.3-0.5-2.5-1-3.7-1.5l-0.3,0.7
	c0.2,0,0.3,0.1,0.5,0.2h0.1c0,0,0.1,0.1,0.2,0.1H64c0,0,0,0,0.1,0l0,0C65.7,186.3,66.3,186.5,66.9,186.8L66.9,186.8z M74.1,189.2
	l0.2-0.7c-1.3-0.4-2.6-0.8-3.8-1.2l-0.3,0.7c0.1,0.1,0.2,0.1,0.3,0.1h0.3c0,0,0,0,0.1,0l0,0C72,188.5,73.1,188.9,74.1,189.2
	L74.1,189.2z M81.5,191l0.2-0.8c-1.3-0.3-2.6-0.6-3.9-0.9l-0.2,0.8h0.1C78.9,190.5,80.2,190.8,81.5,191z M88.9,192.2l0.1-0.8
	c-1.3-0.2-2.7-0.4-4-0.6l-0.1,0.8C86.2,191.9,87.6,192.1,88.9,192.2z M96.5,192.8v-0.8c-1.3,0-2.7-0.1-4-0.3v0.8c0.3,0,0.5,0,0.8,0
	h0.3c0.3,0,0.6,0.1,0.8,0.1H95C95.7,192.7,96.1,192.7,96.5,192.8L96.5,192.8z"/>
</svg>
