<?xml version="1.0" encoding="utf-8"?>
<!-- Generator: Adobe Illustrator 23.1.0, SVG Export Plug-In . SVG Version: 6.00 Build 0)  -->
<svg version="1.1" id="Layer_1" xmlns="http://www.w3.org/2000/svg" xmlns:xlink="http://www.w3.org/1999/xlink" x="0px" y="0px"
	 viewBox="0 0 200 200" style="enable-background:new 0 0 200 200;" xml:space="preserve">
<style type="text/css">
	.st0{fill:#FFFFFF;}
	.st1{fill:#006DCC;}
</style>
<title>btn_playback_widget_play</title>
<g id="play_button">
	<g>
		<circle class="st0" cx="100" cy="99.9" r="83.1"/>
		<path class="st1" d="M100,20.2c44.1,0,79.8,35.7,79.8,79.8s-35.7,79.8-79.8,79.8S20.2,144.1,20.2,100c0,0,0,0,0,0v-0.1
			C20.3,55.9,56,20.2,100,20.2 M100,13.6c-47.7,0-86.3,38.7-86.3,86.3s38.7,86.3,86.3,86.3s86.3-38.7,86.3-86.3v-0.1
			C186.3,52.2,147.6,13.6,100,13.6z"/>
	</g>
	<path class="st1" d="M141.5,98.3l-66-36.7c-0.6-0.4-1.3-0.5-1.9-0.2c-0.6,0.4-0.9,1.1-0.8,1.8v73.1c-0.1,0.7,0.2,1.4,0.8,1.8
		c0.6,0.3,1.4,0.3,1.9-0.1l66-36.6c0.9-0.3,1.3-1.2,1.1-2C142.5,98.9,142.1,98.5,141.5,98.3z"/>
</g>
<g>
	<path class="st1" d="M100.2,193L100.2,193L100.2,193L100.2,193L100.2,193L100.2,193L100.2,193L100.2,193L100.2,193
		C100.3,193,100.3,193,100.2,193L100.2,193c0.1,0,0.1,0,0.2,0l0,0c0,0,0,0,0.1,0l0,0l0,0l0,0l0,0l0,0l0,0l0,0c0,0,0,0,0.1,0l0,0
		c0,0,0,0,0.1,0l0,0l0,0l0,0l0,0l0,0l0,0l0,0l0,0c0,0,0,0,0.1,0l0,0l0,0l0,0l0,0l0,0l0,0l0,0l0,0l0,0l0,0l0,0h0.1l0,0l0,0l0,0l0,0
		l0,0l0,0l0,0l0,0l0,0c0.1,0,0.1,0,0.1,0l0,0c0,0,0,0,0.1,0l0,0c0,0,0,0,0.1,0l0,0c1,0,1.9-0.1,2.9-0.1l-0.1-0.8
		c-1.3,0.1-2.7,0.1-4,0.1v0.8H100.2L100.2,193z M107.8,192.7L107.8,192.7L107.8,192.7L107.8,192.7L107.8,192.7L107.8,192.7
		L107.8,192.7L107.8,192.7c0.1,0,0.1,0,0.2,0l0,0l0,0l0,0l0,0l0,0l0,0l0,0l0,0l0,0c0.1,0,0.1,0,0.1,0l0,0l0,0l0,0l0,0l0,0l0,0l0,0
		l0,0l0,0c0.1,0,0.1,0,0.1,0l0,0l0,0l0,0l0,0l0,0l0,0l0,0l0,0l0,0c0.1,0,0.1,0,0.1,0l0,0l0,0l0,0l0,0l0,0l0,0l0,0l0,0l0,0l0,0l0,0
		c0,0,0,0,0.1,0l0,0l0,0l0,0l0,0l0,0l0,0l0,0l0,0l0,0l0,0c0,0,0,0,0.1,0l0,0l0,0l0,0l0,0l0,0l0,0l0,0l0,0l0,0l0,0l0,0l0,0l0,0l0,0
		l0,0l0,0l0,0l0,0l0,0l0,0l0,0l0,0l0,0l0,0c0,0,0,0,0.1,0l0,0l0,0l0,0l0,0l0,0l0,0l0,0l0,0l0,0l0,0l0,0c0,0,0,0,0.1,0l0,0l0,0l0,0
		l0,0l0,0l0,0l0,0l0,0l0,0l0,0l0,0l0,0l0,0l0,0l0,0l0,0l0,0l0,0l0,0l0,0l0,0l0,0l0,0c0,0,0,0,0.1,0l0,0l0,0l0,0l0,0l0,0l0,0l0,0l0,0
		l0,0l0,0l0,0c0,0,0,0,0.1,0l0,0l0,0l0,0l0,0l0,0l0,0l0,0l0,0l0,0l0,0l0,0h0.1l0,0l0,0l0,0l0,0l0,0l0,0l0,0l0,0l0,0l0,0l0,0
		c0.1,0,0.1,0,0.1,0l0,0c0,0,0,0,0.1,0l0,0l0,0l0,0c0,0,0,0,0.1,0l0,0c0.1,0,0.1,0,0.2,0l0,0c0,0,0,0,0.1,0l0,0c0,0,0,0,0.1,0l0,0
		c0.2,0,0.4-0.1,0.6-0.1l-0.1-0.8c-1.3,0.2-2.7,0.3-4,0.4L107.8,192.7L107.8,192.7z M115.3,191.8c1.3-0.2,2.7-0.5,4-0.8l-0.2-0.8
		c-1.3,0.3-2.6,0.5-3.9,0.8L115.3,191.8L115.3,191.8z M122.7,190.2c0.1-0.1,0.3-0.1,0.4-0.1l0,0c0,0,0,0,0.1,0l0,0c0,0,0,0,0.1,0
		l0,0c0,0,0,0,0.1,0l0,0c0.1,0,0.1,0,0.2-0.1l0,0c0,0,0,0,0.1,0l0,0l0,0l0,0l0,0l0,0l0,0l0,0c0,0,0,0,0.1,0l0,0h0.1l0,0l0,0l0,0l0,0
		l0,0l0,0l0,0l0,0l0,0c0,0,0,0,0.1,0l0,0h0.1l0,0c0,0,0,0,0.1,0l0,0l0,0l0,0l0,0l0,0l0,0l0,0l0,0l0,0c0.1,0,0.1,0,0.1-0.1l0,0
		c0,0,0,0,0.1,0l0,0c0,0,0,0,0.1,0l0,0c0,0,0,0,0.1,0l0,0c0,0,0,0,0.1,0l0,0c0.1,0,0.1-0.1,0.2-0.1l0,0c0,0,0,0,0.1,0l0,0
		c0.8-0.2,1.5-0.4,2.2-0.6l-0.2-0.7c-1.3,0.4-2.6,0.7-3.9,1.1L122.7,190.2L122.7,190.2z M129.9,188.1c0.1-0.1,0.3-0.1,0.4-0.1l0,0
		c0,0,0,0,0.1,0l0,0c0,0,0,0,0.1,0l0,0l0,0l0,0l0,0l0,0c0.1,0,0.1-0.1,0.2-0.1l0,0l0,0l0,0l0,0l0,0l0,0l0,0l0,0l0,0l0,0l0,0
		c0.1,0,0.1-0.1,0.1-0.1l0,0l0,0l0,0l0,0l0,0l0,0l0,0l0,0l0,0c0.1,0,0.1-0.1,0.2-0.1l0,0c0,0,0,0,0.1,0l0,0c0,0,0,0,0.1,0l0,0
		c0,0,0,0,0.1,0l0,0c0.9-0.3,1.7-0.6,2.5-1l-0.3-0.7c-1.3,0.5-2.5,1-3.8,1.4L129.9,188.1L129.9,188.1z M137,185.4
		c1.3-0.6,2.5-1.1,3.7-1.7l-0.4-0.7c-1.2,0.6-2.4,1.2-3.6,1.7L137,185.4L137,185.4z M143.8,182.1c0.7-0.4,1.4-0.8,2-1.1l0,0l0,0l0,0
		l0,0l0,0l0,0l0,0l0,0l0,0l0,0l0,0l0,0l0,0l0,0c0.1,0,0.1-0.1,0.1-0.1l0,0c0,0,0,0,0.1,0l0,0l0,0l0,0l0,0l0,0c0,0,0,0,0.1,0l0,0
		c0.4-0.2,0.7-0.4,1.1-0.7l-0.4-0.7c-1.2,0.7-2.3,1.3-3.5,2L143.8,182.1L143.8,182.1z M150.4,178.2c0.6-0.4,1.1-0.7,1.6-1.1l0,0
		c0,0,0,0,0.1,0l0,0c0,0,0,0,0.1,0l0,0c0,0,0,0,0.1,0l0,0c0.1-0.1,0.1-0.1,0.1-0.1l0,0l0,0l0,0l0,0l0,0l0,0l0,0l0,0l0,0l0,0l0,0l0,0
		l0,0l0,0l0,0c0,0,0,0,0.1,0l0,0l0,0l0,0l0,0l0,0l0,0l0,0l0,0l0,0l0,0l0,0l0,0l0,0l0,0l0,0l0,0c0.1,0,0.1-0.1,0.1-0.1l0,0l0,0l0,0
		l0,0l0,0l0,0l0,0l0,0l0,0l0,0l0,0l0,0l0,0c0.6-0.5,0.6-0.5,0.7-0.6l0,0l0,0l0,0l0,0l0,0l0,0l0,0l0,0l0,0c0.1-0.1,0.1-0.1,0.2-0.1
		l0,0l0,0l0,0l0,0l0,0l0,0l0,0l0,0l0,0l0,0l0,0l0,0l0,0c0.1,0,0.1-0.1,0.1-0.1l0,0l0,0l0,0l0,0l0,0l0,0l0,0l0,0l0,0l0,0l0,0l0,0l0,0
		l0,0l0,0l-0.5-0.6c-1.1,0.8-2.2,1.5-3.3,2.2L150.4,178.2L150.4,178.2z M156.6,173.9L156.6,173.9L156.6,173.9L156.6,173.9
		C156.6,173.8,156.6,173.8,156.6,173.9C156.6,173.8,156.6,173.8,156.6,173.9L156.6,173.9L156.6,173.9L156.6,173.9L156.6,173.9
		L156.6,173.9L156.6,173.9L156.6,173.9L156.6,173.9L156.6,173.9L156.6,173.9L156.6,173.9L156.6,173.9L156.6,173.9L156.6,173.9
		L156.6,173.9L156.6,173.9L156.6,173.9L156.6,173.9L156.6,173.9L156.6,173.9L156.6,173.9L156.6,173.9L156.6,173.9
		c0.1-0.1,0.1-0.1,0.2-0.1l0,0l0,0l0,0l0,0l0,0l0,0l0,0l0,0l0,0l0,0l0,0l0,0l0,0c0.1-0.1,0.1-0.1,0.2-0.1l0,0c0,0,0,0,0.1,0l0,0
		c0,0,0,0,0.1,0l0,0c0,0,0,0,0.1,0l0,0c0.5-0.4,1-0.8,1.5-1.2l0,0c0,0,0,0,0.1,0l0,0l0,0l0,0l0,0l0,0l0,0l0,0l0,0l0,0l0,0l0,0l0,0
		l0,0l0,0l0,0l0,0l0,0l0,0l0,0l0,0l0,0l0,0c0.2-0.2,0.4-0.3,0.5-0.4l-0.5-0.6c-1,0.9-2.1,1.7-3.1,2.5L156.6,173.9L156.6,173.9z
		 M162.4,169c1-0.9,2-1.8,2.9-2.8l-0.6-0.6c-1,0.9-1.9,1.9-2.9,2.7L162.4,169L162.4,169z M167.8,163.7c0.7-0.8,1.4-1.5,2.1-2.3l0,0
		l0,0l0,0l0,0l0,0l0,0l0,0l0,0l0,0l0,0l0,0l0,0l0,0l0.1-0.1l0,0l0,0l0,0l0,0l0,0l0,0l0,0l0,0l0,0l0,0l0,0l0,0l0,0l0,0l0,0l0,0l0,0
		l0,0l0.1-0.1l0,0l0,0l0,0l0,0l0,0l0,0l0,0l0,0l0,0l0,0l0,0c0.1-0.1,0.1-0.1,0.1-0.2l-0.6-0.5c-0.9,1-1.8,2-2.7,3L167.8,163.7
		L167.8,163.7z M172.8,158c0.9-1.1,1.7-2.1,2.5-3.2l-0.6-0.5c-0.8,1.1-1.6,2.1-2.4,3.2L172.8,158L172.8,158z M177.3,151.9
		c0.2-0.2,0.3-0.4,0.4-0.6l0,0c0,0,0,0,0-0.1l0,0c0.1-0.1,0.1-0.1,0.1-0.2l0,0l0,0l0,0l0,0l0,0l0,0l0,0l0,0l0,0l0,0l0,0
		c0.1-0.1,0.1-0.1,0.1-0.1l0,0l0,0l0,0l0,0l0,0l0,0l0,0l0,0l0,0l0,0l0,0c0,0,0,0,0-0.1l0,0c0-0.1,0.1-0.1,0.1-0.1l0,0c0,0,0,0,0-0.1
		l0,0l0,0l0,0l0,0l0,0l0,0l0,0l0,0l0,0c0.1-0.1,0.1-0.1,0.1-0.2l0,0c0,0,0,0,0-0.1l0,0c0,0,0,0,0-0.1l0,0c0,0,0,0,0-0.1l0,0
		c0,0,0,0,0-0.1l0,0c0.1-0.1,0.1-0.1,0.1-0.2l0,0c0,0,0,0,0-0.1l0,0c0,0,0,0,0-0.1l0,0l0,0l0,0c0,0,0,0,0-0.1l0,0
		c0.1-0.1,0.1-0.1,0.1-0.2l0,0l0,0l0,0l0,0l0,0l0,0l0,0l0,0l0,0l0,0l0,0l0,0l0,0c0,0,0,0,0-0.1l0,0l0,0l0,0l0,0l0,0l0,0l0,0l0,0l0,0
		l0,0l0,0l0,0l0,0l0,0c0.2-0.3,0.4-0.6,0.6-0.9l-0.7-0.4c-0.7,1.1-1.4,2.3-2.2,3.4L177.3,151.9L177.3,151.9z M181.2,145.4
		c0.1-0.2,0.2-0.3,0.3-0.4l0,0l0,0l0,0l0,0l0,0l0,0l0,0l0,0l0,0l0,0l0,0l0,0c0,0,0,0,0-0.1l0,0c0,0,0,0,0-0.1l0,0c0,0,0,0,0-0.1l0,0
		c0,0,0,0,0-0.1l0,0c0,0,0,0,0-0.1l0,0c0,0,0,0,0-0.1l0,0c0.3-0.5,0.5-0.9,0.7-1.3l0,0c0,0,0,0,0-0.1l0,0c0,0,0,0,0-0.1l0,0
		c0,0,0,0,0-0.1l0,0c0,0,0,0,0-0.1l0,0c0-0.1,0.1-0.1,0.1-0.1l0,0c0,0,0,0,0-0.1l0,0l0,0l0,0l0,0l0,0l0,0l0,0l0,0l0,0l0,0l0,0l0,0
		l0,0l0,0c0,0,0,0,0-0.1l0,0l0,0l0,0l0,0l0,0l0,0l0,0l0,0l0,0l0,0l0,0l0,0l0,0l0,0l0,0c0-0.1,0.1-0.1,0.1-0.2l0,0c0,0,0,0,0-0.1l0,0
		c0,0,0,0,0-0.1l0,0c0,0,0,0,0-0.1l0,0c0.1-0.2,0.2-0.4,0.3-0.6l-0.7-0.4c-0.6,1.2-1.2,2.4-1.9,3.5L181.2,145.4L181.2,145.4z
		 M184.7,138.7c0.3-0.6,0.5-1.1,0.8-1.7l0,0c0,0,0,0,0-0.1l0,0c0,0,0,0,0-0.1l0,0c0,0,0,0,0-0.1l0,0c0,0,0,0,0-0.1l0,0
		c0-0.1,0.1-0.1,0.1-0.1l0,0l0,0l0,0l0,0l0,0l0,0l0,0l0,0l0,0l0,0l0,0l0,0l0,0l0,0c0,0,0-0.1,0.1-0.1l0,0l0,0l0,0l0,0l0,0l0,0l0,0
		l0,0l0,0c0.2-0.5,0.4-1,0.6-1.4l-0.7-0.3c-0.5,1.2-1,2.5-1.6,3.7L184.7,138.7L184.7,138.7z M187.5,131.7c0.1-0.3,0.2-0.6,0.3-0.8
		l0,0l0,0l0,0l0,0l0,0l0,0l0,0l0,0l0,0l0,0l0,0l0,0v-0.1l0,0c0,0,0,0,0-0.1l0,0c0,0,0,0,0-0.1l0,0c0,0,0,0,0-0.1l0,0c0,0,0,0,0-0.1
		l0,0c0.2-0.6,0.4-1.2,0.6-1.8l0,0c0,0,0,0,0-0.1l0,0l0,0l0,0l0,0l0,0l0,0l0,0l0,0v-0.1l0,0l0,0l0,0c0,0,0,0,0-0.1l0,0
		c0,0,0,0,0-0.1l0,0c0,0,0,0,0-0.1l0,0c0.1-0.2,0.1-0.4,0.2-0.5l-0.7-0.2c-0.4,1.3-0.8,2.5-1.3,3.8L187.5,131.7L187.5,131.7z
		 M189.8,124.5c0.4-1.3,0.7-2.6,1-3.9l-0.8-0.2c-0.3,1.3-0.6,2.6-1,3.9L189.8,124.5L189.8,124.5z M191.5,117c0.1-0.4,0.1-0.7,0.2-1
		l0,0c0-0.1,0-0.2,0.1-0.2l0,0c0,0,0,0,0-0.1l0,0c0-0.1,0-0.1,0.1-0.2l0,0c0,0,0,0,0-0.1l0,0c0.2-0.9,0.3-1.7,0.4-2.5l-0.8-0.1
		c-0.2,1.3-0.4,2.6-0.7,3.9L191.5,117L191.5,117z M192.5,109.6C192.5,109.5,192.5,109.5,192.5,109.6L192.5,109.6L192.5,109.6
		L192.5,109.6L192.5,109.6L192.5,109.6L192.5,109.6L192.5,109.6L192.5,109.6L192.5,109.6L192.5,109.6v-0.2l0,0c0,0,0,0,0-0.1l0,0
		c0,0,0,0,0-0.1l0,0c0.1-1.2,0.2-2.4,0.3-3.6l-0.8-0.1c-0.1,1.3-0.2,2.7-0.3,4L192.5,109.6L192.5,109.6z M193,102c0-0.1,0-0.1,0-0.2
		l0,0c0,0,0,0,0-0.1l0,0c0,0,0,0,0-0.1l0,0l0,0c0,0,0,0,0-0.1l0,0c0-0.4,0-0.8,0-1.2l0,0c0,0,0,0,0-0.1l0,0v-0.1l0,0c0,0,0,0,0-0.1
		l0,0c0,0,0,0,0-0.1l0,0c0,0,0,0,0-0.1l0,0c0,0,0,0,0-0.1l0,0c0,0,0,0,0-0.1l0,0c0,0,0,0,0-0.1l0,0c0,0,0,0,0-0.1l0,0l0,0l0,0l0,0
		l0,0l0,0l0,0l0,0l0,0l0,0l0,0c0,0,0,0,0-0.1l0,0c0,0,0,0,0-0.1l0,0c0-0.1,0-0.1,0-0.1l0,0c0,0,0,0,0-0.1l0,0c0,0,0,0,0-0.1l0,0
		c0,0,0,0,0-0.1l0,0c0-0.4,0-0.7,0-1l0,0c0,0,0,0,0-0.1l0,0c0,0,0,0,0-0.1l0,0c0,0,0,0,0-0.1l0,0v1c0,0,0,0,0-0.1l0,0
		c0-0.2,0-0.3,0-0.4h-0.8c0,0.7,0,1.4,0,2.1c0,0.6,0,1.3,0,1.9H193L193,102z M192.1,94.5l0.8-0.1c-0.1-1.4-0.2-2.7-0.4-4l-0.8,0.1
		C191.9,91.8,192,93.1,192.1,94.5L192.1,94.5z M191.3,87l0.8-0.1c-0.1-0.7-0.2-1.3-0.3-1.9l0,0c0,0,0,0,0-0.1l0,0
		c0-0.1,0-0.1-0.1-0.2l0,0c0,0,0,0,0-0.1l0,0l0,0l0,0l0,0l0,0l0,0l0,0c0-0.1,0-0.1,0-0.1l0,0l0,0l0,0l0,0l0,0l0,0l0,0l0,0l0,0l0,0
		l0,0l0,0c0,0,0,0,0-0.1l0,0l0,0l0,0l0,0l0,0l0,0l0,0l0,0l0,0l0,0l0,0l0,0l0,0l0,0l0,0l0,0l0,0l0,0l0,0l0,0l0,0l0,0l0,0l0,0l0,0l0,0
		c0,0,0,0,0-0.1l0,0l0,0l0,0l0,0l0,0l0,0l0,0l0,0l0,0c-0.1-0.3-0.1-0.6-0.2-0.8l-0.8,0.2C190.9,84.4,191.2,85.7,191.3,87L191.3,87z
		 M190,79.6l0.7-0.1l0,0l0,0c0,0,0,0,0-0.1l0,0c0,0,0,0,0-0.1l0,0c0,0,0,0,0-0.1l0,0c-0.2-0.8-0.4-1.5-0.6-2.2l0,0c0,0,0,0,0-0.1
		l0,0c0,0,0,0,0-0.1l0,0c0-0.1,0-0.1-0.1-0.2l0,0c0,0,0,0,0-0.1l0,0c0,0,0,0,0-0.1l0,0c0,0,0,0,0-0.1l0,0c0-0.1-0.1-0.1-0.1-0.2l0,0
		c0,0,0,0,0-0.1l0,0c0,0,0,0,0-0.1l0,0c0-0.1-0.1-0.2-0.1-0.2l0,0c-0.1-0.3-0.2-0.6-0.2-0.9l-0.7,0.2C189.4,77,189.7,78.3,190,79.6
		L190,79.6z M188,72.3l0.7-0.3c-0.2-0.7-0.5-1.4-0.7-2.1l0,0c0-0.1-0.1-0.2-0.1-0.2l0,0c0,0,0,0,0-0.1l0,0l0,0l0,0l0,0l0,0
		c0,0,0,0,0-0.1l0,0v-0.1l0,0c0,0,0,0,0-0.1l0,0l0,0l0,0l0,0l0,0l0,0l0,0l0,0l0,0l0,0l0,0c0,0,0,0,0-0.1l0,0c0,0,0,0,0-0.1l0,0l0,0
		l0,0l0,0l0,0l0,0l0,0l0,0l0,0l0,0l0,0l0,0l0,0l0,0c0,0,0,0,0-0.1l0,0l0,0l0,0l0,0l0,0l0,0l0,0l0,0l0,0l0,0l0,0l0,0l0,0l0,0l0,0
		v-0.1l0,0l0,0l0,0l0,0l0,0l0,0l0,0l0,0l0,0l0,0l0,0l0,0l0,0l0,0l0,0v-0.1l0,0l0,0l0,0l0,0l0,0l0,0l0,0l0,0l0,0l0,0l0,0l0,0l0,0l0,0
		c0,0,0,0,0-0.1l0,0l0,0l0,0l0,0l-0.7,0.3C187.2,69.8,187.6,71.1,188,72.3L188,72.3z M185.5,65.3l0.7-0.3c-0.5-1.3-1.1-2.5-1.6-3.7
		l-0.7,0.3C184.4,62.8,185,64,185.5,65.3L185.5,65.3z M182.3,58.4L183,58c-0.3-0.6-0.6-1.1-0.9-1.6l0,0c0,0,0,0,0-0.1l0,0
		c0,0,0,0,0-0.1l0,0c0,0,0,0,0-0.1l0,0c-0.1-0.1-0.1-0.2-0.1-0.2l0,0c0,0,0,0,0-0.1l0,0c-0.3-0.5-0.6-1.1-0.9-1.6l-0.7,0.4
		C181.1,56.1,181.7,57.3,182.3,58.4L182.3,58.4z M178.6,51.9l0.7-0.4c-0.5-0.8-0.9-1.5-1.4-2.2l0,0l0,0l0,0l0,0l0,0l0,0l0,0l0,0l0,0
		l0,0l0,0c0-0.1-0.1-0.1-0.1-0.1l0,0l0,0l0,0l0,0l0,0l0,0l0,0l0,0l0,0l0,0l0,0l0,0l0,0l0,0l0,0c0,0,0,0,0-0.1l0,0l0,0l0,0l0,0l0,0
		l0,0l0,0l0,0l0,0l0,0l0,0l0,0l0,0l0,0l0,0l0,0l0,0c0,0,0,0,0-0.1l0,0l0,0l0,0l0,0l0,0l0,0l0,0l0,0l0,0l0,0l0,0l0,0l0,0l0,0l0,0l0,0
		l0,0l0,0l0,0c0,0,0-0.1-0.1-0.1l0,0l0,0l0,0l0,0l0,0l0,0l0,0l0,0l0,0l0,0l0,0l0,0l0,0l0,0l0,0l-0.6,0.4
		C177.2,49.6,178,50.8,178.6,51.9L178.6,51.9z M174.5,45.6l0.6-0.5c-0.2-0.3-0.4-0.5-0.5-0.7l0,0l0,0l0,0l0,0l0,0l0,0l0,0l0,0l0,0
		l0,0l0,0l0,0l0,0l0,0c-0.6-0.8-1.2-1.5-1.8-2.3l0,0l0,0l0,0l0,0l0,0l-0.6,0.5C172.8,43.5,173.7,44.6,174.5,45.6L174.5,45.6z
		 M169.8,39.8l0.6-0.5c-0.6-0.7-1.3-1.4-1.9-2.1l0,0l0,0l0,0l0,0l0,0l0,0l0,0l0,0l0,0l-0.1-0.1l0,0l0,0l0,0l0,0l0,0l0,0l0,0l0,0l0,0
		l0,0l0,0l0,0l0,0l0,0c-0.2-0.2-0.4-0.4-0.5-0.6l-0.6,0.5C168,37.8,168.9,38.8,169.8,39.8L169.8,39.8z M164.6,34.3l0.5-0.6
		c-0.3-0.3-0.5-0.5-0.7-0.7l0,0l0,0l0,0l0,0l0,0l0,0l0,0l0,0l0,0c-0.1-0.1-0.1-0.1-0.2-0.2l0,0l0,0l0,0l0,0l0,0l0,0l0,0l0,0l0,0l0,0
		l0,0l0,0l0,0c-0.1-0.1-0.1-0.1-0.1-0.1l0,0l0,0l0,0l0,0l0,0l0,0l0,0l0,0l0,0l0,0l0,0c-0.1-0.1-0.1-0.1-0.2-0.2l0,0l0,0l0,0l0,0l0,0
		c-0.5-0.5-1-0.9-1.5-1.3l-0.5,0.6C162.7,32.5,163.7,33.4,164.6,34.3L164.6,34.3z M159,29.3l0.5-0.6c-0.3-0.3-0.7-0.6-1-0.8l0,0l0,0
		l0,0l0,0l0,0l0,0l0,0l0,0l0,0l0,0l0,0l0,0l0,0l0,0l0,0l0,0l0,0l0,0l0,0l0,0l0,0l0,0c-0.4-0.3-0.8-0.7-1.2-1l0,0l0,0l0,0l0,0l0,0
		l0,0l0,0l0,0l0,0l0,0l0,0l0,0c-0.2-0.2-0.4-0.3-0.6-0.4l-0.5,0.6C157,27.6,158,28.4,159,29.3L159,29.3z M153.1,24.7l0.5-0.6l0,0
		l0,0l0,0l0,0l0,0l0,0l0,0l0,0l0,0l0,0l0,0l-0.1-0.1l0,0l0,0l0,0l0,0l0,0l0,0l0,0l0,0l0,0l0,0l0,0l0,0l0,0c-0.2-0.1-0.3-0.2-0.5-0.3
		l0,0c-0.2-0.1-0.4-0.3-0.5-0.4l0,0c0,0,0,0-0.1,0l0,0c0,0,0,0-0.1,0l0,0c-0.1-0.1-0.1-0.1-0.2-0.1l0,0l0,0l0,0l0,0l0,0l0,0l0,0l0,0
		l0,0l0,0l0,0l0,0l0,0l-0.1-0.1l0,0l0,0l0,0l0,0l0,0l0,0l0,0l0,0l0,0l0,0l0,0l0,0l0,0l0,0l0,0l0,0c-0.1,0-0.1-0.1-0.1-0.1l0,0l0,0
		l0,0l0,0l0,0l0,0l0,0l0,0l0,0l0,0l0,0c-0.1-0.1-0.2-0.1-0.2-0.2l0,0c-0.3-0.2-0.6-0.4-0.9-0.6l-0.4,0.7
		C150.9,23.2,152,23.9,153.1,24.7L153.1,24.7z M146.8,20.6l0.4-0.7c-0.6-0.4-1.3-0.7-1.9-1.1l0,0c0,0,0,0-0.1,0l0,0l0,0l0,0l0,0l0,0
		c0,0,0,0-0.1,0l0,0c0,0-0.1,0-0.1-0.1l0,0l0,0l0,0l0,0l0,0l0,0l0,0l0,0l0,0l0,0l0,0l0,0c-0.5-0.3-0.9-0.5-1.3-0.7l-0.4,0.7
		C144.4,19.3,145.6,20,146.8,20.6L146.8,20.6z M140.1,17.1l0.4-0.7c-0.3-0.1-0.5-0.2-0.7-0.4l0,0c0,0,0,0-0.1,0l0,0c0,0,0,0-0.1,0
		l0,0c0,0,0,0-0.1,0l0,0c0,0,0,0-0.1,0l0,0c-0.1,0-0.1-0.1-0.2-0.1l0,0c0,0,0,0-0.1,0l0,0c0,0,0,0-0.1,0l0,0l0,0l0,0l0,0l0,0
		c0,0,0,0-0.1,0l0,0c-0.1,0-0.1-0.1-0.1-0.1l0,0c0,0,0,0-0.1,0l0,0c0,0,0,0-0.1,0l0,0c0,0,0,0-0.1,0l0,0c0,0,0,0-0.1,0l0,0
		c-0.1-0.1-0.2-0.1-0.2-0.1l0,0c0,0,0,0-0.1,0l0,0c-0.4-0.2-0.8-0.4-1.1-0.5l0,0c0,0,0,0-0.1,0l0,0c-0.1,0-0.1-0.1-0.2-0.1l0,0
		c0,0,0,0-0.1,0l0,0l0,0l0,0l0,0l0,0l0,0l0,0l0,0l0,0l0,0l0,0l0,0c-0.2-0.1-0.4-0.2-0.7-0.3l-0.3,0.7
		C137.7,16,138.9,16.5,140.1,17.1L140.1,17.1z M133.2,14.1l0.3-0.7c-0.5-0.2-1-0.4-1.4-0.6l0,0c0,0,0,0-0.1,0l0,0
		c-0.1,0-0.1-0.1-0.2-0.1l0,0l0,0l0,0l0,0l0,0l0,0l0,0l0,0l0,0l0,0l0,0l0,0l0,0l0,0l0,0l0,0l0,0l0,0l0,0l0,0l0,0l0,0l0,0l0,0l0,0
		l0,0c0,0,0,0-0.1,0l0,0c-0.1,0-0.1,0-0.1-0.1l0,0c0,0,0,0-0.1,0l0,0c0,0,0,0-0.1,0l0,0c0,0,0,0-0.1,0l0,0c0,0,0,0-0.1,0l0,0
		c-0.1,0-0.1-0.1-0.2-0.1l0,0c0,0,0,0-0.1,0l0,0c0,0,0,0-0.1,0l0,0c0,0,0,0-0.1,0l0,0c-0.1,0-0.2-0.1-0.2-0.1l0,0c0,0,0,0-0.1,0l0,0
		c0,0,0,0-0.1,0l0,0c-0.1,0-0.1-0.1-0.2-0.1l0,0c0,0,0,0-0.1,0l0,0c0,0,0,0-0.1,0l0,0c0,0,0,0-0.1,0l0,0c0,0,0,0-0.1,0l0,0
		c-0.1,0-0.1,0-0.1-0.1l0,0c0,0,0,0-0.1,0l0,0l0,0l0,0l0,0l0,0l0,0l0,0l0,0l0,0l0,0l0,0l0,0l0,0l0,0l0,0l0,0l0,0l0,0l0,0l0,0l0,0
		l0,0l0,0l0,0c-0.1,0-0.1-0.1-0.2-0.1l-0.3,0.7C130.7,13.2,132,13.7,133.2,14.1L133.2,14.1z M126.1,11.7l0.2-0.7
		c-0.2-0.1-0.3-0.1-0.5-0.2l0,0l0,0l0,0l0,0l0,0l0,0l0,0l0,0l0,0l0,0l0,0l0,0c-0.1,0-0.1-0.1-0.2-0.1l0,0c-0.4-0.1-0.9-0.3-1.3-0.4
		l0,0c0,0,0,0-0.1,0l0,0c0,0,0,0-0.1,0l0,0c0,0,0,0-0.1,0l0,0h-0.1l0,0c0,0,0,0-0.1,0l0,0l0,0l0,0l0,0l0,0l0,0l0,0l0,0l0,0l0,0
		c-0.1,0-0.1,0-0.1-0.1l0,0c-0.5-0.1-0.9-0.3-1.4-0.4l-0.2,0.8C123.5,11,124.8,11.3,126.1,11.7L126.1,11.7z M118.8,9.9l0.2-0.8
		c-0.4-0.1-0.8-0.2-1.2-0.3l0,0c0,0,0,0-0.1,0l0,0c0,0,0,0-0.1,0l0,0l0,0l0,0l0,0l0,0h0.1l0,0l0,0l0,0l0,0l0,0l0,0l0,0l0,0l0,0l0,0
		c0,0,0,0-0.1,0l0,0h-0.1l0,0c0,0,0,0-0.1,0l0,0c0,0,0,0-0.1,0l0,0c0,0,0,0-0.1,0l0,0c0,0,0,0-0.1,0l0,0c-0.1,0-0.1,0-0.2-0.1l0,0
		c-0.3-0.1-0.5-0.1-0.7-0.2l0,0c-0.1,0-0.2,0-0.2-0.1l0,0c0,0,0,0-0.1,0l0,0c0,0,0,0-0.1,0l0,0c-0.1,0-0.1,0-0.2,0l0,0
		c0,0,0,0-0.1,0l0,0l0,0l0,0l0,0l0,0l0,0l0,0c0,0,0,0-0.1,0l0,0c0,0,0,0-0.1,0l0,0l0,0l0,0l0,0l0,0l0,0l0,0l0,0l0,0l0,0
		c-0.2-0.1-0.4-0.1-0.5-0.1l-0.1,0.8C116.2,9.4,117.5,9.6,118.8,9.9L118.8,9.9z M111.4,8.7l0.1-0.8c-0.6-0.1-1.1-0.1-1.6-0.2l0,0
		c0,0,0,0-0.1,0l0,0c0,0,0,0-0.1,0l0,0c0,0,0,0-0.1,0l0,0h0.1l0,0l0,0l0,0l0,0l0,0l0,0l0,0l0,0l0,0l0,0l0,0l0,0l0,0l0,0l0,0l0,0l0,0
		l0,0l0,0l0,0c-0.1,0-0.1,0-0.1,0l0,0c0,0,0,0-0.1,0l0,0c0,0,0,0-0.1,0l0,0c-0.6-0.1-1.1-0.1-1.7-0.2l0,0.8
		C108.8,8.4,110.1,8.5,111.4,8.7L111.4,8.7z M103.9,8.1l0.1-0.8c-0.2,0-0.4,0-0.6,0l0,0c0,0,0,0-0.1,0l0,0c0,0,0,0-0.1,0l0,0
		c0,0,0,0-0.1,0l0,0l0,0l0,0l0,0l0,0l0,0c0,0,0,0-0.1,0l0,0l0,0l0,0l0,0l0,0h-0.1l0,0l0,0l0,0c-0.1,0-0.1,0-0.1,0l0,0
		c-0.4,0-0.8,0-1.1,0l0,0c0,0,0,0-0.1,0l0,0c-0.1,0-0.1,0-0.1,0l0,0c0,0,0,0-0.1,0l0,0c-0.1,0-0.1,0-0.1,0l0,0c0,0,0,0-0.1,0l0,0
		c0,0,0,0-0.1,0l0,0c-0.1,0-0.1,0-0.1,0l0,0l0,0l0,0l0,0l0,0h-0.1l0,0l0,0l0,0l0,0l0,0l0,0l0,0c0,0,0,0-0.1,0l0,0l0,0l0,0l0,0l0,0
		l0,0c0,0,0,0-0.1,0l0,0l0,0l0,0l0,0l0,0l0,0l0,0c0,0,0,0-0.1,0l0,0l0,0l0,0l0,0l0,0c0,0,0,0-0.1,0l0,0c0,0,0,0-0.1,0l0,0l0,0l0,0
		l0,0l0,0c0,0,0,0-0.1,0l0,0c0,0,0,0-0.1,0l0,0l0,0l0,0c0,0,0,0-0.1,0l0,0c0,0,0,0-0.1,0l0,0l0,0l0,0l0,0l0,0c0,0,0,0-0.1,0l0,0l0,0
		c0,0,0,0-0.1,0l0,0c0,0,0,0-0.1,0l0,0c0,0,0,0-0.1,0l0,0c0,0,0,0-0.1,0l0,0l0,0c-0.1,0-0.1,0-0.1,0v0.8h0.3
		C101.4,8,102.6,8.1,103.9,8.1L103.9,8.1z M92.4,8.3c1.3-0.1,2.7-0.2,4-0.3l-0.1-0.8c-1.3,0.1-2.5,0.1-3.7,0.2l0,0c0,0,0,0-0.1,0
		l0,0c-0.1,0-0.1,0-0.2,0l0,0c0,0,0,0-0.1,0l0,0c0,0,0,0-0.1,0l0,0c0,0,0,0-0.1,0l0,0c0,0,0,0-0.1,0L92.4,8.3L92.4,8.3z M84.9,9.3
		c1.3-0.2,2.6-0.4,4-0.6l-0.1-0.8c-0.2,0-0.4,0.1-0.6,0.1l0,0l0,0l0,0l0,0l0,0l0,0l0,0l0,0c-1.1,0.2-2.2,0.3-3.3,0.5V9.3L84.9,9.3z
		 M77.6,10.8c1.3-0.3,2.6-0.6,3.9-0.9l-0.2-0.8c-0.6,0.1-1.2,0.3-1.7,0.4l0,0c-0.1,0-0.1,0.1-0.2,0.1l0,0c0,0,0,0-0.1,0l0,0
		c0,0,0,0-0.1,0l0,0c0,0,0,0-0.1,0l0,0c0,0,0,0-0.1,0l0,0c0,0,0,0-0.1,0l0,0c0,0,0,0-0.1,0l0,0l0,0l0,0l0,0l0,0l0,0l0,0l0,0l0,0l0,0
		l0,0c0,0,0,0-0.1,0l0,0l0,0l0,0l0,0l0,0l0,0l0,0l0,0l0,0l0,0l0,0l0,0l0,0l0,0h-0.1l0,0l0,0l0,0l0,0l0,0l0,0l0,0l0,0l0,0l0,0l0,0
		l0,0l0,0h-0.1l0,0l0,0l0,0l0,0l0,0l0,0l0,0l0,0l0,0l0,0l0,0l0,0l0,0h-0.1l0,0l0,0l0,0l0,0l0,0l0,0l0,0l0,0l0,0l0,0l0,0l0,0
		c0,0,0,0-0.1,0l0,0c0,0,0,0-0.1,0l0,0c0,0,0,0-0.1,0l0,0c0,0,0,0-0.1,0l0,0c0,0,0,0-0.1,0l0,0c0,0,0,0-0.1,0l0,0
		c-0.2,0.1-0.3,0.1-0.4,0.1L77.6,10.8L77.6,10.8z M70.4,13c1.3-0.5,2.5-0.9,3.8-1.2L74,11.1c-0.2,0.1-0.3,0.1-0.5,0.2l0,0
		c-0.1,0-0.2,0.1-0.3,0.1l0,0c0,0,0,0-0.1,0l0,0c0,0,0,0-0.1,0l0,0c-0.1,0-0.1,0.1-0.2,0.1l0,0c0,0,0,0-0.1,0l0,0c0,0,0,0-0.1,0l0,0
		c0,0,0,0-0.1,0l0,0c0,0,0,0-0.1,0l0,0c-0.1,0-0.1,0.1-0.2,0.1l0,0c0,0,0,0-0.1,0l0,0c0,0,0,0-0.1,0l0,0c0,0,0,0-0.1,0l0,0
		c-0.1,0-0.1,0.1-0.2,0.1l0,0c0,0,0,0-0.1,0l0,0l0,0l0,0l0,0l0,0l0,0l0,0c0,0,0,0-0.1,0l0,0c-0.1,0-0.1,0-0.1,0.1l0,0l0,0l0,0l0,0
		l0,0l0,0l0,0l0,0l0,0l0,0l0,0h-0.1l0,0l0,0l0,0l0,0l0,0l0,0l0,0l0,0l0,0l0,0l0,0l0,0l0,0c0,0,0,0-0.1,0l0,0l0,0l0,0l0,0l0,0l0,0
		l0,0l0,0l0,0l0,0l0,0l0,0l0,0l0,0c0,0,0,0-0.1,0l0,0c0,0,0,0-0.1,0l0,0l0,0l0,0l0,0l0,0l0,0l0,0l0,0l0,0l0,0l0,0
		c-0.1,0-0.1,0-0.1,0.1l0,0c0,0,0,0-0.1,0l0,0l0,0l0,0c0,0,0,0-0.1,0l0,0c0,0,0,0-0.1,0l0,0c0,0,0,0-0.1,0l0,0c-0.1,0-0.1,0-0.1,0.1
		l0,0c0,0,0,0-0.1,0l0,0c0,0,0,0-0.1,0l0,0c0,0,0,0-0.1,0l0,0c0,0,0,0-0.1,0l0,0c-0.1,0-0.1,0.1-0.2,0.1l0,0c0,0,0,0-0.1,0l0,0
		c0,0,0,0-0.1,0l0,0c0,0,0,0-0.1,0l0,0c0,0,0,0-0.1,0l0,0c-0.1,0-0.1,0.1-0.2,0.1l0,0c0,0,0,0-0.1,0l0,0c0,0,0,0-0.1,0l0,0
		c-0.1,0-0.2,0.1-0.2,0.1L70.4,13L70.4,13z M63.4,15.6c1.2-0.6,2.5-1.1,3.7-1.5l-0.3-0.7c-0.1,0.1-0.1,0.1-0.2,0.1l0,0
		c-0.1,0.1-0.2,0.1-0.2,0.1l0,0l0,0l0,0l0,0l0,0l0,0l0,0l0,0l0,0l0,0l0,0c0,0-0.1,0-0.1,0.1l0,0l0,0l0,0l0,0l0,0l0,0l0,0l0,0l0,0
		l0,0l0,0l0,0c0,0,0,0-0.1,0l0,0c0,0-0.1,0-0.1,0.1l0,0c0,0,0,0-0.1,0l0,0c0,0,0,0-0.1,0l0,0c0,0,0,0-0.1,0l0,0c0,0,0,0-0.1,0l0,0
		c0,0,0,0-0.1,0l0,0c-0.9,0.4-1.8,0.7-2.6,1.1L63.4,15.6L63.4,15.6z M56.6,18.9c1.2-0.6,2.4-1.3,3.6-1.8l-0.4-0.7
		c-0.5,0.3-1,0.5-1.5,0.8l0,0c-0.1,0.1-0.2,0.1-0.2,0.1l0,0c0,0,0,0-0.1,0l0,0c0,0,0,0-0.1,0l0,0c0,0,0,0-0.1,0l0,0
		c-0.1,0.1-0.1,0.1-0.2,0.1l0,0c0,0,0,0-0.1,0l0,0c0,0,0,0-0.1,0l0,0c-0.5,0.3-1,0.5-1.5,0.8L56.6,18.9L56.6,18.9z M50.1,22.8
		c1.1-0.7,2.3-1.4,3.4-2.1L53.1,20c-0.4,0.2-0.8,0.5-1.1,0.7l0,0l0,0l0,0l0,0l0,0l0,0l0,0l0,0l0,0l0,0l0,0l0,0l0,0l0,0
		c0,0,0,0-0.1,0l0,0c0,0,0,0-0.1,0l0,0l0,0l0,0l0,0l0,0l0,0l0,0l0,0l0,0l0,0l0,0c0,0,0,0-0.1,0l0,0c-0.7,0.4-1.3,0.8-1.9,1.2
		L50.1,22.8L50.1,22.8z M44,27.1c1.1-0.8,2.1-1.6,3.2-2.4l-0.5-0.6c-0.6,0.4-1.1,0.8-1.6,1.2l0,0c0,0,0,0-0.1,0l0,0c0,0,0,0-0.1,0
		l0,0c0,0,0,0-0.1,0l0,0c-0.1,0-0.1,0.1-0.1,0.1l0,0l0,0l0,0l0,0l0,0l0,0l0,0l0,0l0,0l0,0l0,0l0,0l0,0l0,0c-0.1,0.1-0.1,0.1-0.2,0.2
		l0,0c-0.4,0.3-0.8,0.6-1.1,0.9L44,27.1L44,27.1z M38.2,32c1-0.9,2-1.8,3-2.6l-0.5-0.7c-0.5,0.4-0.9,0.8-1.4,1.2l0,0
		c-0.1,0.1-0.1,0.1-0.2,0.2l0,0l0,0l0,0l0,0l0,0l0,0l0,0l0,0l0,0l0,0l0,0l0,0l0,0l0,0c-0.1,0-0.1,0.1-0.1,0.1l0,0l0,0l0,0l0,0l0,0
		l0,0l0,0l0,0l0,0c-0.4,0.4-0.8,0.7-1.2,1L38.2,32L38.2,32z M32.9,37.2c0.9-1,1.9-1.9,2.8-2.9l-0.6-0.6c-0.7,0.7-1.4,1.4-2.1,2.1
		l0,0l0,0l0,0l0,0l0,0l0,0l0,0l0,0l0,0l0,0l0,0l0,0l0,0l0,0l-0.1,0.1l0,0l0,0l0,0l0,0l0,0c-0.2,0.2-0.3,0.4-0.5,0.5L32.9,37.2
		L32.9,37.2z M28,42.9c0.8-1.1,1.7-2.1,2.6-3.1L30,39.3c-0.3,0.3-0.5,0.6-0.8,0.9l0,0l0,0l0,0l0,0l0,0l0,0l0,0l0,0l0,0l0,0l0,0l0,0
		l0,0l0,0c0,0,0,0,0,0.1l0,0l0,0l0,0l0,0l0,0l0,0l0,0l0,0l0,0l0,0l0,0c-0.5,0.6-1,1.3-1.5,1.9L28,42.9L28,42.9z M23.6,49
		c0.8-1.1,1.5-2.2,2.3-3.3l-0.6-0.5l0,0l0,0l0,0l0,0l0,0l0,0l0,0l0,0l0,0l0,0l0,0c0,0.1-0.1,0.1-0.1,0.1l0,0l0,0l0,0l0,0l0,0l0,0
		l0,0l0,0l0,0l0,0l0,0c-0.1,0.1-0.1,0.1-0.1,0.2l0,0l0,0l0,0l0,0l0,0l0,0l0,0l0,0l0,0c-0.1,0.1-0.1,0.1-0.2,0.2l0,0l0,0l0,0l0,0l0,0
		l0,0l0,0l0,0l0,0l0,0l0,0c0,0.1-0.1,0.1-0.1,0.1l0,0l0,0l0,0l0,0l0,0l0,0l0,0l0,0l0,0l0,0l0,0l0,0l0,0l0,0l0,0l0,0c0,0,0,0,0,0.1
		l0,0l0,0l0,0l0,0l0,0l0,0l0,0l0,0l0,0l0,0l0,0c0,0,0,0,0,0.1l0,0c-0.5,0.6-0.9,1.3-1.3,1.9L23.6,49L23.6,49z M19.6,55.4
		c0.7-1.2,1.3-2.3,2-3.4l-0.7-0.4c-0.1,0.1-0.1,0.2-0.2,0.2l0,0l0,0l0,0l0,0l0,0l0,0l0,0l0,0l0,0l0,0l0,0l0,0l0,0l0,0c0,0,0,0,0,0.1
		l0,0c0,0,0,0,0,0.1l0,0l0,0l0,0l0,0l0,0l0,0l0,0l0,0l0,0c0,0,0,0,0,0.1l0,0c-0.6,1-1.1,1.9-1.7,2.9L19.6,55.4L19.6,55.4z
		 M16.2,62.1c0.6-1.2,1.1-2.4,1.7-3.6l-0.7-0.4c-0.3,0.6-0.6,1.1-0.8,1.7l0,0c0,0,0,0,0,0.1l0,0c0,0,0,0,0,0.1l0,0
		c-0.3,0.7-0.6,1.3-0.9,1.9L16.2,62.1L16.2,62.1z M13.4,69c0.5-1.3,0.9-2.5,1.4-3.7L14.1,65c-0.2,0.4-0.3,0.7-0.5,1.1l0,0
		c0,0,0,0,0,0.1l0,0c0,0,0,0,0,0.1l0,0c0,0,0,0,0,0.1l0,0c0,0.1-0.1,0.1-0.1,0.1l0,0l0,0l0,0l0,0l0,0l0,0l0,0l0,0l0,0l0,0l0,0l0,0
		c0,0.1,0,0.1-0.1,0.1l0,0c0,0,0,0,0,0.1l0,0c0,0,0,0,0,0.1l0,0c0,0,0,0,0,0.1l0,0c-0.3,0.7-0.6,1.4-0.8,2.1L13.4,69L13.4,69z
		 M11.2,76.2c0.4-1.3,0.7-2.6,1.1-3.8l-0.7-0.3c-0.4,1.3-0.8,2.6-1.1,3.9L11.2,76.2L11.2,76.2z M9.5,83.5c0.3-1.3,0.5-2.6,0.8-3.9
		l-0.7-0.1c0,0.1,0,0.1-0.1,0.2l0,0l0,0l0,0l0,0l0,0l0,0l0,0l0,0c0,0.1,0,0.1-0.1,0.2l0,0c-0.2,0.9-0.4,1.8-0.6,2.7l0,0
		c0,0,0,0,0,0.1l0,0c0,0,0,0,0,0.1l0,0c0,0,0,0,0,0.1l0,0V83l0,0l0,0l0,0l0,0l0,0l0,0l0,0l0,0c0,0,0,0,0,0.1l0,0
		c-0.1,0.2-0.1,0.4-0.1,0.5L9.5,83.5L9.5,83.5z M8.5,91c0.2-1.3,0.3-2.7,0.5-4l-0.8-0.1c-0.1,0.2-0.1,0.4-0.1,0.6l0,0c0,0,0,0,0,0.1
		l0,0c0,0,0,0,0,0.1l0,0c0,0.1,0,0.1,0,0.2l0,0c0,0,0,0,0,0.1l0,0c0,0,0,0,0,0.1l0,0c0,0,0,0,0,0.1l0,0c0,0.1,0,0.1,0,0.2l0,0
		c0,0,0,0,0,0.1l0,0c0,0,0,0,0,0.1l0,0c0,0.1,0,0.1,0,0.2l0,0c0,0,0,0,0,0.1l0,0c0,0,0,0,0,0.1l0,0C8,89.5,8,90,7.9,90.5l0,0
		c0,0,0,0,0,0.1l0,0c0,0,0,0,0,0.1l0,0c0,0.1,0,0.1,0,0.1l0,0l0,0l0,0l0,0l0,0l0,0l0,0l0,0c-0.1,0.3-0.1,0.6-0.1,0.8L8.5,91L8.5,91z
		 M8.1,98.5c0-1.3,0.1-2.7,0.2-4H7.4c0,0.3-0.1,0.6-0.1,0.8l0,0c0,0,0,0,0,0.1l0,0c0,0,0,0,0,0.1l0,0v0.1l0,0c0,0,0,0,0,0.1l0,0
		c0,0,0,0,0,0.1l0,0c0,0,0,0,0,0.1l0,0c0,0,0,0,0,0.1l0,0c0,0,0,0,0,0.1l0,0c0,0,0,0,0,0.1l0,0l0,0l0,0l0,0l0,0l0,0l0,0l0,0v0.1l0,0
		l0,0l0,0l0,0l0,0l0,0l0,0c0,0,0,0,0,0.1l0,0c0,0.1,0,0.1,0,0.1l0,0c0,0,0,0,0,0.1l0,0c0,0,0,0,0,0.1l0,0c-0.1,0.8-0.1,1.6-0.1,2.4
		L8.1,98.5L8.1,98.5z M7.5,106.1l0.8-0.1c-0.1-1.3-0.2-2.7-0.2-4H7.3C7.3,103.4,7.4,104.8,7.5,106.1L7.5,106.1z M8.3,113.6l0.8-0.1
		c-0.2-1.3-0.4-2.7-0.5-4l-0.8,0.1c0.1,1,0.2,1.9,0.3,2.8l0,0c0,0,0,0,0,0.1l0,0c0,0,0,0,0,0.1l0,0c0,0.1,0,0.1,0,0.1l0,0l0,0l0,0
		l0,0l0,0l0,0l0,0l0,0l0,0l0,0c0,0,0,0,0,0.1l0,0l0,0l0,0l0,0l0,0c0,0,0,0,0,0.1l0,0c0,0,0,0,0,0.1l0,0
		C8.2,113.2,8.3,113.4,8.3,113.6L8.3,113.6z M9.7,121.1l0.8-0.2c-0.3-1.3-0.6-2.6-0.8-3.9l-0.8,0.2C9.1,118.5,9.4,119.7,9.7,121.1
		L9.7,121.1C9.7,121,9.7,121,9.7,121.1C9.7,121,9.7,121,9.7,121.1C9.7,121,9.7,121,9.7,121.1C9.7,121,9.7,121,9.7,121.1
		C9.7,121,9.7,121,9.7,121.1L9.7,121.1z M11.7,128.4l0.7-0.3c-0.4-1.3-0.8-2.6-1.1-3.8l-0.7,0.2c0.1,0.3,0.2,0.6,0.3,0.9l0,0
		c0,0,0,0,0,0.1l0,0c0,0,0,0,0,0.1l0,0c0,0,0,0,0,0.1l0,0c0,0,0,0,0,0.1l0,0c0,0,0,0,0,0.1l0,0l0,0l0,0l0,0l0,0l0,0l0,0l0,0
		c0,0,0,0,0,0.1l0,0c0.2,0.8,0.5,1.5,0.7,2.2l0,0l0,0l0,0l0,0l0,0l0,0l0,0l0,0l0,0c0,0.1,0,0.1,0,0.1l0,0l0,0l0,0l0,0l0,0l0,0l0,0
		l0,0l0,0l0,0l0,0l0,0l0,0l0,0C11.6,128.3,11.6,128.3,11.7,128.4L11.7,128.4L11.7,128.4L11.7,128.4z M14.3,135.5l0.7-0.3
		c-0.5-1.2-1-2.5-1.5-3.7l-0.7,0.3c0.3,0.9,0.7,1.7,1,2.6l0,0c0,0,0,0,0,0.1l0,0c0,0,0,0,0,0.1l0,0c0,0,0,0,0,0.1l0,0
		c0,0.1,0.1,0.1,0.1,0.1l0,0l0,0l0,0l0,0l0,0l0,0l0,0l0,0l0,0l0,0l0,0l0,0l0,0c0,0.1,0,0.1,0.1,0.1l0,0l0,0l0,0l0,0l0,0l0,0l0,0l0,0
		l0,0l0,0l0,0l0,0l0,0c0,0.1,0,0.1,0.1,0.1l0,0l0,0l0,0l0,0l0,0l0,0l0,0l0,0l0,0l0,0l0,0c0,0.1,0.1,0.1,0.1,0.2l0,0v0.1l0,0
		C14.3,135.4,14.3,135.5,14.3,135.5L14.3,135.5z M17.5,142.4l0.7-0.4c-0.6-1.2-1.2-2.4-1.8-3.6l-0.7,0.3
		C16.2,139.9,16.8,141.2,17.5,142.4L17.5,142.4z M21.2,149l0.7-0.4c-0.7-1.1-1.4-2.3-2-3.4l-0.7,0.4c0.2,0.4,0.5,0.8,0.7,1.2l0,0
		c0,0,0,0,0,0.1l0,0l0,0l0,0l0,0l0,0l0,0l0,0l0,0l0,0c0,0,0,0.1,0.1,0.1l0,0c0,0,0,0,0,0.1l0,0l0,0l0,0l0,0l0,0l0,0l0,0l0,0l0,0l0,0
		l0,0l0,0l0,0l0,0l0,0c0,0,0,0,0,0.1l0,0l0,0l0,0l0,0l0,0l0,0l0,0l0,0l0,0l0,0l0,0l0,0l0,0l0,0l0,0l0,0l0.1,0.1l0,0l0,0l0,0l0,0l0,0
		l0,0l0,0l0,0l0,0l0,0l0,0l0,0l0,0l0,0l0,0c0.1,0.1,0.1,0.1,0.1,0.2l0,0c0,0,0,0,0,0.1l0,0l0,0l0,0l0,0l0,0l0,0l0,0
		c0.1,0.1,0.1,0.1,0.1,0.2l0,0l0,0l0,0l0,0l0,0C20.8,148.4,21,148.7,21.2,149L21.2,149z M25.4,155.3l0.6-0.5
		c-0.8-1.1-1.6-2.2-2.3-3.3l-0.6,0.4c0.5,0.8,1,1.5,1.6,2.2l0,0c0.1,0.1,0.1,0.1,0.1,0.1l0,0l0,0l0,0l0,0l0,0l0,0l0,0l0,0l0,0l0,0
		l0,0l0,0C25,154.7,25.2,155,25.4,155.3L25.4,155.3z M30.2,161.2l0.6-0.5c-0.9-1-1.7-2-2.6-3.1l-0.6,0.5
		C28.4,159.1,29.3,160.2,30.2,161.2L30.2,161.2z M35.4,166.7l0.5-0.6c-1-0.9-1.9-1.9-2.8-2.9l-0.6,0.5c0.5,0.5,0.9,1,1.4,1.4l0,0
		l0,0l0,0l0,0l0,0l0,0l0,0l0,0l0,0l0,0l0,0l0.1,0.1l0,0l0,0l0,0l0,0l0,0l0,0l0,0l0,0l0,0l0,0l0,0l0,0l0,0l0,0
		C34.6,165.9,35,166.3,35.4,166.7L35.4,166.7z M41,171.7l0.5-0.6c-1-0.9-2-1.7-3-2.6l-0.5,0.6C39,170,40,170.9,41,171.7L41,171.7z
		 M47.1,176.3l0.5-0.6c-1.1-0.8-2.2-1.6-3.2-2.4l-0.5,0.6c0.4,0.3,0.8,0.6,1.1,0.9l0,0c0,0,0,0,0.1,0l0,0c0.1,0.1,0.1,0.1,0.1,0.1
		l0,0l0,0l0,0l0,0l0,0l0,0l0,0l0,0l0,0l0,0l0,0l0,0l0,0l0,0C45.9,175.5,46.5,175.9,47.1,176.3L47.1,176.3z M53.4,180.4l0.4-0.7
		c-1.2-0.7-2.3-1.4-3.4-2.1l-0.4,0.7c1.1,0.7,2.2,1.4,3.3,2l0,0l0,0l0,0l0,0l0,0l0,0C53.4,180.4,53.4,180.4,53.4,180.4L53.4,180.4
		L53.4,180.4L53.4,180.4L53.4,180.4L53.4,180.4z M60.2,184l0.3-0.7c-1.2-0.6-2.4-1.2-3.6-1.8l-0.4,0.7c0.1,0.1,0.3,0.2,0.4,0.2l0,0
		c0,0,0,0,0.1,0l0,0c0,0,0,0,0.1,0l0,0c0.1,0.1,0.1,0.1,0.2,0.1l0,0c0,0,0,0,0.1,0l0,0c0,0,0,0,0.1,0l0,0c0,0,0,0,0.1,0l0,0
		c0,0,0,0,0.1,0l0,0c0.1,0,0.1,0.1,0.1,0.1l0,0c0,0,0,0,0.1,0l0,0c0,0,0,0,0.1,0l0,0l0,0l0,0l0,0l0,0c0,0,0,0,0.1,0l0,0
		c0,0,0,0,0.1,0l0,0c0.1,0,0.1,0.1,0.1,0.1l0,0c0,0,0,0,0.1,0l0,0l0,0l0,0l0,0l0,0l0,0l0,0c0,0,0,0,0.1,0l0,0
		c0.1,0.1,0.1,0.1,0.2,0.1l0,0c0,0,0,0,0.1,0l0,0C58.7,183.2,59.4,183.6,60.2,184L60.2,184z M67.1,186.9l0.3-0.7
		c-1.3-0.5-2.5-1-3.7-1.5l-0.3,0.7c0.2,0.1,0.3,0.2,0.5,0.2l0,0c0,0,0,0,0.1,0l0,0c0,0,0,0,0.1,0l0,0c0.1,0,0.1,0.1,0.2,0.1l0,0l0,0
		l0,0l0,0l0,0l0,0l0,0l0,0l0,0l0,0l0,0c0,0,0,0,0.1,0l0,0l0,0l0,0l0,0l0,0l0,0l0,0l0,0l0,0l0,0l0,0l0,0l0,0l0,0l0,0l0,0
		c0,0,0,0,0.1,0l0,0l0,0l0,0l0,0l0,0l0,0l0,0l0,0l0,0l0,0l0,0l0,0l0,0l0,0l0,0l0,0c0,0,0,0,0.1,0l0,0l0,0l0,0l0,0l0,0l0,0l0,0l0,0
		l0,0l0,0l0,0l0,0l0,0c0.1,0,0.1,0.1,0.1,0.1l0,0l0,0l0,0l0,0l0,0l0,0l0,0l0,0l0,0l0,0l0,0C65.9,186.4,66.5,186.7,67.1,186.9
		L67.1,186.9z M74.3,189.3l0.2-0.7c-1.3-0.4-2.6-0.8-3.8-1.2l-0.3,0.7c0.1,0.1,0.3,0.1,0.4,0.1l0,0c0,0,0,0,0.1,0l0,0c0,0,0,0,0.1,0
		l0,0c0,0,0,0,0.1,0l0,0c0,0,0,0,0.1,0l0,0h0.1l0,0l0,0l0,0l0,0l0,0l0,0l0,0l0,0l0,0l0,0l0,0l0,0c0.1,0,0.1,0,0.1,0.1l0,0l0,0l0,0
		l0,0l0,0l0,0l0,0C72.3,188.8,73.3,189.1,74.3,189.3L74.3,189.3z M81.6,191.1l0.2-0.8c-1.3-0.3-2.6-0.6-3.9-0.9l-0.2,0.8
		c0,0,0,0,0.1,0l0,0l0,0l0,0l0,0l0,0l0,0l0,0l0,0c0,0,0,0,0.1,0l0,0C79.1,190.6,80.4,190.9,81.6,191.1L81.6,191.1z M89.1,192.3
		l0.1-0.8c-1.3-0.2-2.7-0.4-4-0.6l-0.1,0.8C86.4,192,87.8,192.2,89.1,192.3L89.1,192.3z M96.7,192.9l0.1-0.8c-1.3-0.1-2.7-0.2-4-0.3
		l-0.1,0.8c0.3,0,0.5,0.1,0.8,0.1l0,0l0,0l0,0l0,0l0,0l0,0l0,0l0,0l0,0l0,0c0,0,0,0,0.1,0l0,0l0,0l0,0l0,0l0,0c0,0,0,0,0.1,0l0,0
		c0,0,0,0,0.1,0l0,0c0.1,0,0.1,0,0.1,0l0,0c0,0,0,0,0.1,0l0,0c0.3,0,0.6,0.1,0.8,0.1l0,0c0,0,0,0,0.1,0l0,0c0,0,0,0,0.1,0l0,0
		c0.1,0,0.1,0,0.1,0l0,0c0,0,0,0,0.1,0l0,0l0,0l0,0l0,0l0,0c0,0,0,0,0.1,0l0,0c0,0,0,0,0.1,0l0,0l0,0l0,0l0,0l0,0l0,0l0,0l0,0
		c0.1,0,0.1,0,0.1,0l0,0c0,0,0,0,0.1,0l0,0c0,0,0,0,0.1,0l0,0C95.8,192.9,96.2,192.9,96.7,192.9L96.7,192.9z"/>
</g>
</svg>
