<?xml version="1.0" encoding="utf-8"?>
<!-- Generator: Adobe Illustrator 23.1.0, SVG Export Plug-In . SVG Version: 6.00 Build 0)  -->
<svg version="1.1" id="Layer_1" xmlns="http://www.w3.org/2000/svg" xmlns:xlink="http://www.w3.org/1999/xlink" x="0px" y="0px"
	 viewBox="0 0 200 200" style="enable-background:new 0 0 200 200;" xml:space="preserve">
<style type="text/css">
	.st0{fill:#FFFFFF;}
	.st1{fill:#006DCC;}
</style>
<title>btn_playback_widget_play</title>
<g id="play_button">
	<g>
		<circle class="st0" cx="100" cy="99.9" r="83.1"/>
		<path class="st1" d="M100,20.2c44.1,0,79.8,35.7,79.8,79.8s-35.7,79.8-79.8,79.8S20.2,144.1,20.2,100c0,0,0,0,0,0v-0.1
			C20.3,55.9,56,20.2,100,20.2 M100,13.6c-47.7,0-86.3,38.7-86.3,86.3s38.7,86.3,86.3,86.3s86.3-38.7,86.3-86.3v-0.1
			C186.3,52.2,147.6,13.6,100,13.6z"/>
	</g>
	<path class="st1" d="M141.5,98.3l-66-36.7c-0.6-0.4-1.3-0.5-1.9-0.2c-0.6,0.4-0.9,1.1-0.8,1.8v73.1c-0.1,0.7,0.2,1.4,0.8,1.8
		c0.6,0.3,1.4,0.3,1.9-0.1l66-36.6c0.9-0.3,1.3-1.2,1.1-2C142.5,98.9,142.1,98.5,141.5,98.3z"/>
</g>
</svg>
